G04 #@! TF.GenerationSoftware,KiCad,Pcbnew,(6.0.4)*
G04 #@! TF.CreationDate,2022-09-09T10:41:32-05:00*
G04 #@! TF.ProjectId,v2-PowerBook-BLUESCSI-dehij,76322d50-6f77-4657-9242-6f6f6b2d424c,rev?*
G04 #@! TF.SameCoordinates,Original*
G04 #@! TF.FileFunction,Soldermask,Bot*
G04 #@! TF.FilePolarity,Negative*
%FSLAX46Y46*%
G04 Gerber Fmt 4.6, Leading zero omitted, Abs format (unit mm)*
G04 Created by KiCad (PCBNEW (6.0.4)) date 2022-09-09 10:41:32*
%MOMM*%
%LPD*%
G01*
G04 APERTURE LIST*
%ADD10R,1.700000X1.700000*%
%ADD11O,1.700000X1.700000*%
%ADD12C,1.700000*%
%ADD13C,0.800000*%
%ADD14C,5.000000*%
%ADD15R,1.350000X1.350000*%
%ADD16O,1.350000X1.350000*%
G04 APERTURE END LIST*
D10*
X109950000Y-84500000D03*
D11*
X109950000Y-81960000D03*
D10*
X113800000Y-84400000D03*
D11*
X113800000Y-81860000D03*
X113800000Y-79320000D03*
D10*
X102800000Y-109270000D03*
D12*
X105340000Y-109270000D03*
X107880000Y-109270000D03*
X110420000Y-109270000D03*
X112960000Y-109270000D03*
X115500000Y-109270000D03*
X118040000Y-109270000D03*
X120580000Y-109270000D03*
X123120000Y-109270000D03*
X125660000Y-109270000D03*
X128200000Y-109270000D03*
X130740000Y-109270000D03*
X133280000Y-109270000D03*
X135820000Y-109270000D03*
X138360000Y-109270000D03*
X140900000Y-109270000D03*
X143440000Y-109270000D03*
X145980000Y-109270000D03*
X148520000Y-109270000D03*
X151060000Y-109270000D03*
X151060000Y-94030000D03*
X148520000Y-94030000D03*
X145980000Y-94030000D03*
X143440000Y-94030000D03*
X140900000Y-94030000D03*
X138360000Y-94030000D03*
X135820000Y-94030000D03*
X133280000Y-94030000D03*
X130740000Y-94030000D03*
X128200000Y-94030000D03*
X125660000Y-94030000D03*
X123120000Y-94030000D03*
X120580000Y-94030000D03*
X118040000Y-94030000D03*
X115500000Y-94030000D03*
X112960000Y-94030000D03*
X110420000Y-94030000D03*
X107880000Y-94030000D03*
X105340000Y-94030000D03*
X102800000Y-94030000D03*
D13*
X161348350Y-96348350D03*
X161348350Y-99000000D03*
X162674175Y-95799175D03*
X164549175Y-97674175D03*
D14*
X162674175Y-97674175D03*
D13*
X162674175Y-99549175D03*
X164000000Y-96348350D03*
X164000000Y-99000000D03*
X160799175Y-97674175D03*
X105125000Y-80645000D03*
X103250000Y-78770000D03*
X104575825Y-81970825D03*
D14*
X103250000Y-80645000D03*
D13*
X101924175Y-79319175D03*
X101924175Y-81970825D03*
X103250000Y-82520000D03*
X101375000Y-80645000D03*
X104575825Y-79319175D03*
D14*
X103250000Y-122325000D03*
D13*
X101924175Y-123650825D03*
X103250000Y-120450000D03*
X101375000Y-122325000D03*
X104575825Y-120999175D03*
X104575825Y-123650825D03*
X105125000Y-122325000D03*
X103250000Y-124200000D03*
X101924175Y-120999175D03*
D15*
X78740000Y-120650000D03*
D16*
X76740000Y-120650000D03*
X78740000Y-118650000D03*
X76740000Y-118650000D03*
X78740000Y-116650000D03*
X76740000Y-116650000D03*
X78740000Y-114650000D03*
X76740000Y-114650000D03*
X78740000Y-112650000D03*
X76740000Y-112650000D03*
X78740000Y-110650000D03*
X76740000Y-110650000D03*
X78740000Y-108650000D03*
X76740000Y-108650000D03*
X78740000Y-106650000D03*
X76740000Y-106650000D03*
X78740000Y-104650000D03*
X76740000Y-104650000D03*
X78740000Y-102650000D03*
X76740000Y-102650000D03*
X78740000Y-100650000D03*
X76740000Y-100650000D03*
X78740000Y-98650000D03*
X76740000Y-98650000D03*
X78740000Y-96650000D03*
X76740000Y-96650000D03*
X78740000Y-94650000D03*
X76740000Y-94650000D03*
X78740000Y-92650000D03*
X76740000Y-92650000D03*
X78740000Y-90650000D03*
X76740000Y-90650000D03*
X78740000Y-88650000D03*
X76740000Y-88650000D03*
X78740000Y-86650000D03*
X76740000Y-86650000D03*
X78740000Y-84650000D03*
X76740000Y-84650000D03*
X78740000Y-82650000D03*
X76740000Y-82650000D03*
M02*
