M48
; DRILL file {KiCad (6.0.4)} date Fri Sep  9 10:41:40 2022
; FORMAT={-:-/ absolute / metric / decimal}
; #@! TF.CreationDate,2022-09-09T10:41:40-05:00
; #@! TF.GenerationSoftware,Kicad,Pcbnew,(6.0.4)
; #@! TF.FileFunction,Plated,1,2,PTH
FMAT,2
METRIC
; #@! TA.AperFunction,Plated,PTH,ViaDrill
T1C0.400
; #@! TA.AperFunction,Plated,PTH,ComponentDrill
T2C0.500
; #@! TA.AperFunction,Plated,PTH,ComponentDrill
T3C0.800
; #@! TA.AperFunction,Plated,PTH,ComponentDrill
T4C1.000
; #@! TA.AperFunction,Plated,PTH,ComponentDrill
T5C2.500
%
G90
G05
T1
X75.367Y-107.585
X81.4Y-119.45
X81.534Y-88.646
X81.534Y-90.678
X81.534Y-100.584
X81.788Y-95.25
X81.85Y-83.6
X82.241Y-93.72
X82.855Y-92.932
X83.63Y-92.3
X83.82Y-83.82
X90.5Y-81.2
X90.5Y-83.8
X90.5Y-86.3
X90.5Y-89.0
X90.5Y-91.5
X90.5Y-94.0
X90.5Y-96.5
X90.5Y-99.0
X90.5Y-101.5
X90.5Y-104.15
X90.5Y-106.7
X90.5Y-109.2
X90.5Y-111.8
X90.5Y-114.3
X90.5Y-116.8
X90.5Y-119.4
X90.5Y-121.9
X90.5Y-124.425
X91.5Y-81.2
X91.5Y-83.8
X91.5Y-86.3
X91.5Y-89.0
X91.5Y-91.5
X91.5Y-94.0
X91.5Y-96.5
X91.5Y-99.0
X91.5Y-101.5
X91.5Y-104.15
X91.5Y-106.7
X91.5Y-109.2
X91.5Y-111.8
X91.5Y-114.3
X91.5Y-116.8
X91.5Y-119.4
X91.5Y-121.9
X91.5Y-124.425
X104.73Y-97.55
X104.73Y-100.32
X104.73Y-102.89
X104.73Y-105.61
X104.73Y-113.26
X104.73Y-115.27
X107.99Y-106.65
X109.89Y-123.37
X110.61Y-104.41
X110.998Y-87.144
X112.772Y-100.5
X113.005Y-102.08
X113.346Y-113.717
X114.923Y-123.37
X115.24Y-116.27
X115.6Y-100.5
X115.746Y-87.477
X116.34Y-91.206
X118.36Y-99.16
X119.956Y-79.22
X119.956Y-123.37
X120.59Y-100.5
X120.81Y-119.62
X122.89Y-87.39
X123.53Y-100.5
X124.989Y-123.37
X125.033Y-79.22
X125.49Y-81.62
X125.49Y-96.73
X127.2Y-100.5
X128.24Y-84.6
X128.964Y-89.998
X130.022Y-123.37
X130.11Y-79.22
X130.71Y-100.5
X130.87Y-88.01
X131.594Y-92.521
X132.936Y-88.734
X133.34Y-100.5
X134.677Y-85.18
X135.055Y-123.37
X135.187Y-79.22
X136.17Y-100.5
X137.81Y-85.18
X138.46Y-100.5
X140.088Y-123.37
X140.264Y-79.22
X140.94Y-119.65
X141.38Y-100.5
X143.86Y-119.36
X144.69Y-100.52
X145.121Y-123.37
X145.342Y-79.22
X146.02Y-83.25
X149.98Y-100.48
X150.154Y-123.37
X150.419Y-79.22
X152.81Y-84.86
X155.02Y-100.5
X155.187Y-123.37
X160.22Y-123.37
X160.33Y-79.22
X160.33Y-81.92
X160.33Y-86.605
X160.33Y-91.29
X160.33Y-100.66
X160.33Y-105.345
X160.33Y-110.03
X160.33Y-114.715
X160.33Y-119.4
X165.65Y-79.22
X165.65Y-123.49
T2
X101.375Y-80.645
X101.375Y-122.325
X101.924Y-79.319
X101.924Y-81.971
X101.924Y-120.999
X101.924Y-123.651
X103.25Y-78.77
X103.25Y-82.52
X103.25Y-120.45
X103.25Y-124.2
X104.576Y-79.319
X104.576Y-81.971
X104.576Y-120.999
X104.576Y-123.651
X105.125Y-80.645
X105.125Y-122.325
X160.799Y-97.674
X161.348Y-96.348
X161.348Y-99.0
X162.674Y-95.799
X162.674Y-99.549
X164.0Y-96.348
X164.0Y-99.0
X164.549Y-97.674
T3
X76.74Y-82.65
X76.74Y-84.65
X76.74Y-86.65
X76.74Y-88.65
X76.74Y-90.65
X76.74Y-92.65
X76.74Y-94.65
X76.74Y-96.65
X76.74Y-98.65
X76.74Y-100.65
X76.74Y-102.65
X76.74Y-104.65
X76.74Y-106.65
X76.74Y-108.65
X76.74Y-110.65
X76.74Y-112.65
X76.74Y-114.65
X76.74Y-116.65
X76.74Y-118.65
X76.74Y-120.65
X78.74Y-82.65
X78.74Y-84.65
X78.74Y-86.65
X78.74Y-88.65
X78.74Y-90.65
X78.74Y-92.65
X78.74Y-94.65
X78.74Y-96.65
X78.74Y-98.65
X78.74Y-100.65
X78.74Y-102.65
X78.74Y-104.65
X78.74Y-106.65
X78.74Y-108.65
X78.74Y-110.65
X78.74Y-112.65
X78.74Y-114.65
X78.74Y-116.65
X78.74Y-118.65
X78.74Y-120.65
T4
X102.8Y-94.03
X102.8Y-109.27
X105.34Y-94.03
X105.34Y-109.27
X107.88Y-94.03
X107.88Y-109.27
X109.95Y-81.96
X109.95Y-84.5
X110.42Y-94.03
X110.42Y-109.27
X112.96Y-94.03
X112.96Y-109.27
X113.8Y-79.32
X113.8Y-81.86
X113.8Y-84.4
X115.5Y-94.03
X115.5Y-109.27
X118.04Y-94.03
X118.04Y-109.27
X120.58Y-94.03
X120.58Y-109.27
X123.12Y-94.03
X123.12Y-109.27
X125.66Y-94.03
X125.66Y-109.27
X128.2Y-94.03
X128.2Y-109.27
X130.74Y-94.03
X130.74Y-109.27
X133.28Y-94.03
X133.28Y-109.27
X135.82Y-94.03
X135.82Y-109.27
X138.36Y-94.03
X138.36Y-109.27
X140.9Y-94.03
X140.9Y-109.27
X143.44Y-94.03
X143.44Y-109.27
X145.98Y-94.03
X145.98Y-109.27
X148.52Y-94.03
X148.52Y-109.27
X151.06Y-94.03
X151.06Y-109.27
T5
X103.25Y-80.645
X103.25Y-122.325
X162.674Y-97.674
T0
M30
