G04 #@! TF.GenerationSoftware,KiCad,Pcbnew,(6.0.4)*
G04 #@! TF.CreationDate,2022-09-09T10:41:32-05:00*
G04 #@! TF.ProjectId,v2-PowerBook-BLUESCSI-dehij,76322d50-6f77-4657-9242-6f6f6b2d424c,rev?*
G04 #@! TF.SameCoordinates,Original*
G04 #@! TF.FileFunction,Legend,Bot*
G04 #@! TF.FilePolarity,Positive*
%FSLAX46Y46*%
G04 Gerber Fmt 4.6, Leading zero omitted, Abs format (unit mm)*
G04 Created by KiCad (PCBNEW (6.0.4)) date 2022-09-09 10:41:32*
%MOMM*%
%LPD*%
G01*
G04 APERTURE LIST*
%ADD10C,0.120000*%
%ADD11C,0.150000*%
%ADD12C,0.200000*%
%ADD13R,1.700000X1.700000*%
%ADD14O,1.700000X1.700000*%
%ADD15C,1.700000*%
%ADD16C,0.800000*%
%ADD17C,5.000000*%
%ADD18R,1.350000X1.350000*%
%ADD19O,1.350000X1.350000*%
G04 APERTURE END LIST*
D10*
X77760000Y-103620000D02*
X80980000Y-103620000D01*
X80980000Y-103620000D02*
X80980000Y-105690000D01*
X80980000Y-105690000D02*
X77760000Y-105690000D01*
X77760000Y-105690000D02*
X77760000Y-103620000D01*
D11*
X151231028Y-124952380D02*
X151135790Y-124952380D01*
X151040552Y-125000000D01*
X150992933Y-125047619D01*
X150945314Y-125142857D01*
X150897695Y-125333333D01*
X150897695Y-125571428D01*
X150945314Y-125761904D01*
X150992933Y-125857142D01*
X151040552Y-125904761D01*
X151135790Y-125952380D01*
X151231028Y-125952380D01*
X151326267Y-125904761D01*
X151373886Y-125857142D01*
X151421505Y-125761904D01*
X151469124Y-125571428D01*
X151469124Y-125333333D01*
X151421505Y-125142857D01*
X151373886Y-125047619D01*
X151326267Y-125000000D01*
X151231028Y-124952380D01*
X150421505Y-125952380D02*
X150231028Y-125952380D01*
X150135790Y-125904761D01*
X150088171Y-125857142D01*
X149992933Y-125714285D01*
X149945314Y-125523809D01*
X149945314Y-125142857D01*
X149992933Y-125047619D01*
X150040552Y-125000000D01*
X150135790Y-124952380D01*
X150326267Y-124952380D01*
X150421505Y-125000000D01*
X150469124Y-125047619D01*
X150516743Y-125142857D01*
X150516743Y-125380952D01*
X150469124Y-125476190D01*
X150421505Y-125523809D01*
X150326267Y-125571428D01*
X150135790Y-125571428D01*
X150040552Y-125523809D01*
X149992933Y-125476190D01*
X149945314Y-125380952D01*
X148802457Y-124904761D02*
X149659600Y-126190476D01*
X148516743Y-125047619D02*
X148469124Y-125000000D01*
X148373886Y-124952380D01*
X148135790Y-124952380D01*
X148040552Y-125000000D01*
X147992933Y-125047619D01*
X147945314Y-125142857D01*
X147945314Y-125238095D01*
X147992933Y-125380952D01*
X148564362Y-125952380D01*
X147945314Y-125952380D01*
X147326267Y-124952380D02*
X147231028Y-124952380D01*
X147135790Y-125000000D01*
X147088171Y-125047619D01*
X147040552Y-125142857D01*
X146992933Y-125333333D01*
X146992933Y-125571428D01*
X147040552Y-125761904D01*
X147088171Y-125857142D01*
X147135790Y-125904761D01*
X147231028Y-125952380D01*
X147326267Y-125952380D01*
X147421505Y-125904761D01*
X147469124Y-125857142D01*
X147516743Y-125761904D01*
X147564362Y-125571428D01*
X147564362Y-125333333D01*
X147516743Y-125142857D01*
X147469124Y-125047619D01*
X147421505Y-125000000D01*
X147326267Y-124952380D01*
X146611981Y-125047619D02*
X146564362Y-125000000D01*
X146469124Y-124952380D01*
X146231028Y-124952380D01*
X146135790Y-125000000D01*
X146088171Y-125047619D01*
X146040552Y-125142857D01*
X146040552Y-125238095D01*
X146088171Y-125380952D01*
X146659600Y-125952380D01*
X146040552Y-125952380D01*
X145659600Y-125047619D02*
X145611981Y-125000000D01*
X145516743Y-124952380D01*
X145278648Y-124952380D01*
X145183409Y-125000000D01*
X145135790Y-125047619D01*
X145088171Y-125142857D01*
X145088171Y-125238095D01*
X145135790Y-125380952D01*
X145707219Y-125952380D01*
X145088171Y-125952380D01*
D12*
X154423409Y-123802380D02*
X154423409Y-122802380D01*
X153994838Y-123802380D02*
X153994838Y-123278571D01*
X154042457Y-123183333D01*
X154137695Y-123135714D01*
X154280552Y-123135714D01*
X154375790Y-123183333D01*
X154423409Y-123230952D01*
X153661505Y-123135714D02*
X153280552Y-123135714D01*
X153518648Y-122802380D02*
X153518648Y-123659523D01*
X153471028Y-123754761D01*
X153375790Y-123802380D01*
X153280552Y-123802380D01*
X153090076Y-123135714D02*
X152709124Y-123135714D01*
X152947219Y-122802380D02*
X152947219Y-123659523D01*
X152899600Y-123754761D01*
X152804362Y-123802380D01*
X152709124Y-123802380D01*
X152375790Y-123135714D02*
X152375790Y-124135714D01*
X152375790Y-123183333D02*
X152280552Y-123135714D01*
X152090076Y-123135714D01*
X151994838Y-123183333D01*
X151947219Y-123230952D01*
X151899600Y-123326190D01*
X151899600Y-123611904D01*
X151947219Y-123707142D01*
X151994838Y-123754761D01*
X152090076Y-123802380D01*
X152280552Y-123802380D01*
X152375790Y-123754761D01*
X151518648Y-123754761D02*
X151423409Y-123802380D01*
X151232933Y-123802380D01*
X151137695Y-123754761D01*
X151090076Y-123659523D01*
X151090076Y-123611904D01*
X151137695Y-123516666D01*
X151232933Y-123469047D01*
X151375790Y-123469047D01*
X151471028Y-123421428D01*
X151518648Y-123326190D01*
X151518648Y-123278571D01*
X151471028Y-123183333D01*
X151375790Y-123135714D01*
X151232933Y-123135714D01*
X151137695Y-123183333D01*
X150661505Y-123707142D02*
X150613886Y-123754761D01*
X150661505Y-123802380D01*
X150709124Y-123754761D01*
X150661505Y-123707142D01*
X150661505Y-123802380D01*
X150661505Y-123183333D02*
X150613886Y-123230952D01*
X150661505Y-123278571D01*
X150709124Y-123230952D01*
X150661505Y-123183333D01*
X150661505Y-123278571D01*
X149471028Y-122754761D02*
X150328171Y-124040476D01*
X148423409Y-122754761D02*
X149280552Y-124040476D01*
X147661505Y-123135714D02*
X147661505Y-123945238D01*
X147709124Y-124040476D01*
X147756743Y-124088095D01*
X147851981Y-124135714D01*
X147994838Y-124135714D01*
X148090076Y-124088095D01*
X147661505Y-123754761D02*
X147756743Y-123802380D01*
X147947219Y-123802380D01*
X148042457Y-123754761D01*
X148090076Y-123707142D01*
X148137695Y-123611904D01*
X148137695Y-123326190D01*
X148090076Y-123230952D01*
X148042457Y-123183333D01*
X147947219Y-123135714D01*
X147756743Y-123135714D01*
X147661505Y-123183333D01*
X147185314Y-123802380D02*
X147185314Y-123135714D01*
X147185314Y-122802380D02*
X147232933Y-122850000D01*
X147185314Y-122897619D01*
X147137695Y-122850000D01*
X147185314Y-122802380D01*
X147185314Y-122897619D01*
X146851981Y-123135714D02*
X146471028Y-123135714D01*
X146709124Y-122802380D02*
X146709124Y-123659523D01*
X146661505Y-123754761D01*
X146566267Y-123802380D01*
X146471028Y-123802380D01*
X146137695Y-123802380D02*
X146137695Y-122802380D01*
X145709124Y-123802380D02*
X145709124Y-123278571D01*
X145756743Y-123183333D01*
X145851981Y-123135714D01*
X145994838Y-123135714D01*
X146090076Y-123183333D01*
X146137695Y-123230952D01*
X144804362Y-123135714D02*
X144804362Y-123802380D01*
X145232933Y-123135714D02*
X145232933Y-123659523D01*
X145185314Y-123754761D01*
X145090076Y-123802380D01*
X144947219Y-123802380D01*
X144851981Y-123754761D01*
X144804362Y-123707142D01*
X144328171Y-123802380D02*
X144328171Y-122802380D01*
X144328171Y-123183333D02*
X144232933Y-123135714D01*
X144042457Y-123135714D01*
X143947219Y-123183333D01*
X143899600Y-123230952D01*
X143851981Y-123326190D01*
X143851981Y-123611904D01*
X143899600Y-123707142D01*
X143947219Y-123754761D01*
X144042457Y-123802380D01*
X144232933Y-123802380D01*
X144328171Y-123754761D01*
X143423409Y-123707142D02*
X143375790Y-123754761D01*
X143423409Y-123802380D01*
X143471028Y-123754761D01*
X143423409Y-123707142D01*
X143423409Y-123802380D01*
X142518648Y-123754761D02*
X142613886Y-123802380D01*
X142804362Y-123802380D01*
X142899600Y-123754761D01*
X142947219Y-123707142D01*
X142994838Y-123611904D01*
X142994838Y-123326190D01*
X142947219Y-123230952D01*
X142899600Y-123183333D01*
X142804362Y-123135714D01*
X142613886Y-123135714D01*
X142518648Y-123183333D01*
X141947219Y-123802380D02*
X142042457Y-123754761D01*
X142090076Y-123707142D01*
X142137695Y-123611904D01*
X142137695Y-123326190D01*
X142090076Y-123230952D01*
X142042457Y-123183333D01*
X141947219Y-123135714D01*
X141804362Y-123135714D01*
X141709124Y-123183333D01*
X141661505Y-123230952D01*
X141613886Y-123326190D01*
X141613886Y-123611904D01*
X141661505Y-123707142D01*
X141709124Y-123754761D01*
X141804362Y-123802380D01*
X141947219Y-123802380D01*
X141185314Y-123802380D02*
X141185314Y-123135714D01*
X141185314Y-123230952D02*
X141137695Y-123183333D01*
X141042457Y-123135714D01*
X140899600Y-123135714D01*
X140804362Y-123183333D01*
X140756743Y-123278571D01*
X140756743Y-123802380D01*
X140756743Y-123278571D02*
X140709124Y-123183333D01*
X140613886Y-123135714D01*
X140471028Y-123135714D01*
X140375790Y-123183333D01*
X140328171Y-123278571D01*
X140328171Y-123802380D01*
X139137695Y-122754761D02*
X139994838Y-124040476D01*
X138423409Y-123754761D02*
X138518648Y-123802380D01*
X138709124Y-123802380D01*
X138804362Y-123754761D01*
X138851981Y-123659523D01*
X138851981Y-123278571D01*
X138804362Y-123183333D01*
X138709124Y-123135714D01*
X138518648Y-123135714D01*
X138423409Y-123183333D01*
X138375790Y-123278571D01*
X138375790Y-123373809D01*
X138851981Y-123469047D01*
X137947219Y-123802380D02*
X137947219Y-123135714D01*
X137947219Y-123326190D02*
X137899600Y-123230952D01*
X137851981Y-123183333D01*
X137756743Y-123135714D01*
X137661505Y-123135714D01*
X137328171Y-123802380D02*
X137328171Y-123135714D01*
X137328171Y-122802380D02*
X137375790Y-122850000D01*
X137328171Y-122897619D01*
X137280552Y-122850000D01*
X137328171Y-122802380D01*
X137328171Y-122897619D01*
X136423409Y-123754761D02*
X136518648Y-123802380D01*
X136709124Y-123802380D01*
X136804362Y-123754761D01*
X136851981Y-123707142D01*
X136899600Y-123611904D01*
X136899600Y-123326190D01*
X136851981Y-123230952D01*
X136804362Y-123183333D01*
X136709124Y-123135714D01*
X136518648Y-123135714D01*
X136423409Y-123183333D01*
X135994838Y-123802380D02*
X135994838Y-122802380D01*
X135566267Y-123802380D02*
X135566267Y-123278571D01*
X135613886Y-123183333D01*
X135709124Y-123135714D01*
X135851981Y-123135714D01*
X135947219Y-123183333D01*
X135994838Y-123230952D01*
X134709124Y-123754761D02*
X134804362Y-123802380D01*
X134994838Y-123802380D01*
X135090076Y-123754761D01*
X135137695Y-123659523D01*
X135137695Y-123278571D01*
X135090076Y-123183333D01*
X134994838Y-123135714D01*
X134804362Y-123135714D01*
X134709124Y-123183333D01*
X134661505Y-123278571D01*
X134661505Y-123373809D01*
X135137695Y-123469047D01*
X134090076Y-123802380D02*
X134185314Y-123754761D01*
X134232933Y-123659523D01*
X134232933Y-122802380D01*
X133280552Y-123135714D02*
X133280552Y-123945238D01*
X133328171Y-124040476D01*
X133375790Y-124088095D01*
X133471028Y-124135714D01*
X133613886Y-124135714D01*
X133709124Y-124088095D01*
X133280552Y-123754761D02*
X133375790Y-123802380D01*
X133566267Y-123802380D01*
X133661505Y-123754761D01*
X133709124Y-123707142D01*
X133756743Y-123611904D01*
X133756743Y-123326190D01*
X133709124Y-123230952D01*
X133661505Y-123183333D01*
X133566267Y-123135714D01*
X133375790Y-123135714D01*
X133280552Y-123183333D01*
X132423409Y-123754761D02*
X132518648Y-123802380D01*
X132709124Y-123802380D01*
X132804362Y-123754761D01*
X132851981Y-123659523D01*
X132851981Y-123278571D01*
X132804362Y-123183333D01*
X132709124Y-123135714D01*
X132518648Y-123135714D01*
X132423409Y-123183333D01*
X132375790Y-123278571D01*
X132375790Y-123373809D01*
X132851981Y-123469047D01*
X131994838Y-123754761D02*
X131899600Y-123802380D01*
X131709124Y-123802380D01*
X131613886Y-123754761D01*
X131566267Y-123659523D01*
X131566267Y-123611904D01*
X131613886Y-123516666D01*
X131709124Y-123469047D01*
X131851981Y-123469047D01*
X131947219Y-123421428D01*
X131994838Y-123326190D01*
X131994838Y-123278571D01*
X131947219Y-123183333D01*
X131851981Y-123135714D01*
X131709124Y-123135714D01*
X131613886Y-123183333D01*
X130994838Y-123802380D02*
X131090076Y-123754761D01*
X131137695Y-123707142D01*
X131185314Y-123611904D01*
X131185314Y-123326190D01*
X131137695Y-123230952D01*
X131090076Y-123183333D01*
X130994838Y-123135714D01*
X130851981Y-123135714D01*
X130756743Y-123183333D01*
X130709124Y-123230952D01*
X130661505Y-123326190D01*
X130661505Y-123611904D01*
X130709124Y-123707142D01*
X130756743Y-123754761D01*
X130851981Y-123802380D01*
X130994838Y-123802380D01*
X130232933Y-123135714D02*
X130232933Y-123802380D01*
X130232933Y-123230952D02*
X130185314Y-123183333D01*
X130090076Y-123135714D01*
X129947219Y-123135714D01*
X129851981Y-123183333D01*
X129804362Y-123278571D01*
X129804362Y-123802380D01*
X128613886Y-122754761D02*
X129471028Y-124040476D01*
X128280552Y-123802380D02*
X128280552Y-122802380D01*
X128280552Y-123183333D02*
X128185314Y-123135714D01*
X127994838Y-123135714D01*
X127899600Y-123183333D01*
X127851981Y-123230952D01*
X127804362Y-123326190D01*
X127804362Y-123611904D01*
X127851981Y-123707142D01*
X127899600Y-123754761D01*
X127994838Y-123802380D01*
X128185314Y-123802380D01*
X128280552Y-123754761D01*
X127232933Y-123802380D02*
X127328171Y-123754761D01*
X127375790Y-123659523D01*
X127375790Y-122802380D01*
X126423409Y-123135714D02*
X126423409Y-123802380D01*
X126851981Y-123135714D02*
X126851981Y-123659523D01*
X126804362Y-123754761D01*
X126709124Y-123802380D01*
X126566267Y-123802380D01*
X126471028Y-123754761D01*
X126423409Y-123707142D01*
X125566267Y-123754761D02*
X125661505Y-123802380D01*
X125851981Y-123802380D01*
X125947219Y-123754761D01*
X125994838Y-123659523D01*
X125994838Y-123278571D01*
X125947219Y-123183333D01*
X125851981Y-123135714D01*
X125661505Y-123135714D01*
X125566267Y-123183333D01*
X125518648Y-123278571D01*
X125518648Y-123373809D01*
X125994838Y-123469047D01*
X125137695Y-123754761D02*
X125042457Y-123802380D01*
X124851981Y-123802380D01*
X124756743Y-123754761D01*
X124709124Y-123659523D01*
X124709124Y-123611904D01*
X124756743Y-123516666D01*
X124851981Y-123469047D01*
X124994838Y-123469047D01*
X125090076Y-123421428D01*
X125137695Y-123326190D01*
X125137695Y-123278571D01*
X125090076Y-123183333D01*
X124994838Y-123135714D01*
X124851981Y-123135714D01*
X124756743Y-123183333D01*
X123851981Y-123754761D02*
X123947219Y-123802380D01*
X124137695Y-123802380D01*
X124232933Y-123754761D01*
X124280552Y-123707142D01*
X124328171Y-123611904D01*
X124328171Y-123326190D01*
X124280552Y-123230952D01*
X124232933Y-123183333D01*
X124137695Y-123135714D01*
X123947219Y-123135714D01*
X123851981Y-123183333D01*
X123471028Y-123754761D02*
X123375790Y-123802380D01*
X123185314Y-123802380D01*
X123090076Y-123754761D01*
X123042457Y-123659523D01*
X123042457Y-123611904D01*
X123090076Y-123516666D01*
X123185314Y-123469047D01*
X123328171Y-123469047D01*
X123423409Y-123421428D01*
X123471028Y-123326190D01*
X123471028Y-123278571D01*
X123423409Y-123183333D01*
X123328171Y-123135714D01*
X123185314Y-123135714D01*
X123090076Y-123183333D01*
X122613886Y-123802380D02*
X122613886Y-123135714D01*
X122613886Y-122802380D02*
X122661505Y-122850000D01*
X122613886Y-122897619D01*
X122566267Y-122850000D01*
X122613886Y-122802380D01*
X122613886Y-122897619D01*
D10*
X77740000Y-119650000D02*
X79800000Y-119650000D01*
X75680000Y-121710000D02*
X77740000Y-121710000D01*
X75680000Y-81590000D02*
X79800000Y-81590000D01*
X75680000Y-121710000D02*
X75680000Y-81590000D01*
X79800000Y-119650000D02*
X79800000Y-81590000D01*
X77740000Y-121710000D02*
X77740000Y-119650000D01*
X78740000Y-121710000D02*
X79800000Y-121710000D01*
X79800000Y-121710000D02*
X79800000Y-120650000D01*
G36*
X154898639Y-114940273D02*
G01*
X154953278Y-114974258D01*
X155020033Y-115033648D01*
X155067632Y-115101885D01*
X155094808Y-115177440D01*
X155094963Y-115178215D01*
X155098040Y-115199360D01*
X155103251Y-115241430D01*
X155110482Y-115303316D01*
X155119617Y-115383910D01*
X155130540Y-115482103D01*
X155143135Y-115596785D01*
X155157288Y-115726848D01*
X155172883Y-115871183D01*
X155189804Y-116028681D01*
X155207936Y-116198232D01*
X155227163Y-116378729D01*
X155247369Y-116569062D01*
X155268440Y-116768123D01*
X155290260Y-116974801D01*
X155312712Y-117187989D01*
X155335683Y-117406578D01*
X155359055Y-117629458D01*
X155382714Y-117855521D01*
X155406544Y-118083657D01*
X155430430Y-118312758D01*
X155454255Y-118541716D01*
X155477906Y-118769420D01*
X155501265Y-118994762D01*
X155524218Y-119216633D01*
X155546649Y-119433924D01*
X155568442Y-119645526D01*
X155589482Y-119850331D01*
X155609654Y-120047230D01*
X155628842Y-120235112D01*
X155646930Y-120412871D01*
X155663803Y-120579395D01*
X155679345Y-120733578D01*
X155693442Y-120874309D01*
X155705977Y-121000481D01*
X155716834Y-121110983D01*
X155725899Y-121204707D01*
X155733056Y-121280545D01*
X155738189Y-121337386D01*
X155741183Y-121374123D01*
X155741922Y-121389646D01*
X155741208Y-121396350D01*
X155721750Y-121469258D01*
X155683308Y-121533230D01*
X155628475Y-121584974D01*
X155559839Y-121621193D01*
X155550967Y-121623921D01*
X155529723Y-121627983D01*
X155499290Y-121631218D01*
X155457459Y-121633716D01*
X155402020Y-121635561D01*
X155330763Y-121636843D01*
X155241479Y-121637647D01*
X155131959Y-121638061D01*
X155064581Y-121638180D01*
X154973805Y-121638191D01*
X154901227Y-121637865D01*
X154844233Y-121637063D01*
X154800213Y-121635650D01*
X154766554Y-121633491D01*
X154740643Y-121630447D01*
X154719869Y-121626384D01*
X154701619Y-121621165D01*
X154683281Y-121614653D01*
X154625564Y-121585515D01*
X154564782Y-121538953D01*
X154513500Y-121483126D01*
X154478113Y-121423980D01*
X154475849Y-121417630D01*
X154472897Y-121406359D01*
X154469563Y-121390283D01*
X154465763Y-121368640D01*
X154461412Y-121340667D01*
X154456426Y-121305605D01*
X154450718Y-121262689D01*
X154444206Y-121211160D01*
X154436803Y-121150254D01*
X154428426Y-121079210D01*
X154418989Y-120997267D01*
X154408407Y-120903662D01*
X154396597Y-120797634D01*
X154383472Y-120678421D01*
X154368949Y-120545261D01*
X154352942Y-120397392D01*
X154335367Y-120234053D01*
X154316139Y-120054481D01*
X154295173Y-119857915D01*
X154272385Y-119643594D01*
X154247689Y-119410754D01*
X154221001Y-119158636D01*
X154192236Y-118886475D01*
X154161310Y-118593512D01*
X154128137Y-118278984D01*
X154105957Y-118068553D01*
X154074296Y-117767962D01*
X154044886Y-117488433D01*
X154017652Y-117229205D01*
X153992517Y-116989521D01*
X153969407Y-116768621D01*
X153948245Y-116565745D01*
X153928957Y-116380136D01*
X153911465Y-116211032D01*
X153895694Y-116057677D01*
X153881570Y-115919309D01*
X153869015Y-115795171D01*
X153857955Y-115684502D01*
X153848313Y-115586545D01*
X153840014Y-115500539D01*
X153832982Y-115425726D01*
X153827142Y-115361346D01*
X153822418Y-115306640D01*
X153818734Y-115260850D01*
X153816014Y-115223216D01*
X153814184Y-115192978D01*
X153813166Y-115169379D01*
X153812885Y-115151657D01*
X153813267Y-115139056D01*
X153814234Y-115130814D01*
X153819042Y-115110613D01*
X153849023Y-115041765D01*
X153895902Y-114982974D01*
X153955820Y-114939453D01*
X154011940Y-114910040D01*
X154842519Y-114910040D01*
X154898639Y-114940273D01*
G37*
G36*
X156013372Y-118415405D02*
G01*
X156020844Y-118435509D01*
X156020277Y-118477137D01*
X156019370Y-118481253D01*
X156013992Y-118502212D01*
X156009433Y-118503027D01*
X156002162Y-118485289D01*
X155996231Y-118458441D01*
X155995258Y-118423557D01*
X155998595Y-118389492D01*
X156013372Y-118415405D01*
G37*
G36*
X148422896Y-118192362D02*
G01*
X148450731Y-118456836D01*
X148458050Y-118526539D01*
X148480119Y-118736686D01*
X148502142Y-118946364D01*
X148523942Y-119153890D01*
X148545343Y-119357585D01*
X148566168Y-119555765D01*
X148586240Y-119746751D01*
X148605382Y-119928861D01*
X148623418Y-120100414D01*
X148640171Y-120259728D01*
X148655464Y-120405123D01*
X148669121Y-120534918D01*
X148680964Y-120647430D01*
X148690818Y-120740979D01*
X148698505Y-120813885D01*
X148706411Y-120889743D01*
X148717925Y-121004029D01*
X148727901Y-121107936D01*
X148736168Y-121199477D01*
X148742557Y-121276665D01*
X148746898Y-121337512D01*
X148749022Y-121380032D01*
X148748758Y-121402238D01*
X148748674Y-121402863D01*
X148728362Y-121472557D01*
X148689171Y-121534825D01*
X148634379Y-121585713D01*
X148567263Y-121621265D01*
X148565204Y-121621944D01*
X148555472Y-121624043D01*
X148540436Y-121625941D01*
X148519087Y-121627646D01*
X148490418Y-121629165D01*
X148453419Y-121630506D01*
X148407082Y-121631677D01*
X148350398Y-121632686D01*
X148282360Y-121633541D01*
X148201959Y-121634250D01*
X148108185Y-121634820D01*
X148000032Y-121635259D01*
X147876490Y-121635575D01*
X147736550Y-121635775D01*
X147579205Y-121635869D01*
X147403446Y-121635863D01*
X147208264Y-121635765D01*
X146992651Y-121635584D01*
X146755599Y-121635326D01*
X144987813Y-121633239D01*
X144931693Y-121603491D01*
X144872827Y-121565194D01*
X144809235Y-121504209D01*
X144762015Y-121433993D01*
X144757511Y-121424633D01*
X144747270Y-121397731D01*
X144738421Y-121363803D01*
X144730213Y-121319008D01*
X144721897Y-121259505D01*
X144712723Y-121181452D01*
X144709607Y-121153068D01*
X144700109Y-121059213D01*
X144694095Y-120983764D01*
X144691491Y-120923753D01*
X144692223Y-120876215D01*
X144696218Y-120838181D01*
X144703402Y-120806684D01*
X144713925Y-120780345D01*
X144746613Y-120729503D01*
X144790858Y-120682911D01*
X144840300Y-120647943D01*
X144886797Y-120623076D01*
X147143449Y-120611852D01*
X147199155Y-120583179D01*
X147208872Y-120577909D01*
X147268193Y-120531870D01*
X147312889Y-120471546D01*
X147339312Y-120401660D01*
X147341346Y-120391017D01*
X147343544Y-120372030D01*
X147344436Y-120348150D01*
X147343866Y-120317202D01*
X147341683Y-120277007D01*
X147337732Y-120225391D01*
X147331859Y-120160175D01*
X147323912Y-120079185D01*
X147313736Y-119980243D01*
X147301179Y-119861173D01*
X147288887Y-119745997D01*
X147277357Y-119640784D01*
X147267175Y-119553715D01*
X147257825Y-119482616D01*
X147248793Y-119425314D01*
X147239564Y-119379634D01*
X147229624Y-119343402D01*
X147218457Y-119314445D01*
X147205549Y-119290589D01*
X147190386Y-119269659D01*
X147172452Y-119249483D01*
X147151233Y-119227884D01*
X147129357Y-119208036D01*
X147088109Y-119177066D01*
X147049628Y-119154635D01*
X146996916Y-119130279D01*
X144740884Y-119119055D01*
X144678640Y-119089860D01*
X144667251Y-119084369D01*
X144596212Y-119040637D01*
X144542010Y-118986870D01*
X144500263Y-118918868D01*
X144495631Y-118909129D01*
X144490449Y-118897237D01*
X144485613Y-118884013D01*
X144480945Y-118868058D01*
X144476265Y-118847973D01*
X144471396Y-118822358D01*
X144466157Y-118789813D01*
X144460370Y-118748938D01*
X144453857Y-118698335D01*
X144446438Y-118636602D01*
X144437934Y-118562341D01*
X144428167Y-118474152D01*
X144416958Y-118370635D01*
X144404127Y-118250391D01*
X144389496Y-118112019D01*
X144372887Y-117954121D01*
X144354120Y-117775296D01*
X144348613Y-117722737D01*
X144342911Y-117668063D01*
X145645294Y-117668063D01*
X145647784Y-117723867D01*
X145658648Y-117806981D01*
X145685797Y-117892591D01*
X145729188Y-117963749D01*
X145789744Y-118021895D01*
X145868388Y-118068472D01*
X145930632Y-118097667D01*
X146379594Y-118099640D01*
X146407168Y-118099742D01*
X146505852Y-118099785D01*
X146598177Y-118099343D01*
X146681461Y-118098460D01*
X146753022Y-118097180D01*
X146810181Y-118095549D01*
X146850255Y-118093612D01*
X146870564Y-118091414D01*
X146882941Y-118087898D01*
X146931663Y-118066965D01*
X146979609Y-118037624D01*
X147016129Y-118006115D01*
X147024124Y-117995498D01*
X147042033Y-117965403D01*
X147059729Y-117929477D01*
X147066290Y-117913947D01*
X147075225Y-117886432D01*
X147079664Y-117856949D01*
X147080365Y-117818708D01*
X147078085Y-117764920D01*
X147066161Y-117670026D01*
X147039713Y-117587304D01*
X146997728Y-117518906D01*
X146938977Y-117462848D01*
X146862228Y-117417148D01*
X146794883Y-117384958D01*
X146329086Y-117385059D01*
X146314431Y-117385062D01*
X146202521Y-117385116D01*
X146110536Y-117385295D01*
X146036220Y-117385715D01*
X145977318Y-117386487D01*
X145931574Y-117387727D01*
X145896731Y-117389548D01*
X145870534Y-117392062D01*
X145850727Y-117395384D01*
X145835054Y-117399628D01*
X145821259Y-117404906D01*
X145807086Y-117411332D01*
X145753840Y-117443649D01*
X145699128Y-117499426D01*
X145660993Y-117569263D01*
X145652762Y-117594213D01*
X145646748Y-117627249D01*
X145645294Y-117668063D01*
X144342911Y-117668063D01*
X144332715Y-117570296D01*
X144317560Y-117423943D01*
X144303311Y-117285300D01*
X144290131Y-117155992D01*
X144278180Y-117037643D01*
X144267623Y-116931874D01*
X144258621Y-116840311D01*
X144251337Y-116764577D01*
X144245933Y-116706295D01*
X144242571Y-116667089D01*
X144241414Y-116648582D01*
X144241596Y-116637609D01*
X144254512Y-116558816D01*
X144286782Y-116489763D01*
X144336945Y-116432780D01*
X144403539Y-116390196D01*
X144460283Y-116363772D01*
X146222457Y-116363672D01*
X147984631Y-116363571D01*
X148051976Y-116395593D01*
X148107246Y-116428630D01*
X148164092Y-116477108D01*
X148210599Y-116532308D01*
X148240997Y-116588350D01*
X148244136Y-116601547D01*
X148249168Y-116632140D01*
X148255830Y-116679814D01*
X148264170Y-116745006D01*
X148274238Y-116828155D01*
X148286084Y-116929698D01*
X148299756Y-117050075D01*
X148315303Y-117189723D01*
X148332776Y-117349079D01*
X148352222Y-117528584D01*
X148373691Y-117728673D01*
X148383277Y-117818708D01*
X148397233Y-117949786D01*
X148422896Y-118192362D01*
G37*
G36*
X160381258Y-120670321D02*
G01*
X160396215Y-120816399D01*
X160409499Y-120946811D01*
X160421011Y-121060605D01*
X160430654Y-121156830D01*
X160438329Y-121234536D01*
X160443939Y-121292772D01*
X160447385Y-121330585D01*
X160448569Y-121347026D01*
X160448174Y-121371568D01*
X160440265Y-121434903D01*
X160420383Y-121487296D01*
X160386113Y-121536057D01*
X160375822Y-121547592D01*
X160316669Y-121597054D01*
X160246967Y-121628364D01*
X160246775Y-121628414D01*
X160231375Y-121629411D01*
X160194860Y-121630387D01*
X160138497Y-121631336D01*
X160063555Y-121632249D01*
X159971303Y-121633121D01*
X159863010Y-121633944D01*
X159739944Y-121634710D01*
X159603374Y-121635412D01*
X159454570Y-121636044D01*
X159294799Y-121636597D01*
X159125330Y-121637066D01*
X158947432Y-121637442D01*
X158762375Y-121637718D01*
X158571426Y-121637887D01*
X158487110Y-121637935D01*
X158270282Y-121638049D01*
X158074389Y-121638122D01*
X157898318Y-121638141D01*
X157740962Y-121638092D01*
X157601208Y-121637963D01*
X157477948Y-121637740D01*
X157370070Y-121637408D01*
X157276465Y-121636956D01*
X157196022Y-121636369D01*
X157127632Y-121635634D01*
X157070183Y-121634737D01*
X157022567Y-121633665D01*
X156983672Y-121632405D01*
X156952388Y-121630943D01*
X156927605Y-121629266D01*
X156908214Y-121627360D01*
X156893103Y-121625211D01*
X156881163Y-121622807D01*
X156871283Y-121620134D01*
X156862353Y-121617178D01*
X156845736Y-121610839D01*
X156773327Y-121570868D01*
X156710968Y-121516396D01*
X156662768Y-121451654D01*
X156632834Y-121380871D01*
X156630194Y-121366442D01*
X156625134Y-121329964D01*
X156618266Y-121274655D01*
X156609790Y-121202453D01*
X156599904Y-121115298D01*
X156588809Y-121015128D01*
X156576703Y-120903881D01*
X156563786Y-120783495D01*
X156550258Y-120655910D01*
X156536317Y-120523063D01*
X156522165Y-120386893D01*
X156507999Y-120249339D01*
X156494019Y-120112338D01*
X156480426Y-119977830D01*
X156467417Y-119847754D01*
X156455194Y-119724046D01*
X156443954Y-119608647D01*
X156433899Y-119503494D01*
X156425226Y-119410525D01*
X156418137Y-119331681D01*
X156412829Y-119268897D01*
X156409503Y-119224115D01*
X156408357Y-119199271D01*
X156409215Y-119145649D01*
X156412915Y-119087943D01*
X156417970Y-119050919D01*
X157624337Y-119050919D01*
X157626235Y-119091048D01*
X157630346Y-119148805D01*
X157636402Y-119221689D01*
X157644135Y-119307203D01*
X157653275Y-119402849D01*
X157663554Y-119506126D01*
X157674703Y-119614538D01*
X157686455Y-119725585D01*
X157698539Y-119836768D01*
X157710688Y-119945589D01*
X157722632Y-120049549D01*
X157734104Y-120146150D01*
X157744835Y-120232893D01*
X157754556Y-120307280D01*
X157762998Y-120366811D01*
X157769893Y-120408988D01*
X157774972Y-120431313D01*
X157797574Y-120478089D01*
X157840008Y-120535775D01*
X157892964Y-120587498D01*
X157950370Y-120626503D01*
X158007698Y-120656748D01*
X158451048Y-120658655D01*
X158496306Y-120658817D01*
X158621639Y-120658849D01*
X158725263Y-120658159D01*
X158807729Y-120656734D01*
X158869587Y-120654563D01*
X158911388Y-120651633D01*
X158933681Y-120647933D01*
X158933766Y-120647905D01*
X158970877Y-120628426D01*
X159012091Y-120595406D01*
X159051470Y-120554945D01*
X159083076Y-120513143D01*
X159100971Y-120476097D01*
X159101845Y-120472918D01*
X159105591Y-120457767D01*
X159108453Y-120441676D01*
X159110304Y-120422863D01*
X159111020Y-120399547D01*
X159110473Y-120369945D01*
X159108537Y-120332276D01*
X159105086Y-120284759D01*
X159099994Y-120225612D01*
X159093134Y-120153054D01*
X159084381Y-120065302D01*
X159073608Y-119960576D01*
X159060688Y-119837093D01*
X159045497Y-119693072D01*
X159041383Y-119654191D01*
X159027243Y-119521444D01*
X159015034Y-119408726D01*
X159004510Y-119314212D01*
X158995426Y-119236080D01*
X158987537Y-119172507D01*
X158980597Y-119121670D01*
X158974361Y-119081744D01*
X158968584Y-119050908D01*
X158963020Y-119027337D01*
X158957425Y-119009209D01*
X158951554Y-118994700D01*
X158912742Y-118930365D01*
X158851245Y-118868744D01*
X158772125Y-118820387D01*
X158703589Y-118787963D01*
X158271463Y-118788201D01*
X158252301Y-118788212D01*
X158145329Y-118788344D01*
X158058083Y-118788660D01*
X157988218Y-118789273D01*
X157933388Y-118790295D01*
X157891250Y-118791838D01*
X157859456Y-118794015D01*
X157835663Y-118796937D01*
X157817524Y-118800718D01*
X157802695Y-118805469D01*
X157788829Y-118811302D01*
X157737949Y-118840183D01*
X157681824Y-118892431D01*
X157643605Y-118957250D01*
X157624629Y-119032836D01*
X157624337Y-119050919D01*
X156417970Y-119050919D01*
X156420487Y-119032489D01*
X156432944Y-118974718D01*
X156451297Y-118910060D01*
X156476560Y-118833948D01*
X156509745Y-118741812D01*
X156531317Y-118682687D01*
X156555769Y-118612107D01*
X156572785Y-118555440D01*
X156582939Y-118508604D01*
X156586802Y-118467520D01*
X156584946Y-118428107D01*
X156577943Y-118386285D01*
X156566365Y-118337973D01*
X156560019Y-118314105D01*
X156545261Y-118265435D01*
X156528250Y-118221255D01*
X156506342Y-118175838D01*
X156476892Y-118123456D01*
X156437254Y-118058383D01*
X156357082Y-117913869D01*
X156285314Y-117744618D01*
X156234305Y-117571597D01*
X156231159Y-117554807D01*
X156225143Y-117514106D01*
X156217448Y-117455187D01*
X156208270Y-117379980D01*
X156197807Y-117290416D01*
X156186257Y-117188424D01*
X156173817Y-117075934D01*
X156160683Y-116954876D01*
X156147054Y-116827181D01*
X156133126Y-116694778D01*
X156119097Y-116559597D01*
X156108690Y-116457990D01*
X157351202Y-116457990D01*
X157351218Y-116461054D01*
X157352732Y-116496618D01*
X157356488Y-116550020D01*
X157362179Y-116618388D01*
X157369496Y-116698852D01*
X157378133Y-116788541D01*
X157387782Y-116884584D01*
X157398136Y-116984111D01*
X157408886Y-117084251D01*
X157419725Y-117182133D01*
X157430345Y-117274887D01*
X157440440Y-117359641D01*
X157449701Y-117433525D01*
X157457821Y-117493668D01*
X157464492Y-117537200D01*
X157469407Y-117561250D01*
X157476551Y-117582433D01*
X157515198Y-117654168D01*
X157572017Y-117716824D01*
X157644038Y-117766902D01*
X157715873Y-117805842D01*
X158153611Y-117808801D01*
X158591348Y-117811760D01*
X158647468Y-117784922D01*
X158672038Y-117772146D01*
X158734651Y-117725944D01*
X158778210Y-117668465D01*
X158803393Y-117598588D01*
X158810877Y-117515194D01*
X158810174Y-117498539D01*
X158807236Y-117457086D01*
X158802258Y-117397875D01*
X158795498Y-117323619D01*
X158787210Y-117237028D01*
X158777650Y-117140815D01*
X158767073Y-117037691D01*
X158755736Y-116930367D01*
X158748073Y-116859049D01*
X158736250Y-116750281D01*
X158726223Y-116660491D01*
X158717674Y-116587544D01*
X158710288Y-116529305D01*
X158703749Y-116483639D01*
X158697741Y-116448410D01*
X158691947Y-116421484D01*
X158686053Y-116400724D01*
X158679741Y-116383996D01*
X158672697Y-116369165D01*
X158635319Y-116310972D01*
X158571261Y-116247614D01*
X158490332Y-116198585D01*
X158422988Y-116167133D01*
X157996474Y-116167133D01*
X157935291Y-116167138D01*
X157837230Y-116167230D01*
X157757955Y-116167534D01*
X157695082Y-116168179D01*
X157646226Y-116169292D01*
X157609005Y-116171000D01*
X157581034Y-116173432D01*
X157559930Y-116176713D01*
X157543309Y-116180973D01*
X157528787Y-116186337D01*
X157513980Y-116192935D01*
X157489577Y-116204866D01*
X157441774Y-116235624D01*
X157406771Y-116273242D01*
X157377776Y-116324269D01*
X157366188Y-116352124D01*
X157354625Y-116399818D01*
X157351202Y-116457990D01*
X156108690Y-116457990D01*
X156105165Y-116423569D01*
X156091526Y-116288623D01*
X156078377Y-116156689D01*
X156065917Y-116029697D01*
X156054342Y-115909578D01*
X156043850Y-115798261D01*
X156034638Y-115697677D01*
X156026904Y-115609755D01*
X156020844Y-115536425D01*
X156016656Y-115479618D01*
X156014537Y-115441264D01*
X156014685Y-115423291D01*
X156018280Y-115407428D01*
X156045767Y-115341064D01*
X156089332Y-115281422D01*
X156143922Y-115235834D01*
X156198864Y-115201865D01*
X157874223Y-115198951D01*
X157875344Y-115198949D01*
X158101752Y-115198558D01*
X158306817Y-115198222D01*
X158491639Y-115197953D01*
X158657318Y-115197763D01*
X158804954Y-115197665D01*
X158935648Y-115197672D01*
X159050498Y-115197796D01*
X159150605Y-115198050D01*
X159237069Y-115198447D01*
X159310990Y-115199000D01*
X159373468Y-115199721D01*
X159425603Y-115200623D01*
X159468495Y-115201718D01*
X159503243Y-115203019D01*
X159530948Y-115204539D01*
X159552710Y-115206291D01*
X159569629Y-115208287D01*
X159582804Y-115210540D01*
X159593336Y-115213063D01*
X159602325Y-115215867D01*
X159610870Y-115218967D01*
X159627509Y-115225754D01*
X159698766Y-115268091D01*
X159759711Y-115325825D01*
X159804551Y-115393727D01*
X159805520Y-115395730D01*
X159808667Y-115402744D01*
X159811762Y-115410905D01*
X159814895Y-115421030D01*
X159818160Y-115433931D01*
X159821648Y-115450425D01*
X159825452Y-115471324D01*
X159829664Y-115497443D01*
X159834376Y-115529598D01*
X159839681Y-115568603D01*
X159845670Y-115615271D01*
X159852436Y-115670418D01*
X159860071Y-115734858D01*
X159868668Y-115809406D01*
X159878318Y-115894876D01*
X159889114Y-115992083D01*
X159901148Y-116101841D01*
X159914512Y-116224964D01*
X159929299Y-116362268D01*
X159945600Y-116514567D01*
X159963509Y-116682674D01*
X159983116Y-116867406D01*
X160004515Y-117069575D01*
X160027797Y-117289997D01*
X160051549Y-117515194D01*
X160053056Y-117529487D01*
X160080382Y-117788858D01*
X160109868Y-118068926D01*
X160141607Y-118370504D01*
X160161231Y-118557110D01*
X160187528Y-118807546D01*
X160213131Y-119051827D01*
X160237944Y-119288999D01*
X160261868Y-119518114D01*
X160284806Y-119738219D01*
X160306658Y-119948364D01*
X160327328Y-120147598D01*
X160346716Y-120334970D01*
X160353379Y-120399547D01*
X160364726Y-120509527D01*
X160381258Y-120670321D01*
G37*
G36*
X152403679Y-116251327D02*
G01*
X152495751Y-116251489D01*
X152569410Y-116251948D01*
X152627290Y-116252847D01*
X152672023Y-116254330D01*
X152706242Y-116256539D01*
X152732579Y-116259619D01*
X152753666Y-116263712D01*
X152772136Y-116268961D01*
X152790621Y-116275511D01*
X152848666Y-116304865D01*
X152909295Y-116351379D01*
X152960441Y-116407068D01*
X152995704Y-116465987D01*
X152996361Y-116467593D01*
X152999385Y-116476998D01*
X153002726Y-116490906D01*
X153006479Y-116510164D01*
X153010740Y-116535622D01*
X153015604Y-116568129D01*
X153021167Y-116608533D01*
X153027523Y-116657684D01*
X153034769Y-116716430D01*
X153042999Y-116785620D01*
X153052310Y-116866103D01*
X153062796Y-116958727D01*
X153074554Y-117064343D01*
X153087678Y-117183797D01*
X153102264Y-117317940D01*
X153118408Y-117467620D01*
X153136204Y-117633686D01*
X153155749Y-117816987D01*
X153177137Y-118018371D01*
X153200464Y-118238688D01*
X153225826Y-118478786D01*
X153253318Y-118739514D01*
X153283036Y-119021721D01*
X153292106Y-119107915D01*
X153316605Y-119340901D01*
X153340437Y-119567783D01*
X153363497Y-119787548D01*
X153385678Y-119999180D01*
X153406875Y-120201668D01*
X153426984Y-120393996D01*
X153445898Y-120575151D01*
X153463511Y-120744119D01*
X153479719Y-120899887D01*
X153494415Y-121041441D01*
X153507495Y-121167767D01*
X153518852Y-121277851D01*
X153528382Y-121370680D01*
X153535978Y-121445239D01*
X153541536Y-121500516D01*
X153544949Y-121535496D01*
X153546112Y-121549165D01*
X153540624Y-121572311D01*
X153521300Y-121591559D01*
X153485263Y-121607565D01*
X153429646Y-121622124D01*
X153429531Y-121622149D01*
X153416394Y-121624183D01*
X153396064Y-121626038D01*
X153367587Y-121627722D01*
X153330009Y-121629244D01*
X153282377Y-121630612D01*
X153223737Y-121631834D01*
X153153137Y-121632917D01*
X153069623Y-121633871D01*
X152972241Y-121634703D01*
X152860039Y-121635422D01*
X152732062Y-121636035D01*
X152587358Y-121636551D01*
X152424972Y-121636978D01*
X152243952Y-121637324D01*
X152043344Y-121637598D01*
X151822195Y-121637807D01*
X151579551Y-121637959D01*
X151416959Y-121638039D01*
X151197824Y-121638137D01*
X150999343Y-121638200D01*
X150820451Y-121638216D01*
X150660084Y-121638172D01*
X150517178Y-121638054D01*
X150390667Y-121637851D01*
X150279487Y-121637549D01*
X150182574Y-121637135D01*
X150098863Y-121636598D01*
X150027288Y-121635923D01*
X149966787Y-121635099D01*
X149916293Y-121634112D01*
X149874742Y-121632950D01*
X149841071Y-121631599D01*
X149814213Y-121630048D01*
X149793105Y-121628282D01*
X149776682Y-121626290D01*
X149763879Y-121624059D01*
X149753632Y-121621575D01*
X149744875Y-121618827D01*
X149736545Y-121615800D01*
X149694076Y-121595876D01*
X149629588Y-121550608D01*
X149574043Y-121493779D01*
X149534189Y-121431532D01*
X149531590Y-121425686D01*
X149528258Y-121416779D01*
X149524878Y-121405543D01*
X149521346Y-121391068D01*
X149517557Y-121372446D01*
X149513408Y-121348767D01*
X149508795Y-121319123D01*
X149503613Y-121282605D01*
X149497760Y-121238303D01*
X149491131Y-121185309D01*
X149483622Y-121122714D01*
X149475129Y-121049608D01*
X149465548Y-120965084D01*
X149454776Y-120868232D01*
X149442707Y-120758143D01*
X149429240Y-120633908D01*
X149414269Y-120494618D01*
X149397690Y-120339364D01*
X149379401Y-120167238D01*
X149359295Y-119977330D01*
X149337271Y-119768732D01*
X149313224Y-119540534D01*
X149287049Y-119291828D01*
X149258644Y-119021704D01*
X149239010Y-118834788D01*
X149215566Y-118611192D01*
X149192845Y-118394036D01*
X149170954Y-118184378D01*
X149150004Y-117983278D01*
X149130104Y-117791794D01*
X149111361Y-117610985D01*
X149093887Y-117441910D01*
X149077788Y-117285629D01*
X149063175Y-117143199D01*
X149050156Y-117015681D01*
X149038841Y-116904133D01*
X149029339Y-116809614D01*
X149021759Y-116733183D01*
X149016209Y-116675899D01*
X149012798Y-116638821D01*
X149011637Y-116623008D01*
X149011772Y-116613853D01*
X149024586Y-116536165D01*
X149057038Y-116467390D01*
X149107352Y-116410319D01*
X149173755Y-116367748D01*
X149177279Y-116366111D01*
X149192385Y-116359450D01*
X149207533Y-116354104D01*
X149225212Y-116349926D01*
X149247910Y-116346772D01*
X149278119Y-116344496D01*
X149318328Y-116342955D01*
X149371026Y-116342002D01*
X149438703Y-116341492D01*
X149523849Y-116341281D01*
X149628953Y-116341224D01*
X150027406Y-116341123D01*
X150095701Y-116373432D01*
X150165617Y-116415224D01*
X150229475Y-116475793D01*
X150275366Y-116548750D01*
X150275814Y-116549737D01*
X150279318Y-116558790D01*
X150282923Y-116570975D01*
X150286746Y-116587301D01*
X150290905Y-116608778D01*
X150295517Y-116636417D01*
X150300697Y-116671228D01*
X150306563Y-116714222D01*
X150313233Y-116766409D01*
X150320821Y-116828799D01*
X150329447Y-116902403D01*
X150339225Y-116988231D01*
X150350274Y-117087294D01*
X150362710Y-117200601D01*
X150376650Y-117329163D01*
X150392210Y-117473991D01*
X150409508Y-117636095D01*
X150428660Y-117816485D01*
X150449784Y-118016172D01*
X150472995Y-118236165D01*
X150498412Y-118477476D01*
X150501406Y-118505926D01*
X150526435Y-118743583D01*
X150549264Y-118960054D01*
X150570012Y-119156363D01*
X150588799Y-119333537D01*
X150605744Y-119492598D01*
X150620968Y-119634572D01*
X150634589Y-119760482D01*
X150646728Y-119871354D01*
X150657503Y-119968212D01*
X150667035Y-120052079D01*
X150675443Y-120123981D01*
X150682846Y-120184943D01*
X150689364Y-120235987D01*
X150695117Y-120278140D01*
X150700224Y-120312425D01*
X150704805Y-120339866D01*
X150708980Y-120361489D01*
X150712867Y-120378318D01*
X150716587Y-120391377D01*
X150720259Y-120401690D01*
X150724002Y-120410282D01*
X150746829Y-120449680D01*
X150797570Y-120509418D01*
X150860005Y-120559815D01*
X150927519Y-120594871D01*
X150939764Y-120599308D01*
X150955834Y-120604286D01*
X150973721Y-120608275D01*
X150995718Y-120611363D01*
X151024117Y-120613638D01*
X151061210Y-120615188D01*
X151109289Y-120616099D01*
X151170647Y-120616460D01*
X151247575Y-120616358D01*
X151342366Y-120615881D01*
X151457312Y-120615116D01*
X151484530Y-120614924D01*
X151595372Y-120614055D01*
X151686420Y-120613124D01*
X151759854Y-120612026D01*
X151817850Y-120610657D01*
X151862585Y-120608913D01*
X151896236Y-120606690D01*
X151920982Y-120603884D01*
X151938998Y-120600391D01*
X151952463Y-120596107D01*
X151963553Y-120590928D01*
X152005470Y-120564504D01*
X152061534Y-120509780D01*
X152098974Y-120443231D01*
X152116808Y-120366297D01*
X152116889Y-120364734D01*
X152115971Y-120342745D01*
X152112731Y-120299456D01*
X152107257Y-120235733D01*
X152099634Y-120152446D01*
X152089948Y-120050460D01*
X152078288Y-119930645D01*
X152064738Y-119793868D01*
X152049386Y-119640996D01*
X152032317Y-119472899D01*
X152013619Y-119290443D01*
X151993378Y-119094496D01*
X151971680Y-118885926D01*
X151948612Y-118665601D01*
X151924261Y-118434388D01*
X151906271Y-118263741D01*
X151881255Y-118025297D01*
X151857947Y-117801709D01*
X151836408Y-117593600D01*
X151816700Y-117401590D01*
X151798885Y-117226301D01*
X151783024Y-117068354D01*
X151769180Y-116928372D01*
X151757415Y-116806974D01*
X151747789Y-116704784D01*
X151740366Y-116622421D01*
X151735206Y-116560509D01*
X151732372Y-116519667D01*
X151731925Y-116500518D01*
X151733380Y-116488566D01*
X151752419Y-116422035D01*
X151786936Y-116361107D01*
X151832692Y-116313646D01*
X151836086Y-116311068D01*
X151857706Y-116295596D01*
X151879154Y-116283047D01*
X151902944Y-116273118D01*
X151931590Y-116265503D01*
X151967604Y-116259896D01*
X152013500Y-116255992D01*
X152071790Y-116253487D01*
X152144988Y-116252076D01*
X152235607Y-116251453D01*
X152346161Y-116251313D01*
X152403679Y-116251327D01*
G37*
G36*
X136090678Y-115198043D02*
G01*
X136279234Y-115198240D01*
X136488156Y-115198533D01*
X136718486Y-115198916D01*
X138399302Y-115201865D01*
X138447510Y-115227605D01*
X138460896Y-115235103D01*
X138527375Y-115283691D01*
X138582799Y-115343307D01*
X138623439Y-115409259D01*
X138645568Y-115476854D01*
X138646245Y-115481802D01*
X138649296Y-115507930D01*
X138654486Y-115554620D01*
X138661698Y-115620744D01*
X138670813Y-115705173D01*
X138681712Y-115806778D01*
X138694278Y-115924432D01*
X138708392Y-116057005D01*
X138723936Y-116203369D01*
X138740790Y-116362395D01*
X138758838Y-116532955D01*
X138777960Y-116713920D01*
X138798039Y-116904162D01*
X138818955Y-117102551D01*
X138840591Y-117307960D01*
X138862828Y-117519259D01*
X138885548Y-117735321D01*
X138908632Y-117955016D01*
X138931963Y-118177217D01*
X138955421Y-118400793D01*
X138978889Y-118624618D01*
X139002247Y-118847561D01*
X139025379Y-119068496D01*
X139048165Y-119286292D01*
X139070486Y-119499822D01*
X139092226Y-119707957D01*
X139113265Y-119909568D01*
X139133484Y-120103526D01*
X139152767Y-120288704D01*
X139170993Y-120463973D01*
X139188046Y-120628203D01*
X139203806Y-120780267D01*
X139218155Y-120919035D01*
X139230975Y-121043380D01*
X139242148Y-121152172D01*
X139251555Y-121244283D01*
X139259077Y-121318585D01*
X139264597Y-121373948D01*
X139267996Y-121409245D01*
X139269156Y-121423346D01*
X139266809Y-121447400D01*
X139247066Y-121499043D01*
X139210140Y-121547284D01*
X139159536Y-121588127D01*
X139098755Y-121617581D01*
X139097193Y-121618116D01*
X139088221Y-121620869D01*
X139077679Y-121623356D01*
X139064467Y-121625588D01*
X139047487Y-121627578D01*
X139025640Y-121629335D01*
X138997826Y-121630873D01*
X138962949Y-121632202D01*
X138919907Y-121633335D01*
X138867604Y-121634281D01*
X138804939Y-121635054D01*
X138730814Y-121635665D01*
X138644130Y-121636124D01*
X138543789Y-121636445D01*
X138428692Y-121636637D01*
X138297739Y-121636714D01*
X138149833Y-121636685D01*
X137983874Y-121636564D01*
X137798763Y-121636360D01*
X137593401Y-121636087D01*
X137366691Y-121635755D01*
X135694309Y-121633239D01*
X135623218Y-121594696D01*
X135552712Y-121546416D01*
X135493709Y-121482087D01*
X135453380Y-121406576D01*
X135444726Y-121374892D01*
X135435358Y-121324712D01*
X135426103Y-121261833D01*
X135417467Y-121191214D01*
X135409957Y-121117813D01*
X135404076Y-121046590D01*
X135400332Y-120982502D01*
X135399229Y-120930508D01*
X135401273Y-120895567D01*
X135407301Y-120868021D01*
X135436400Y-120802786D01*
X135482782Y-120745655D01*
X135542784Y-120701644D01*
X135604517Y-120667972D01*
X136665188Y-120662360D01*
X136715442Y-120662097D01*
X136891525Y-120661200D01*
X137046906Y-120660388D01*
X137182963Y-120659566D01*
X137301076Y-120658642D01*
X137402624Y-120657524D01*
X137488987Y-120656116D01*
X137561543Y-120654328D01*
X137621673Y-120652064D01*
X137670755Y-120649233D01*
X137710169Y-120645741D01*
X137741294Y-120641495D01*
X137765509Y-120636402D01*
X137784194Y-120630369D01*
X137798728Y-120623302D01*
X137810490Y-120615109D01*
X137820859Y-120605696D01*
X137831216Y-120594970D01*
X137842939Y-120582838D01*
X137883464Y-120532282D01*
X137912398Y-120465127D01*
X137922043Y-120387371D01*
X137921567Y-120375540D01*
X137918939Y-120340062D01*
X137914144Y-120284871D01*
X137907331Y-120211369D01*
X137898648Y-120120957D01*
X137888243Y-120015038D01*
X137876267Y-119895011D01*
X137862866Y-119762280D01*
X137848190Y-119618244D01*
X137832387Y-119464306D01*
X137815605Y-119301867D01*
X137797994Y-119132329D01*
X137779702Y-118957092D01*
X137760877Y-118777559D01*
X137741668Y-118595131D01*
X137722223Y-118411209D01*
X137702692Y-118227195D01*
X137683222Y-118044490D01*
X137663962Y-117864496D01*
X137645061Y-117688614D01*
X137626667Y-117518245D01*
X137608929Y-117354791D01*
X137591995Y-117199654D01*
X137576015Y-117054235D01*
X137561136Y-116919935D01*
X137547507Y-116798156D01*
X137535276Y-116690299D01*
X137524593Y-116597766D01*
X137515606Y-116521958D01*
X137508463Y-116464277D01*
X137503313Y-116426124D01*
X137500304Y-116408900D01*
X137494902Y-116392484D01*
X137478012Y-116356387D01*
X137452282Y-116320842D01*
X137413077Y-116278941D01*
X137398796Y-116264307D01*
X137383243Y-116247904D01*
X137368927Y-116233461D01*
X137354455Y-116220847D01*
X137338434Y-116209931D01*
X137319471Y-116200582D01*
X137296173Y-116192667D01*
X137267146Y-116186055D01*
X137230998Y-116180615D01*
X137186335Y-116176216D01*
X137131764Y-116172725D01*
X137065892Y-116170011D01*
X136987325Y-116167943D01*
X136894672Y-116166389D01*
X136786537Y-116165218D01*
X136661529Y-116164299D01*
X136518254Y-116163499D01*
X136355319Y-116162687D01*
X136171330Y-116161732D01*
X136098104Y-116161327D01*
X135927491Y-116160344D01*
X135777406Y-116159402D01*
X135646471Y-116158468D01*
X135533308Y-116157511D01*
X135436541Y-116156499D01*
X135354791Y-116155401D01*
X135286681Y-116154185D01*
X135230834Y-116152819D01*
X135185873Y-116151272D01*
X135150420Y-116149513D01*
X135123097Y-116147509D01*
X135102528Y-116145230D01*
X135087334Y-116142643D01*
X135076139Y-116139717D01*
X135067565Y-116136420D01*
X135029494Y-116115811D01*
X134964857Y-116064046D01*
X134911730Y-115999315D01*
X134875567Y-115927554D01*
X134869948Y-115907075D01*
X134861362Y-115862586D01*
X134852503Y-115804327D01*
X134843952Y-115737347D01*
X134836290Y-115666696D01*
X134830097Y-115597425D01*
X134825955Y-115534584D01*
X134824446Y-115483224D01*
X134825630Y-115451985D01*
X134841559Y-115372565D01*
X134875853Y-115305862D01*
X134928230Y-115252317D01*
X134998406Y-115212371D01*
X134998794Y-115212213D01*
X135006713Y-115209984D01*
X135019390Y-115207974D01*
X135037867Y-115206175D01*
X135063183Y-115204578D01*
X135096380Y-115203176D01*
X135138497Y-115201959D01*
X135190576Y-115200920D01*
X135253656Y-115200052D01*
X135328779Y-115199345D01*
X135416985Y-115198791D01*
X135519314Y-115198383D01*
X135636808Y-115198113D01*
X135770506Y-115197971D01*
X135921449Y-115197950D01*
X136090678Y-115198043D01*
G37*
G36*
X128697218Y-115185200D02*
G01*
X128777157Y-115185540D01*
X128840188Y-115186301D01*
X128889009Y-115187629D01*
X128926320Y-115189670D01*
X128954818Y-115192567D01*
X128977203Y-115196466D01*
X128996174Y-115201513D01*
X129014430Y-115207851D01*
X129020259Y-115210102D01*
X129093069Y-115250232D01*
X129156852Y-115307279D01*
X129205976Y-115376288D01*
X129238053Y-115435224D01*
X129545216Y-118349035D01*
X129564486Y-118531955D01*
X129590860Y-118782742D01*
X129616549Y-119027498D01*
X129641455Y-119265265D01*
X129665478Y-119495086D01*
X129688520Y-119716000D01*
X129710481Y-119927051D01*
X129731263Y-120127280D01*
X129750768Y-120315727D01*
X129768896Y-120491436D01*
X129785548Y-120653447D01*
X129800626Y-120800802D01*
X129814030Y-120932542D01*
X129825663Y-121047710D01*
X129835425Y-121145347D01*
X129843217Y-121224494D01*
X129848940Y-121284193D01*
X129852496Y-121323486D01*
X129853787Y-121341414D01*
X129853422Y-121368743D01*
X129840390Y-121448057D01*
X129808969Y-121514632D01*
X129758781Y-121569091D01*
X129689448Y-121612056D01*
X129679469Y-121616713D01*
X129664007Y-121623153D01*
X129647478Y-121628190D01*
X129627208Y-121631999D01*
X129600526Y-121634752D01*
X129564759Y-121636623D01*
X129517234Y-121637784D01*
X129455278Y-121638409D01*
X129376220Y-121638671D01*
X129277386Y-121638742D01*
X129258308Y-121638746D01*
X129162506Y-121638671D01*
X129085917Y-121638314D01*
X129025791Y-121637515D01*
X128979379Y-121636119D01*
X128943930Y-121633967D01*
X128916695Y-121630902D01*
X128894922Y-121626766D01*
X128875863Y-121621402D01*
X128856768Y-121614653D01*
X128818265Y-121597372D01*
X128747953Y-121548903D01*
X128689972Y-121485511D01*
X128647638Y-121411255D01*
X128624266Y-121330190D01*
X128624223Y-121329907D01*
X128621767Y-121310139D01*
X128617148Y-121269452D01*
X128610488Y-121208982D01*
X128601903Y-121129868D01*
X128591513Y-121033248D01*
X128579437Y-120920260D01*
X128565792Y-120792043D01*
X128550699Y-120649733D01*
X128534275Y-120494470D01*
X128516639Y-120327390D01*
X128497911Y-120149633D01*
X128478208Y-119962336D01*
X128457650Y-119766637D01*
X128436354Y-119563675D01*
X128414441Y-119354586D01*
X128392028Y-119140510D01*
X128369234Y-118922585D01*
X128346178Y-118701947D01*
X128322979Y-118479736D01*
X128299756Y-118257089D01*
X128276626Y-118035145D01*
X128253709Y-117815041D01*
X128231123Y-117597915D01*
X128208988Y-117384906D01*
X128187422Y-117177152D01*
X128166543Y-116975789D01*
X128146470Y-116781958D01*
X128127323Y-116596795D01*
X128109219Y-116421438D01*
X128092278Y-116257026D01*
X128076618Y-116104697D01*
X128062357Y-115965588D01*
X128049615Y-115840838D01*
X128038511Y-115731584D01*
X128029162Y-115638965D01*
X128021688Y-115564119D01*
X128016207Y-115508184D01*
X128012839Y-115472297D01*
X128011701Y-115457597D01*
X128011869Y-115449415D01*
X128025233Y-115376322D01*
X128058289Y-115310015D01*
X128108718Y-115253998D01*
X128174203Y-115211779D01*
X128185368Y-115206594D01*
X128200713Y-115200321D01*
X128217341Y-115195414D01*
X128237897Y-115191704D01*
X128265026Y-115189023D01*
X128301375Y-115187201D01*
X128349588Y-115186071D01*
X128412313Y-115185463D01*
X128492194Y-115185208D01*
X128591877Y-115185139D01*
X128597670Y-115185137D01*
X128697218Y-115185200D01*
G37*
G36*
X159178245Y-111457682D02*
G01*
X159304747Y-111484370D01*
X159425459Y-111528531D01*
X159535986Y-111589423D01*
X159549084Y-111600326D01*
X159578290Y-111627263D01*
X159622560Y-111669444D01*
X159681515Y-111726493D01*
X159754774Y-111798033D01*
X159841958Y-111883686D01*
X159942687Y-111983078D01*
X160056581Y-112095831D01*
X160183261Y-112221568D01*
X160322346Y-112359913D01*
X160473458Y-112510490D01*
X160636215Y-112672922D01*
X160810238Y-112846833D01*
X160995148Y-113031845D01*
X161190564Y-113227582D01*
X161396107Y-113433668D01*
X161570683Y-113608787D01*
X161770175Y-113808899D01*
X161977082Y-114016447D01*
X162189741Y-114229765D01*
X162406492Y-114447186D01*
X162625672Y-114667043D01*
X162845620Y-114887670D01*
X163064674Y-115107400D01*
X163281172Y-115324566D01*
X163493454Y-115537501D01*
X163699857Y-115744539D01*
X163898720Y-115944013D01*
X164088381Y-116134255D01*
X164267178Y-116313600D01*
X164433451Y-116480381D01*
X164585536Y-116632930D01*
X164637066Y-116684628D01*
X164783928Y-116832091D01*
X164926588Y-116975514D01*
X165064212Y-117114050D01*
X165195968Y-117246855D01*
X165321022Y-117373083D01*
X165438540Y-117491888D01*
X165547689Y-117602426D01*
X165647635Y-117703850D01*
X165737546Y-117795316D01*
X165816587Y-117875977D01*
X165883926Y-117944989D01*
X165938729Y-118001506D01*
X165980162Y-118044683D01*
X166007392Y-118073674D01*
X166019586Y-118087633D01*
X166041896Y-118120491D01*
X166105113Y-118236886D01*
X166150222Y-118360656D01*
X166176408Y-118488235D01*
X166182856Y-118616059D01*
X166168753Y-118740563D01*
X166147938Y-118823932D01*
X166107153Y-118931689D01*
X166050558Y-119034113D01*
X165976140Y-119134690D01*
X165881882Y-119236907D01*
X165846853Y-119271678D01*
X165787670Y-119330315D01*
X165715375Y-119401845D01*
X165630628Y-119485617D01*
X165534092Y-119580979D01*
X165426428Y-119687281D01*
X165308296Y-119803872D01*
X165180359Y-119930099D01*
X165043277Y-120065313D01*
X164897713Y-120208862D01*
X164744327Y-120360094D01*
X164583782Y-120518360D01*
X164416737Y-120683006D01*
X164243855Y-120853383D01*
X164065797Y-121028839D01*
X163883224Y-121208723D01*
X163696798Y-121392384D01*
X163507180Y-121579171D01*
X163315031Y-121768432D01*
X163121013Y-121959516D01*
X162925788Y-122151773D01*
X162730016Y-122344551D01*
X162534358Y-122537198D01*
X162339477Y-122729065D01*
X162146034Y-122919499D01*
X161954690Y-123107849D01*
X161766106Y-123293465D01*
X161580944Y-123475694D01*
X161399864Y-123653887D01*
X161223530Y-123827392D01*
X161052601Y-123995557D01*
X160887739Y-124157732D01*
X160729606Y-124313265D01*
X160578863Y-124461505D01*
X160436171Y-124601801D01*
X160302191Y-124733502D01*
X160177586Y-124855957D01*
X160063016Y-124968514D01*
X159959143Y-125070523D01*
X159866628Y-125161332D01*
X159786132Y-125240290D01*
X159718317Y-125306746D01*
X159663845Y-125360048D01*
X159623376Y-125399547D01*
X159597572Y-125424589D01*
X159587094Y-125434525D01*
X159580955Y-125439537D01*
X159520499Y-125481263D01*
X159446591Y-125522263D01*
X159366805Y-125559008D01*
X159288715Y-125587970D01*
X159219894Y-125605619D01*
X159164384Y-125614236D01*
X159079203Y-125621278D01*
X158996262Y-125618699D01*
X158904285Y-125606532D01*
X158899607Y-125605720D01*
X158796254Y-125578402D01*
X158690503Y-125534186D01*
X158589104Y-125476373D01*
X158498809Y-125408264D01*
X158495400Y-125405192D01*
X158474431Y-125385408D01*
X158438557Y-125350895D01*
X158388587Y-125302448D01*
X158325330Y-125240860D01*
X158249596Y-125166926D01*
X158162194Y-125081438D01*
X158063933Y-124985191D01*
X157955622Y-124878980D01*
X157838072Y-124763597D01*
X157712090Y-124639836D01*
X157578487Y-124508492D01*
X157438072Y-124370359D01*
X157291654Y-124226229D01*
X157140043Y-124076899D01*
X156984047Y-123923160D01*
X156824476Y-123765807D01*
X155231417Y-122194441D01*
X155424198Y-122187218D01*
X155482230Y-122184823D01*
X155544434Y-122181266D01*
X155592959Y-122176733D01*
X155632835Y-122170577D01*
X155669095Y-122162149D01*
X155706770Y-122150800D01*
X155757386Y-122132635D01*
X155875964Y-122075818D01*
X155983538Y-122003675D01*
X156076783Y-121918651D01*
X156152376Y-121823188D01*
X156198715Y-121752708D01*
X156237792Y-121805214D01*
X156266294Y-121841776D01*
X156366735Y-121947844D01*
X156479883Y-122035880D01*
X156604628Y-122104975D01*
X156636651Y-122119441D01*
X156674262Y-122135562D01*
X156709100Y-122148618D01*
X156743968Y-122158984D01*
X156781667Y-122167034D01*
X156825000Y-122173141D01*
X156876769Y-122177680D01*
X156939776Y-122181023D01*
X157016823Y-122183544D01*
X157110711Y-122185618D01*
X157224244Y-122187618D01*
X157630537Y-122194441D01*
X158338186Y-122890317D01*
X158434561Y-122985035D01*
X158535562Y-123084181D01*
X158630985Y-123177729D01*
X158719673Y-123264549D01*
X158800467Y-123343514D01*
X158872212Y-123413495D01*
X158933750Y-123473364D01*
X158983925Y-123521992D01*
X159021579Y-123558251D01*
X159045556Y-123581012D01*
X159054699Y-123589148D01*
X159059866Y-123585474D01*
X159079853Y-123567676D01*
X159113562Y-123536255D01*
X159159689Y-123492466D01*
X159216935Y-123437564D01*
X159283996Y-123372802D01*
X159359571Y-123299435D01*
X159442359Y-123218718D01*
X159531056Y-123131905D01*
X159624362Y-123040249D01*
X159693799Y-122971927D01*
X159840565Y-122827572D01*
X159972594Y-122697802D01*
X160090741Y-122581785D01*
X160195858Y-122478690D01*
X160288800Y-122387688D01*
X160370420Y-122307947D01*
X160441572Y-122238637D01*
X160503108Y-122178927D01*
X160555884Y-122127986D01*
X160600753Y-122084984D01*
X160638567Y-122049089D01*
X160670182Y-122019471D01*
X160696450Y-121995300D01*
X160718225Y-121975745D01*
X160734283Y-121961275D01*
X160776002Y-121921562D01*
X160813698Y-121882990D01*
X160840783Y-121852201D01*
X160845112Y-121847354D01*
X160865130Y-121826543D01*
X160899962Y-121791160D01*
X160948830Y-121741976D01*
X161010960Y-121679761D01*
X161085575Y-121605284D01*
X161171901Y-121519315D01*
X161269160Y-121422625D01*
X161376578Y-121315983D01*
X161493379Y-121200160D01*
X161618787Y-121075924D01*
X161752026Y-120944046D01*
X161892320Y-120805297D01*
X162038894Y-120660445D01*
X162190973Y-120510261D01*
X162347779Y-120355514D01*
X162508538Y-120196976D01*
X162600670Y-120106138D01*
X162758472Y-119950513D01*
X162911572Y-119799476D01*
X163059218Y-119653771D01*
X163200656Y-119514142D01*
X163335135Y-119381333D01*
X163461901Y-119256089D01*
X163580203Y-119139154D01*
X163689286Y-119031274D01*
X163788399Y-118933191D01*
X163876789Y-118845652D01*
X163953704Y-118769399D01*
X164018390Y-118705178D01*
X164070095Y-118653734D01*
X164108066Y-118615810D01*
X164131551Y-118592150D01*
X164139798Y-118583500D01*
X164135161Y-118578070D01*
X164115649Y-118557541D01*
X164081568Y-118522430D01*
X164033639Y-118473464D01*
X163972588Y-118411370D01*
X163899137Y-118336874D01*
X163814011Y-118250703D01*
X163717932Y-118153582D01*
X163611624Y-118046239D01*
X163495811Y-117929399D01*
X163371217Y-117803789D01*
X163238564Y-117670135D01*
X163098577Y-117529164D01*
X162951979Y-117381602D01*
X162799494Y-117228176D01*
X162641844Y-117069611D01*
X162479755Y-116906634D01*
X162313948Y-116739972D01*
X162145149Y-116570351D01*
X161974080Y-116398498D01*
X161801465Y-116225138D01*
X161628027Y-116050998D01*
X161454491Y-115876804D01*
X161281579Y-115703284D01*
X161110016Y-115531162D01*
X160940524Y-115361166D01*
X160773827Y-115194022D01*
X160610650Y-115030457D01*
X160451715Y-114871196D01*
X160297746Y-114716966D01*
X160149466Y-114568494D01*
X160007600Y-114426505D01*
X159872871Y-114291727D01*
X159746001Y-114164885D01*
X159627716Y-114046707D01*
X159518738Y-113937917D01*
X159419791Y-113839244D01*
X159331598Y-113751412D01*
X159254884Y-113675149D01*
X159190371Y-113611181D01*
X159138783Y-113560234D01*
X159100845Y-113523034D01*
X159077278Y-113500309D01*
X159068808Y-113492784D01*
X159062706Y-113498492D01*
X159041956Y-113518988D01*
X159007765Y-113553163D01*
X158961399Y-113599740D01*
X158904122Y-113657445D01*
X158837197Y-113725001D01*
X158761889Y-113801133D01*
X158679463Y-113884567D01*
X158591183Y-113974027D01*
X158498313Y-114068237D01*
X157934321Y-114640663D01*
X157028190Y-114646614D01*
X156972666Y-114646982D01*
X156814790Y-114648066D01*
X156677329Y-114649103D01*
X156558744Y-114650134D01*
X156457497Y-114651201D01*
X156372051Y-114652347D01*
X156300867Y-114653613D01*
X156242409Y-114655041D01*
X156195138Y-114656674D01*
X156157516Y-114658554D01*
X156128007Y-114660723D01*
X156105070Y-114663223D01*
X156087170Y-114666096D01*
X156072769Y-114669384D01*
X156060327Y-114673131D01*
X155953117Y-114716520D01*
X155848675Y-114773842D01*
X155754978Y-114840733D01*
X155677819Y-114913550D01*
X155618699Y-114979388D01*
X155566983Y-114877370D01*
X155552697Y-114849440D01*
X155529850Y-114805785D01*
X155510888Y-114770757D01*
X155498877Y-114750086D01*
X155495927Y-114744984D01*
X155493946Y-114737255D01*
X155495992Y-114727549D01*
X155503547Y-114714127D01*
X155518089Y-114695252D01*
X155541098Y-114669186D01*
X155574055Y-114634192D01*
X155618439Y-114588532D01*
X155675730Y-114530467D01*
X155747409Y-114458261D01*
X155753390Y-114452240D01*
X155794694Y-114410579D01*
X155850440Y-114354245D01*
X155919526Y-114284354D01*
X156000851Y-114202023D01*
X156093313Y-114108369D01*
X156195811Y-114004509D01*
X156307243Y-113891560D01*
X156426506Y-113770637D01*
X156552501Y-113642860D01*
X156684124Y-113509343D01*
X156820274Y-113371204D01*
X156959849Y-113229559D01*
X157101749Y-113085526D01*
X157244870Y-112940221D01*
X157308571Y-112875560D01*
X157446276Y-112735909D01*
X157580007Y-112600461D01*
X157708860Y-112470125D01*
X157831930Y-112345810D01*
X157948312Y-112228424D01*
X158057103Y-112118875D01*
X158157398Y-112018073D01*
X158248293Y-111926925D01*
X158328882Y-111846339D01*
X158398263Y-111777225D01*
X158455530Y-111720491D01*
X158499778Y-111677045D01*
X158530104Y-111647796D01*
X158545603Y-111633652D01*
X158559798Y-111622625D01*
X158626733Y-111578177D01*
X158704394Y-111535665D01*
X158783844Y-111499661D01*
X158856145Y-111474739D01*
X158925448Y-111459691D01*
X159050347Y-111449209D01*
X159178245Y-111457682D01*
G37*
G36*
X142458759Y-115197672D02*
G01*
X142573609Y-115197796D01*
X142673716Y-115198050D01*
X142760180Y-115198447D01*
X142834101Y-115199000D01*
X142896579Y-115199721D01*
X142948714Y-115200623D01*
X142991606Y-115201718D01*
X143026354Y-115203019D01*
X143054059Y-115204539D01*
X143075821Y-115206291D01*
X143092740Y-115208287D01*
X143105915Y-115210540D01*
X143116447Y-115213063D01*
X143125435Y-115215867D01*
X143133981Y-115218967D01*
X143139534Y-115221107D01*
X143212540Y-115261217D01*
X143276447Y-115318180D01*
X143325518Y-115386963D01*
X143326437Y-115388655D01*
X143330855Y-115397107D01*
X143334993Y-115406221D01*
X143338988Y-115417138D01*
X143342980Y-115430998D01*
X143347105Y-115448941D01*
X143351504Y-115472107D01*
X143356313Y-115501636D01*
X143361671Y-115538669D01*
X143367717Y-115584346D01*
X143374589Y-115639806D01*
X143382425Y-115706190D01*
X143391363Y-115784638D01*
X143401542Y-115876289D01*
X143413100Y-115982286D01*
X143426176Y-116103766D01*
X143440906Y-116241871D01*
X143457431Y-116397740D01*
X143475888Y-116572514D01*
X143496415Y-116767333D01*
X143519151Y-116983336D01*
X143540533Y-117186565D01*
X143561153Y-117382769D01*
X143579616Y-117558863D01*
X143596026Y-117715987D01*
X143610484Y-117855284D01*
X143623096Y-117977896D01*
X143633962Y-118084965D01*
X143643187Y-118177634D01*
X143650873Y-118257044D01*
X143657124Y-118324338D01*
X143662042Y-118380658D01*
X143665730Y-118427145D01*
X143668291Y-118464943D01*
X143669829Y-118495192D01*
X143670446Y-118519036D01*
X143670245Y-118537616D01*
X143669330Y-118552074D01*
X143667802Y-118563553D01*
X143665766Y-118573195D01*
X143663324Y-118582141D01*
X143660583Y-118590917D01*
X143628053Y-118656448D01*
X143578891Y-118714179D01*
X143518230Y-118757892D01*
X143472568Y-118782334D01*
X141340000Y-118793558D01*
X141290016Y-118821618D01*
X141281435Y-118826674D01*
X141224549Y-118873907D01*
X141180671Y-118935067D01*
X141154485Y-119003856D01*
X141152848Y-119012137D01*
X141150796Y-119028403D01*
X141149786Y-119048981D01*
X141149956Y-119075671D01*
X141151449Y-119110274D01*
X141154403Y-119154588D01*
X141158959Y-119210416D01*
X141165257Y-119279557D01*
X141173438Y-119363812D01*
X141183642Y-119464980D01*
X141196008Y-119584862D01*
X141210678Y-119725259D01*
X141224977Y-119861098D01*
X141237730Y-119980877D01*
X141248713Y-120081937D01*
X141258173Y-120166113D01*
X141266359Y-120235240D01*
X141273518Y-120291152D01*
X141279898Y-120335685D01*
X141285747Y-120370674D01*
X141291312Y-120397953D01*
X141296842Y-120419357D01*
X141302583Y-120436721D01*
X141308784Y-120451881D01*
X141350471Y-120520468D01*
X141409819Y-120581777D01*
X141481991Y-120630697D01*
X141530809Y-120656748D01*
X142597093Y-120662360D01*
X143663376Y-120667972D01*
X143726769Y-120697693D01*
X143753145Y-120711747D01*
X143798560Y-120741810D01*
X143835738Y-120772989D01*
X143846918Y-120784406D01*
X143876347Y-120818401D01*
X143898853Y-120853376D01*
X143915999Y-120893621D01*
X143929351Y-120943425D01*
X143940473Y-121007079D01*
X143950928Y-121088874D01*
X143957941Y-121152791D01*
X143966548Y-121248670D01*
X143970500Y-121325981D01*
X143969817Y-121386877D01*
X143964521Y-121433514D01*
X143954633Y-121468045D01*
X143941054Y-121495165D01*
X143896774Y-121551664D01*
X143838017Y-121597622D01*
X143770077Y-121628439D01*
X143769447Y-121628572D01*
X143752271Y-121629546D01*
X143714076Y-121630462D01*
X143656122Y-121631316D01*
X143579669Y-121632102D01*
X143485980Y-121632816D01*
X143376315Y-121633452D01*
X143251934Y-121634006D01*
X143114100Y-121634473D01*
X142964072Y-121634847D01*
X142803112Y-121635123D01*
X142632482Y-121635298D01*
X142453442Y-121635364D01*
X142267252Y-121635318D01*
X142075175Y-121635155D01*
X140408405Y-121633239D01*
X140354507Y-121608134D01*
X140299830Y-121574443D01*
X140245268Y-121525363D01*
X140199536Y-121468744D01*
X140169029Y-121411370D01*
X140165977Y-121401034D01*
X140161818Y-121381451D01*
X140156921Y-121352889D01*
X140151178Y-121314393D01*
X140144480Y-121265010D01*
X140136716Y-121203786D01*
X140127778Y-121129767D01*
X140117557Y-121041999D01*
X140105943Y-120939529D01*
X140092827Y-120821402D01*
X140078100Y-120686665D01*
X140061652Y-120534364D01*
X140043375Y-120363544D01*
X140023158Y-120173253D01*
X140000894Y-119962537D01*
X139976471Y-119730441D01*
X139959627Y-119569996D01*
X139936530Y-119349475D01*
X139915681Y-119149498D01*
X139896996Y-118968999D01*
X139880393Y-118806918D01*
X139865790Y-118662189D01*
X139853105Y-118533751D01*
X139842253Y-118420540D01*
X139833155Y-118321493D01*
X139825725Y-118235546D01*
X139819883Y-118161638D01*
X139815546Y-118098704D01*
X139812631Y-118045681D01*
X139811056Y-118001507D01*
X139810737Y-117965118D01*
X139811594Y-117935451D01*
X139813543Y-117911443D01*
X139816501Y-117892031D01*
X139820387Y-117876151D01*
X139825118Y-117862742D01*
X139830611Y-117850738D01*
X139847502Y-117817066D01*
X140992205Y-117811454D01*
X141106376Y-117810890D01*
X141279298Y-117810003D01*
X141431892Y-117809156D01*
X141565486Y-117808321D01*
X141681405Y-117807466D01*
X141780973Y-117806563D01*
X141865516Y-117805582D01*
X141936361Y-117804493D01*
X141994831Y-117803267D01*
X142042253Y-117801873D01*
X142079952Y-117800283D01*
X142109254Y-117798466D01*
X142131484Y-117796393D01*
X142147967Y-117794033D01*
X142160029Y-117791359D01*
X142168995Y-117788339D01*
X142176191Y-117784944D01*
X142193610Y-117775108D01*
X142258523Y-117724529D01*
X142304639Y-117661762D01*
X142332179Y-117586524D01*
X142332416Y-117585296D01*
X142333330Y-117561529D01*
X142331869Y-117518464D01*
X142328305Y-117458814D01*
X142322910Y-117385293D01*
X142315954Y-117300614D01*
X142307711Y-117207492D01*
X142298452Y-117108640D01*
X142288448Y-117006771D01*
X142277971Y-116904601D01*
X142267294Y-116804842D01*
X142256688Y-116710208D01*
X142246425Y-116623414D01*
X142236776Y-116547172D01*
X142228013Y-116484196D01*
X142220409Y-116437201D01*
X142214235Y-116408900D01*
X142208105Y-116390313D01*
X142191426Y-116355237D01*
X142166007Y-116320716D01*
X142127173Y-116279824D01*
X142112424Y-116264902D01*
X142096523Y-116248335D01*
X142081923Y-116233751D01*
X142067228Y-116221017D01*
X142051041Y-116210001D01*
X142031964Y-116200569D01*
X142008601Y-116192589D01*
X141979554Y-116185927D01*
X141943428Y-116180450D01*
X141898824Y-116176026D01*
X141844346Y-116172521D01*
X141778597Y-116169803D01*
X141700181Y-116167739D01*
X141607699Y-116166195D01*
X141499756Y-116165039D01*
X141374954Y-116164138D01*
X141231896Y-116163359D01*
X141069186Y-116162568D01*
X140885427Y-116161633D01*
X140749106Y-116160895D01*
X140587100Y-116159992D01*
X140445087Y-116159143D01*
X140321668Y-116158309D01*
X140215442Y-116157453D01*
X140125012Y-116156537D01*
X140048978Y-116155523D01*
X139985940Y-116154375D01*
X139934499Y-116153055D01*
X139893257Y-116151525D01*
X139860814Y-116149747D01*
X139835770Y-116147685D01*
X139816727Y-116145300D01*
X139802284Y-116142555D01*
X139791044Y-116139413D01*
X139781607Y-116135836D01*
X139772573Y-116131786D01*
X139752864Y-116121609D01*
X139692041Y-116077195D01*
X139638680Y-116019524D01*
X139599596Y-115955536D01*
X139590417Y-115929065D01*
X139578815Y-115879571D01*
X139567613Y-115816501D01*
X139557368Y-115744783D01*
X139548638Y-115669344D01*
X139541980Y-115595112D01*
X139537953Y-115527017D01*
X139537113Y-115469986D01*
X139540018Y-115428946D01*
X139541916Y-115418336D01*
X139566891Y-115346489D01*
X139609709Y-115283963D01*
X139667033Y-115235834D01*
X139721975Y-115201865D01*
X141397334Y-115198951D01*
X141398455Y-115198949D01*
X141624863Y-115198558D01*
X141829928Y-115198222D01*
X142014750Y-115197953D01*
X142180429Y-115197763D01*
X142328065Y-115197665D01*
X142458759Y-115197672D01*
G37*
G36*
X133741326Y-115228242D02*
G01*
X133776949Y-115248022D01*
X133838313Y-115295528D01*
X133890331Y-115352713D01*
X133926565Y-115413150D01*
X133926777Y-115413678D01*
X133930946Y-115432835D01*
X133937139Y-115472634D01*
X133945187Y-115531488D01*
X133954923Y-115607810D01*
X133966178Y-115700014D01*
X133978785Y-115806512D01*
X133992577Y-115925720D01*
X134007386Y-116056049D01*
X134023043Y-116195913D01*
X134039381Y-116343726D01*
X134056233Y-116497900D01*
X134073430Y-116656850D01*
X134090805Y-116818988D01*
X134108190Y-116982728D01*
X134125417Y-117146483D01*
X134142320Y-117308666D01*
X134158728Y-117467691D01*
X134174477Y-117621971D01*
X134189396Y-117769920D01*
X134203319Y-117909950D01*
X134216078Y-118040476D01*
X134227505Y-118159910D01*
X134237432Y-118266666D01*
X134245692Y-118359157D01*
X134252117Y-118435796D01*
X134256539Y-118494998D01*
X134258790Y-118535174D01*
X134258703Y-118554739D01*
X134252651Y-118582598D01*
X134223635Y-118647675D01*
X134177318Y-118704691D01*
X134117331Y-118748661D01*
X134055599Y-118782334D01*
X132989315Y-118787946D01*
X132855273Y-118788674D01*
X132687585Y-118789672D01*
X132540169Y-118790679D01*
X132411761Y-118791718D01*
X132301098Y-118792814D01*
X132206914Y-118793993D01*
X132127945Y-118795278D01*
X132062927Y-118796694D01*
X132010595Y-118798267D01*
X131969685Y-118800020D01*
X131938932Y-118801979D01*
X131917072Y-118804169D01*
X131902840Y-118806613D01*
X131894972Y-118809337D01*
X131882299Y-118816712D01*
X131817229Y-118865872D01*
X131772291Y-118923694D01*
X131746260Y-118992236D01*
X131737915Y-119073556D01*
X131738296Y-119085491D01*
X131740749Y-119122959D01*
X131745287Y-119179077D01*
X131751689Y-119251494D01*
X131759733Y-119337856D01*
X131769198Y-119435813D01*
X131779864Y-119543011D01*
X131791509Y-119657098D01*
X131803912Y-119775723D01*
X131806765Y-119802665D01*
X131820838Y-119934768D01*
X131832966Y-120046736D01*
X131843400Y-120140427D01*
X131852392Y-120217698D01*
X131860196Y-120280406D01*
X131867062Y-120330406D01*
X131873243Y-120369555D01*
X131878991Y-120399710D01*
X131884559Y-120422728D01*
X131890199Y-120440465D01*
X131896163Y-120454777D01*
X131910883Y-120482101D01*
X131956223Y-120542522D01*
X132012403Y-120594995D01*
X132072352Y-120632391D01*
X132080121Y-120635912D01*
X132089371Y-120639581D01*
X132100135Y-120642807D01*
X132113809Y-120645627D01*
X132131789Y-120648079D01*
X132155469Y-120650200D01*
X132186246Y-120652026D01*
X132225515Y-120653597D01*
X132274671Y-120654948D01*
X132335111Y-120656118D01*
X132408230Y-120657143D01*
X132495423Y-120658062D01*
X132598086Y-120658911D01*
X132717614Y-120659728D01*
X132855404Y-120660550D01*
X133012850Y-120661415D01*
X133191348Y-120662360D01*
X134257632Y-120667972D01*
X134320968Y-120699084D01*
X134349204Y-120714852D01*
X134410580Y-120762062D01*
X134463102Y-120819768D01*
X134500079Y-120881171D01*
X134502964Y-120888371D01*
X134513256Y-120925523D01*
X134523591Y-120981281D01*
X134534181Y-121056924D01*
X134545237Y-121153727D01*
X134547745Y-121177598D01*
X134555018Y-121248833D01*
X134559873Y-121302606D01*
X134562377Y-121342691D01*
X134562592Y-121372866D01*
X134560584Y-121396907D01*
X134556417Y-121418590D01*
X134550155Y-121441690D01*
X134535480Y-121479595D01*
X134496721Y-121539128D01*
X134445064Y-121587678D01*
X134385748Y-121619579D01*
X134382165Y-121620716D01*
X134371984Y-121623018D01*
X134357637Y-121625100D01*
X134338047Y-121626974D01*
X134312139Y-121628651D01*
X134278839Y-121630143D01*
X134237070Y-121631461D01*
X134185757Y-121632617D01*
X134123826Y-121633623D01*
X134050200Y-121634489D01*
X133963804Y-121635229D01*
X133863563Y-121635854D01*
X133748402Y-121636374D01*
X133617244Y-121636802D01*
X133469016Y-121637150D01*
X133302640Y-121637428D01*
X133117043Y-121637649D01*
X132911149Y-121637824D01*
X132683881Y-121637965D01*
X131031563Y-121638851D01*
X130966887Y-121614653D01*
X130911919Y-121587306D01*
X130849851Y-121540362D01*
X130797427Y-121483390D01*
X130761011Y-121422334D01*
X130760413Y-121420905D01*
X130756720Y-121410273D01*
X130752840Y-121395522D01*
X130748648Y-121375581D01*
X130744020Y-121349379D01*
X130738830Y-121315844D01*
X130732954Y-121273906D01*
X130726269Y-121222493D01*
X130718648Y-121160533D01*
X130709967Y-121086957D01*
X130700103Y-121000691D01*
X130688929Y-120900667D01*
X130676323Y-120785811D01*
X130662158Y-120655053D01*
X130646311Y-120507321D01*
X130628656Y-120341546D01*
X130609070Y-120156654D01*
X130587427Y-119951576D01*
X130563604Y-119725239D01*
X130563309Y-119722433D01*
X130543314Y-119531816D01*
X130523981Y-119346600D01*
X130505441Y-119168087D01*
X130487824Y-118997578D01*
X130471263Y-118836375D01*
X130455889Y-118685780D01*
X130441833Y-118547095D01*
X130429227Y-118421620D01*
X130418201Y-118310658D01*
X130408888Y-118215511D01*
X130401419Y-118137480D01*
X130395925Y-118077866D01*
X130392537Y-118037972D01*
X130391388Y-118019099D01*
X130393458Y-117970075D01*
X130401721Y-117910625D01*
X130415175Y-117862535D01*
X130432624Y-117831262D01*
X130433506Y-117830350D01*
X130437904Y-117827204D01*
X130445059Y-117824427D01*
X130456282Y-117821996D01*
X130472888Y-117819888D01*
X130496189Y-117818080D01*
X130527497Y-117816549D01*
X130568125Y-117815272D01*
X130619387Y-117814227D01*
X130682594Y-117813390D01*
X130759060Y-117812739D01*
X130850097Y-117812251D01*
X130957019Y-117811903D01*
X131081138Y-117811673D01*
X131223766Y-117811536D01*
X131386217Y-117811471D01*
X131569803Y-117811454D01*
X131648478Y-117811457D01*
X131827236Y-117811466D01*
X131985443Y-117811425D01*
X132124448Y-117811266D01*
X132245600Y-117810923D01*
X132350248Y-117810327D01*
X132439742Y-117809413D01*
X132515430Y-117808112D01*
X132578662Y-117806358D01*
X132630788Y-117804084D01*
X132673156Y-117801222D01*
X132707116Y-117797706D01*
X132734016Y-117793467D01*
X132755207Y-117788440D01*
X132772038Y-117782557D01*
X132785857Y-117775751D01*
X132798014Y-117767954D01*
X132809859Y-117759100D01*
X132822740Y-117749121D01*
X132833087Y-117740609D01*
X132875362Y-117691491D01*
X132907037Y-117631177D01*
X132923209Y-117568481D01*
X132923560Y-117555153D01*
X132922057Y-117518149D01*
X132918304Y-117462366D01*
X132912483Y-117389903D01*
X132904773Y-117302860D01*
X132895357Y-117203340D01*
X132884414Y-117093440D01*
X132872126Y-116975263D01*
X132863684Y-116895782D01*
X132851800Y-116784719D01*
X132841734Y-116692568D01*
X132833172Y-116617222D01*
X132825798Y-116556573D01*
X132819297Y-116508517D01*
X132813352Y-116470947D01*
X132807648Y-116441755D01*
X132801869Y-116418836D01*
X132795700Y-116400084D01*
X132788826Y-116383392D01*
X132780929Y-116366653D01*
X132737711Y-116298591D01*
X132675734Y-116239547D01*
X132595580Y-116192601D01*
X132540354Y-116167133D01*
X131474070Y-116161520D01*
X130407787Y-116155908D01*
X130350954Y-116125914D01*
X130293709Y-116087476D01*
X130234188Y-116027833D01*
X130188466Y-115958603D01*
X130181332Y-115941397D01*
X130168296Y-115893258D01*
X130155876Y-115826077D01*
X130144399Y-115742072D01*
X130134193Y-115643460D01*
X130125584Y-115532456D01*
X130123692Y-115501277D01*
X130122486Y-115457802D01*
X130124822Y-115425980D01*
X130131441Y-115398914D01*
X130143086Y-115369708D01*
X130176310Y-115309887D01*
X130222598Y-115260658D01*
X130284322Y-115223003D01*
X130340442Y-115196472D01*
X132007212Y-115196372D01*
X133673982Y-115196271D01*
X133741326Y-115228242D01*
G37*
G36*
X93418587Y-121819039D02*
G01*
X93463526Y-121864207D01*
X93542039Y-121806701D01*
X93594323Y-121760054D01*
X93743122Y-121752672D01*
X93807845Y-121805013D01*
X93850985Y-121930843D01*
X93872695Y-122160668D01*
X93878667Y-122527009D01*
X93877546Y-122771331D01*
X93867903Y-123030036D01*
X93841820Y-123173903D01*
X93791546Y-123235984D01*
X93709333Y-123249333D01*
X93637804Y-123241167D01*
X93574608Y-123182033D01*
X93546437Y-123031897D01*
X93540000Y-122751700D01*
X93519666Y-122440252D01*
X93441686Y-122183376D01*
X93310268Y-122073901D01*
X93130737Y-122120046D01*
X93062922Y-122192121D01*
X92997840Y-122391291D01*
X92964460Y-122728969D01*
X92951300Y-122941473D01*
X92921493Y-123137627D01*
X92866978Y-123227687D01*
X92773960Y-123249333D01*
X92765110Y-123249254D01*
X92681586Y-123228779D01*
X92634373Y-123147220D01*
X92613418Y-122968531D01*
X92608667Y-122656666D01*
X92610484Y-122484864D01*
X92631175Y-122204638D01*
X92683483Y-122023792D01*
X92778000Y-121894666D01*
X92855345Y-121831905D01*
X93069429Y-121742162D01*
X93279442Y-121735245D01*
X93418587Y-121819039D01*
G37*
G36*
X86582090Y-125208052D02*
G01*
X86516437Y-125385880D01*
X86374249Y-125529188D01*
X86130968Y-125660741D01*
X85816890Y-125694154D01*
X85534149Y-125584589D01*
X85457953Y-125516270D01*
X85437896Y-125412644D01*
X85574761Y-125346755D01*
X85862182Y-125323666D01*
X86003192Y-125318911D01*
X86175228Y-125275978D01*
X86241566Y-125175500D01*
X86246309Y-125128924D01*
X86206382Y-125064459D01*
X86069328Y-125034608D01*
X85799208Y-125027333D01*
X85550615Y-125023435D01*
X85399071Y-124998495D01*
X85338393Y-124933425D01*
X85327333Y-124809153D01*
X85327666Y-124796168D01*
X85353408Y-124719338D01*
X85707472Y-124719338D01*
X85768886Y-124764475D01*
X85965563Y-124773333D01*
X86108325Y-124767713D01*
X86228566Y-124725674D01*
X86242843Y-124625166D01*
X86204325Y-124538145D01*
X86063444Y-124455768D01*
X85890063Y-124474767D01*
X85753417Y-124598862D01*
X85747459Y-124610073D01*
X85707472Y-124719338D01*
X85353408Y-124719338D01*
X85402684Y-124572269D01*
X85583464Y-124334843D01*
X85717529Y-124212636D01*
X85887959Y-124123951D01*
X86070298Y-124133299D01*
X86092799Y-124138925D01*
X86375377Y-124286867D01*
X86542414Y-124554101D01*
X86552375Y-124625166D01*
X86597333Y-124945901D01*
X86582090Y-125208052D01*
G37*
G36*
X88741457Y-121758282D02*
G01*
X88778063Y-121853096D01*
X88794722Y-122053634D01*
X88798667Y-122391657D01*
X88798326Y-122512070D01*
X88789550Y-122815205D01*
X88761486Y-123003809D01*
X88704302Y-123119878D01*
X88608167Y-123205407D01*
X88452353Y-123279618D01*
X88248333Y-123287589D01*
X88088638Y-123256164D01*
X87846167Y-123243392D01*
X87613333Y-123252023D01*
X87613333Y-122482470D01*
X87614509Y-122230900D01*
X87623736Y-121959119D01*
X87647287Y-121807034D01*
X87691196Y-121744449D01*
X87761500Y-121741167D01*
X87807988Y-121757204D01*
X87873780Y-121839683D01*
X87912450Y-122019421D01*
X87934528Y-122332401D01*
X87956073Y-122619079D01*
X88005030Y-122847150D01*
X88082694Y-122942701D01*
X88250020Y-122973895D01*
X88371234Y-122897460D01*
X88443180Y-122689613D01*
X88477473Y-122332401D01*
X88487123Y-122156612D01*
X88516202Y-121914920D01*
X88567151Y-121788433D01*
X88650500Y-121741167D01*
X88677670Y-121737435D01*
X88741457Y-121758282D01*
G37*
G36*
X87063000Y-124154765D02*
G01*
X87223276Y-124185934D01*
X87465167Y-124193821D01*
X87698000Y-124177976D01*
X87698000Y-124884877D01*
X87697280Y-124998150D01*
X87687125Y-125311640D01*
X87667478Y-125542832D01*
X87641556Y-125648222D01*
X87616218Y-125667057D01*
X87472222Y-125704666D01*
X87413548Y-125667314D01*
X87372066Y-125507883D01*
X87359333Y-125202714D01*
X87346493Y-124948194D01*
X87270591Y-124642642D01*
X87129512Y-124484669D01*
X86926662Y-124479963D01*
X86821042Y-124490548D01*
X86711579Y-124389626D01*
X86706986Y-124376497D01*
X86726404Y-124227082D01*
X86860994Y-124142533D01*
X87063000Y-124154765D01*
G37*
G36*
X98255241Y-122810871D02*
G01*
X98127980Y-123079989D01*
X97915965Y-123250565D01*
X97787686Y-123291214D01*
X97486885Y-123285091D01*
X97239958Y-123139907D01*
X97072807Y-122876683D01*
X97040322Y-122686316D01*
X97369638Y-122686316D01*
X97439257Y-122873864D01*
X97474118Y-122911895D01*
X97641593Y-122997288D01*
X97792183Y-122938276D01*
X97900877Y-122755035D01*
X97942667Y-122467742D01*
X97939060Y-122382723D01*
X97870533Y-122155247D01*
X97728114Y-122063747D01*
X97528992Y-122122564D01*
X97443662Y-122221860D01*
X97374304Y-122442207D01*
X97369638Y-122686316D01*
X97040322Y-122686316D01*
X97011333Y-122516438D01*
X97018360Y-122391778D01*
X97114765Y-122072594D01*
X97299800Y-121849942D01*
X97542148Y-121741019D01*
X97810492Y-121763023D01*
X98073515Y-121933151D01*
X98230889Y-122182787D01*
X98286355Y-122467742D01*
X98291594Y-122494656D01*
X98255241Y-122810871D01*
G37*
G36*
X91418080Y-121809445D02*
G01*
X91604875Y-121988532D01*
X91677333Y-122241458D01*
X91673167Y-122330114D01*
X91615173Y-122489563D01*
X91460251Y-122587436D01*
X91172209Y-122653237D01*
X91170122Y-122653578D01*
X90952226Y-122722727D01*
X90873000Y-122827436D01*
X90873001Y-122827721D01*
X90950516Y-122916911D01*
X91178306Y-122940389D01*
X91550333Y-122897530D01*
X91663683Y-122902440D01*
X91718279Y-122981946D01*
X91664445Y-123104249D01*
X91508000Y-123224418D01*
X91503514Y-123226671D01*
X91192207Y-123313884D01*
X90893671Y-123283413D01*
X90654137Y-123149248D01*
X90519836Y-122925380D01*
X90512149Y-122891623D01*
X90523560Y-122649975D01*
X90678404Y-122478371D01*
X90986319Y-122365238D01*
X91131071Y-122324267D01*
X91310661Y-122229939D01*
X91349590Y-122140540D01*
X91246495Y-122083719D01*
X91000016Y-122087126D01*
X90806110Y-122098153D01*
X90634426Y-122058195D01*
X90595491Y-121967014D01*
X90706914Y-121839489D01*
X90884964Y-121748791D01*
X91162819Y-121723197D01*
X91418080Y-121809445D01*
G37*
G36*
X95187745Y-125568826D02*
G01*
X95157454Y-125594443D01*
X94945363Y-125670016D01*
X94591897Y-125686831D01*
X94126305Y-125674581D01*
X94143352Y-125196666D01*
X94471333Y-125196666D01*
X94473353Y-125235440D01*
X94536663Y-125338190D01*
X94720337Y-125366000D01*
X94808646Y-125360697D01*
X94983213Y-125303823D01*
X95046058Y-125208302D01*
X94969014Y-125103830D01*
X94909577Y-125071248D01*
X94703319Y-125023573D01*
X94538633Y-125068850D01*
X94471333Y-125196666D01*
X94143352Y-125196666D01*
X94150652Y-124992000D01*
X94161307Y-124731592D01*
X94182370Y-124488542D01*
X94223088Y-124344870D01*
X94297037Y-124259991D01*
X94417791Y-124193317D01*
X94458420Y-124175948D01*
X94695014Y-124130824D01*
X94933269Y-124153029D01*
X95117244Y-124230999D01*
X95191000Y-124353168D01*
X95186710Y-124382581D01*
X95091467Y-124454761D01*
X94854397Y-124477000D01*
X94735717Y-124480605D01*
X94557356Y-124522818D01*
X94488355Y-124625166D01*
X94483354Y-124674383D01*
X94539357Y-124752410D01*
X94724691Y-124773333D01*
X95048570Y-124816889D01*
X95251079Y-124956332D01*
X95318000Y-125193597D01*
X95315509Y-125208302D01*
X95284752Y-125389893D01*
X95187745Y-125568826D01*
G37*
G36*
X85804644Y-121761993D02*
G01*
X86050849Y-121933151D01*
X86209964Y-122187625D01*
X86269013Y-122499065D01*
X86231826Y-122813908D01*
X86104541Y-123080889D01*
X85893299Y-123248742D01*
X85739146Y-123301280D01*
X85492763Y-123312980D01*
X85257469Y-123199371D01*
X85222324Y-123173824D01*
X85122519Y-123059229D01*
X85160393Y-122950116D01*
X85163132Y-122946853D01*
X85280012Y-122879165D01*
X85458256Y-122927859D01*
X85549574Y-122960433D01*
X85749069Y-122942514D01*
X85875693Y-122778832D01*
X85920000Y-122478579D01*
X85908555Y-122283004D01*
X85846894Y-122158886D01*
X85702135Y-122097212D01*
X85538300Y-122083780D01*
X85390882Y-122135917D01*
X85317498Y-122183690D01*
X85185415Y-122136285D01*
X85091607Y-122032969D01*
X85112083Y-121929893D01*
X85288984Y-121823590D01*
X85535582Y-121741398D01*
X85804644Y-121761993D01*
G37*
G36*
X91938093Y-111171519D02*
G01*
X91968732Y-111327654D01*
X92044652Y-111644642D01*
X92119708Y-111878140D01*
X92181379Y-111986222D01*
X92255355Y-112022605D01*
X92463015Y-112106320D01*
X92729625Y-112202061D01*
X93171861Y-112352381D01*
X93807886Y-111923196D01*
X94443912Y-111494010D01*
X95561330Y-112611428D01*
X95132920Y-113231144D01*
X94704511Y-113850860D01*
X94895251Y-114360896D01*
X94996124Y-114607953D01*
X95103466Y-114825587D01*
X95180829Y-114932632D01*
X95198711Y-114941653D01*
X95357894Y-114991054D01*
X95624942Y-115054923D01*
X95953000Y-115121784D01*
X96630333Y-115249235D01*
X96630333Y-116847437D01*
X95917088Y-116979218D01*
X95203843Y-117111000D01*
X94966895Y-117689741D01*
X94729946Y-118268482D01*
X95558656Y-119496578D01*
X94999470Y-120055765D01*
X94440283Y-120614951D01*
X93847307Y-120202489D01*
X93580605Y-120019507D01*
X93381406Y-119897991D01*
X93246000Y-119849164D01*
X93135352Y-119859671D01*
X93010426Y-119916156D01*
X93002541Y-119920196D01*
X92809477Y-119997860D01*
X92680742Y-120013691D01*
X92657343Y-119989430D01*
X92569485Y-119837187D01*
X92438078Y-119569925D01*
X92276545Y-119215571D01*
X92098309Y-118802049D01*
X91601655Y-117619000D01*
X91928812Y-117322666D01*
X91964799Y-117289577D01*
X92289321Y-116914907D01*
X92468794Y-116515636D01*
X92524000Y-116047232D01*
X92459311Y-115578974D01*
X92255323Y-115148643D01*
X91931094Y-114817180D01*
X91506146Y-114604037D01*
X91000000Y-114528666D01*
X90530067Y-114593125D01*
X90098196Y-114796385D01*
X89765546Y-115119458D01*
X89551640Y-115542891D01*
X89476000Y-116047232D01*
X89476399Y-116092113D01*
X89541649Y-116552690D01*
X89732985Y-116948030D01*
X90071188Y-117322666D01*
X90398345Y-117619000D01*
X89901691Y-118802049D01*
X89811349Y-119014405D01*
X89639784Y-119401842D01*
X89491632Y-119716152D01*
X89380315Y-119929410D01*
X89319258Y-120013691D01*
X89316237Y-120014582D01*
X89183219Y-119995669D01*
X88989148Y-119915935D01*
X88876198Y-119863418D01*
X88765899Y-119847146D01*
X88635539Y-119889134D01*
X88445936Y-120002856D01*
X88157908Y-120201785D01*
X87571000Y-120613984D01*
X87005592Y-120056141D01*
X86440183Y-119498298D01*
X86855119Y-118883390D01*
X87270054Y-118268482D01*
X86795960Y-117111000D01*
X86082813Y-116983548D01*
X85369667Y-116856097D01*
X85369667Y-115249235D01*
X86047000Y-115121784D01*
X86135154Y-115104830D01*
X86451916Y-115037643D01*
X86695539Y-114976418D01*
X86819171Y-114932632D01*
X86886291Y-114843364D01*
X86991589Y-114635286D01*
X87104749Y-114360896D01*
X87295490Y-113850860D01*
X86867080Y-113231144D01*
X86438671Y-112611428D01*
X86998716Y-112051382D01*
X87558762Y-111491337D01*
X88185462Y-111924574D01*
X88812163Y-112357812D01*
X89262387Y-112204776D01*
X89447108Y-112139622D01*
X89682863Y-112048782D01*
X89818621Y-111986222D01*
X89843478Y-111956517D01*
X89912621Y-111787726D01*
X89989604Y-111512084D01*
X90061908Y-111171519D01*
X90199184Y-110422333D01*
X91800817Y-110422333D01*
X91938093Y-111171519D01*
G37*
G36*
X89043866Y-125565834D02*
G01*
X88989616Y-125595996D01*
X88739497Y-125663387D01*
X88408866Y-125686499D01*
X87952000Y-125682393D01*
X87952000Y-125169587D01*
X88305180Y-125169587D01*
X88387549Y-125287411D01*
X88616207Y-125350745D01*
X88754203Y-125358463D01*
X88860739Y-125326809D01*
X88868820Y-125223745D01*
X88786452Y-125105921D01*
X88557793Y-125042587D01*
X88419797Y-125034869D01*
X88313261Y-125066523D01*
X88305180Y-125169587D01*
X87952000Y-125169587D01*
X87952000Y-125071652D01*
X87953435Y-124942066D01*
X87986212Y-124586680D01*
X88077051Y-124355148D01*
X88245486Y-124214648D01*
X88511053Y-124132356D01*
X88733281Y-124128336D01*
X88971164Y-124255533D01*
X89024213Y-124300321D01*
X89102838Y-124383682D01*
X89078240Y-124430075D01*
X88928398Y-124453180D01*
X88631293Y-124466679D01*
X88615895Y-124467301D01*
X88395475Y-124511434D01*
X88307585Y-124625166D01*
X88306843Y-124700283D01*
X88386280Y-124758343D01*
X88595292Y-124773333D01*
X88620742Y-124773694D01*
X88909419Y-124835629D01*
X89115485Y-124980111D01*
X89219525Y-125172839D01*
X89215239Y-125223745D01*
X89202123Y-125379514D01*
X89043866Y-125565834D01*
G37*
G36*
X92744149Y-125294097D02*
G01*
X92608667Y-125535333D01*
X92393783Y-125669206D01*
X92148900Y-125696551D01*
X91948267Y-125603066D01*
X91871657Y-125544162D01*
X91846667Y-125603066D01*
X91813630Y-125662779D01*
X91674804Y-125704666D01*
X91608470Y-125697822D01*
X91559802Y-125658228D01*
X91531036Y-125558569D01*
X91518420Y-125371544D01*
X91518206Y-125073255D01*
X91860641Y-125073255D01*
X91948267Y-125264400D01*
X92120310Y-125360543D01*
X92294357Y-125326651D01*
X92402404Y-125162945D01*
X92416501Y-125097192D01*
X92424815Y-124829361D01*
X92363009Y-124611783D01*
X92252266Y-124474068D01*
X92113772Y-124445830D01*
X91968708Y-124556682D01*
X91952126Y-124580581D01*
X91862688Y-124818967D01*
X91860641Y-125073255D01*
X91518206Y-125073255D01*
X91518204Y-125069856D01*
X91526637Y-124626205D01*
X91531045Y-124438923D01*
X91544450Y-124046168D01*
X91563656Y-123785154D01*
X91592905Y-123628558D01*
X91636439Y-123549057D01*
X91698500Y-123519330D01*
X91707846Y-123517668D01*
X91795249Y-123532938D01*
X91836383Y-123641532D01*
X91846667Y-123881104D01*
X91847603Y-124005263D01*
X91862786Y-124173690D01*
X91910969Y-124221893D01*
X92010434Y-124183645D01*
X92010940Y-124183374D01*
X92211785Y-124106270D01*
X92376442Y-124141746D01*
X92570182Y-124303818D01*
X92623290Y-124366194D01*
X92749425Y-124644372D01*
X92772318Y-124829361D01*
X92790390Y-124975391D01*
X92744149Y-125294097D01*
G37*
G36*
X90171064Y-123090023D02*
G01*
X89957299Y-123248742D01*
X89771287Y-123314190D01*
X89630799Y-123312821D01*
X89443373Y-123238350D01*
X89252280Y-123097014D01*
X89113106Y-122848620D01*
X89087881Y-122686316D01*
X89410972Y-122686316D01*
X89480590Y-122873864D01*
X89515451Y-122911895D01*
X89682926Y-122997288D01*
X89833516Y-122938276D01*
X89942211Y-122755035D01*
X89984000Y-122467742D01*
X89980394Y-122382723D01*
X89911866Y-122155247D01*
X89769448Y-122063747D01*
X89570325Y-122122564D01*
X89484995Y-122221860D01*
X89415638Y-122442207D01*
X89410972Y-122686316D01*
X89087881Y-122686316D01*
X89067239Y-122553504D01*
X89108118Y-122252642D01*
X89229183Y-121987010D01*
X89423874Y-121797581D01*
X89685629Y-121725333D01*
X89686253Y-121725334D01*
X89886407Y-121777069D01*
X90099582Y-121900811D01*
X90217877Y-122012477D01*
X90301317Y-122187788D01*
X90322667Y-122456711D01*
X90321661Y-122467742D01*
X90290018Y-122814855D01*
X90171064Y-123090023D01*
G37*
G36*
X96756902Y-124235483D02*
G01*
X96754296Y-124747772D01*
X96748005Y-125125719D01*
X96736540Y-125388997D01*
X96718412Y-125557276D01*
X96692133Y-125650227D01*
X96656214Y-125687523D01*
X96609167Y-125688832D01*
X96562679Y-125672795D01*
X96496887Y-125590316D01*
X96458217Y-125410578D01*
X96436139Y-125097598D01*
X96405292Y-124760043D01*
X96336318Y-124542461D01*
X96218879Y-124457530D01*
X96041361Y-124487298D01*
X95977510Y-124552370D01*
X95922906Y-124750867D01*
X95893194Y-125097598D01*
X95883544Y-125273387D01*
X95854465Y-125515079D01*
X95803516Y-125641566D01*
X95720167Y-125688832D01*
X95642999Y-125684422D01*
X95597695Y-125611442D01*
X95576959Y-125436160D01*
X95572000Y-125125132D01*
X95579295Y-124809629D01*
X95598665Y-124545306D01*
X95625881Y-124392772D01*
X95642207Y-124358336D01*
X95803999Y-124211195D01*
X96034435Y-124144245D01*
X96254877Y-124183633D01*
X96273469Y-124193380D01*
X96353678Y-124218685D01*
X96397198Y-124169189D01*
X96415154Y-124013392D01*
X96418667Y-123719794D01*
X96418667Y-123168296D01*
X96210468Y-123263158D01*
X96167869Y-123281373D01*
X95983943Y-123308523D01*
X95787135Y-123217058D01*
X95684329Y-123138166D01*
X95611312Y-123023499D01*
X95579175Y-122840217D01*
X95572000Y-122538081D01*
X95572784Y-122497104D01*
X95925121Y-122497104D01*
X95936348Y-122779392D01*
X96011008Y-122922145D01*
X96064736Y-122953420D01*
X96164667Y-122992740D01*
X96282851Y-122957509D01*
X96385516Y-122785604D01*
X96402993Y-122478942D01*
X96397729Y-122410982D01*
X96366150Y-122211404D01*
X96298161Y-122125019D01*
X96164667Y-122106333D01*
X96126011Y-122107039D01*
X96010458Y-122137494D01*
X95953601Y-122246297D01*
X95926341Y-122478942D01*
X95925121Y-122497104D01*
X95572784Y-122497104D01*
X95575525Y-122353928D01*
X95618514Y-122055601D01*
X95734176Y-121877996D01*
X95952120Y-121789491D01*
X96301954Y-121758464D01*
X96757333Y-121744738D01*
X96757333Y-123730910D01*
X96756902Y-124235483D01*
G37*
G36*
X87274667Y-121747606D02*
G01*
X87274667Y-122498469D01*
X87273300Y-122769450D01*
X87263277Y-123027938D01*
X87237340Y-123172508D01*
X87188359Y-123235520D01*
X87109202Y-123249333D01*
X87025750Y-123233310D01*
X86969445Y-123156971D01*
X86937797Y-122983914D01*
X86918702Y-122677833D01*
X86912220Y-122536576D01*
X86893238Y-122291843D01*
X86856371Y-122163144D01*
X86784696Y-122112656D01*
X86661285Y-122102551D01*
X86636033Y-122101692D01*
X86420231Y-122052122D01*
X86292009Y-121949426D01*
X86292140Y-121824335D01*
X86351617Y-121790847D01*
X86543278Y-121755456D01*
X86809696Y-121743428D01*
X87274667Y-121747606D01*
G37*
G36*
X91237827Y-124181178D02*
G01*
X91301178Y-124197312D01*
X91323330Y-124258029D01*
X91302451Y-124392740D01*
X91236711Y-124630859D01*
X91124279Y-125001797D01*
X91037229Y-125273375D01*
X90936084Y-125530126D01*
X90847205Y-125665317D01*
X90757160Y-125704666D01*
X90746609Y-125704288D01*
X90646794Y-125649476D01*
X90555017Y-125482460D01*
X90455463Y-125175500D01*
X90306496Y-124646333D01*
X90140549Y-125180803D01*
X90118485Y-125250511D01*
X90019159Y-125517840D01*
X89925609Y-125665989D01*
X89829895Y-125687476D01*
X89724076Y-125574817D01*
X89600214Y-125320529D01*
X89450368Y-124917130D01*
X89266599Y-124357137D01*
X89260216Y-124336074D01*
X89260664Y-124212188D01*
X89388285Y-124180666D01*
X89452129Y-124182276D01*
X89532564Y-124207266D01*
X89593088Y-124290641D01*
X89654428Y-124467599D01*
X89737312Y-124773333D01*
X89837650Y-125154333D01*
X90004066Y-124662943D01*
X90077607Y-124468260D01*
X90203056Y-124253325D01*
X90324457Y-124207017D01*
X90445383Y-124329061D01*
X90569408Y-124619179D01*
X90617091Y-124754214D01*
X90699308Y-124961330D01*
X90753577Y-125064200D01*
X90785542Y-125039089D01*
X90843828Y-124889835D01*
X90907816Y-124646854D01*
X90915545Y-124612787D01*
X90989963Y-124349671D01*
X91069968Y-124217155D01*
X91175405Y-124180666D01*
X91237827Y-124181178D01*
G37*
G36*
X84953546Y-122782872D02*
G01*
X84839223Y-123048644D01*
X84622807Y-123236631D01*
X84544107Y-123265794D01*
X84295040Y-123291967D01*
X84038566Y-123257723D01*
X83859923Y-123170456D01*
X83824838Y-123125113D01*
X83829010Y-123015571D01*
X83951110Y-122949867D01*
X84153528Y-122955532D01*
X84160529Y-122957022D01*
X84393987Y-122956142D01*
X84576379Y-122872090D01*
X84650000Y-122730966D01*
X84608511Y-122700396D01*
X84439369Y-122668883D01*
X84184333Y-122656666D01*
X84172609Y-122656666D01*
X83911484Y-122652064D01*
X83776574Y-122622942D01*
X83726196Y-122546221D01*
X83718667Y-122398818D01*
X83730518Y-122322911D01*
X84071112Y-122322911D01*
X84144637Y-122386148D01*
X84347459Y-122402666D01*
X84379265Y-122402499D01*
X84582144Y-122380980D01*
X84640735Y-122308182D01*
X84575629Y-122162425D01*
X84513966Y-122106271D01*
X84343186Y-122076242D01*
X84168948Y-122130654D01*
X84073157Y-122254500D01*
X84071112Y-122322911D01*
X83730518Y-122322911D01*
X83742593Y-122245571D01*
X83879218Y-121991694D01*
X84094723Y-121800709D01*
X84340439Y-121725333D01*
X84544000Y-121766712D01*
X84761002Y-121931234D01*
X84906730Y-122182928D01*
X84934821Y-122308182D01*
X84973480Y-122480554D01*
X84953546Y-122782872D01*
G37*
G36*
X93159000Y-124144518D02*
G01*
X93318666Y-124174607D01*
X93561167Y-124186607D01*
X93794000Y-124177976D01*
X93794000Y-124941321D01*
X93792342Y-125243644D01*
X93781755Y-125493645D01*
X93755043Y-125632347D01*
X93705062Y-125691953D01*
X93624667Y-125704666D01*
X93540130Y-125691317D01*
X93485133Y-125622086D01*
X93460812Y-125459123D01*
X93455333Y-125164700D01*
X93446682Y-124924369D01*
X93388159Y-124622479D01*
X93272779Y-124475377D01*
X93098630Y-124479392D01*
X93004687Y-124481238D01*
X92860509Y-124389733D01*
X92845431Y-124371214D01*
X92790412Y-124257951D01*
X92868111Y-124173112D01*
X92963387Y-124137845D01*
X93159000Y-124144518D01*
G37*
G36*
X95298262Y-122855844D02*
G01*
X95173545Y-123099784D01*
X94939940Y-123255260D01*
X94767956Y-123291394D01*
X94478869Y-123261074D01*
X94237930Y-123146626D01*
X94175749Y-123063032D01*
X94229634Y-122938178D01*
X94304469Y-122875134D01*
X94416945Y-122907078D01*
X94422575Y-122912532D01*
X94611586Y-122991618D01*
X94825479Y-122958693D01*
X94979333Y-122826000D01*
X95017335Y-122739014D01*
X94992608Y-122683575D01*
X94863939Y-122660971D01*
X94598655Y-122656666D01*
X94283567Y-122637684D01*
X94113700Y-122567181D01*
X94070059Y-122425087D01*
X94102560Y-122303496D01*
X94482778Y-122303496D01*
X94539432Y-122381668D01*
X94725333Y-122402666D01*
X94812922Y-122400017D01*
X94945803Y-122360137D01*
X94963215Y-122254500D01*
X94908577Y-122160977D01*
X94725333Y-122106333D01*
X94588201Y-122132256D01*
X94487452Y-122254500D01*
X94482778Y-122303496D01*
X94102560Y-122303496D01*
X94132540Y-122191333D01*
X94213908Y-122024423D01*
X94419574Y-121806956D01*
X94661042Y-121722001D01*
X94905672Y-121760465D01*
X95120821Y-121913257D01*
X95273848Y-122171285D01*
X95287537Y-122254500D01*
X95332111Y-122525457D01*
X95298262Y-122855844D01*
G37*
%LPC*%
D13*
X109950000Y-84500000D03*
D14*
X109950000Y-81960000D03*
D13*
X113800000Y-84400000D03*
D14*
X113800000Y-81860000D03*
X113800000Y-79320000D03*
D13*
X102800000Y-109270000D03*
D15*
X105340000Y-109270000D03*
X107880000Y-109270000D03*
X110420000Y-109270000D03*
X112960000Y-109270000D03*
X115500000Y-109270000D03*
X118040000Y-109270000D03*
X120580000Y-109270000D03*
X123120000Y-109270000D03*
X125660000Y-109270000D03*
X128200000Y-109270000D03*
X130740000Y-109270000D03*
X133280000Y-109270000D03*
X135820000Y-109270000D03*
X138360000Y-109270000D03*
X140900000Y-109270000D03*
X143440000Y-109270000D03*
X145980000Y-109270000D03*
X148520000Y-109270000D03*
X151060000Y-109270000D03*
X151060000Y-94030000D03*
X148520000Y-94030000D03*
X145980000Y-94030000D03*
X143440000Y-94030000D03*
X140900000Y-94030000D03*
X138360000Y-94030000D03*
X135820000Y-94030000D03*
X133280000Y-94030000D03*
X130740000Y-94030000D03*
X128200000Y-94030000D03*
X125660000Y-94030000D03*
X123120000Y-94030000D03*
X120580000Y-94030000D03*
X118040000Y-94030000D03*
X115500000Y-94030000D03*
X112960000Y-94030000D03*
X110420000Y-94030000D03*
X107880000Y-94030000D03*
X105340000Y-94030000D03*
X102800000Y-94030000D03*
D16*
X161348350Y-96348350D03*
X161348350Y-99000000D03*
X162674175Y-95799175D03*
X164549175Y-97674175D03*
D17*
X162674175Y-97674175D03*
D16*
X162674175Y-99549175D03*
X164000000Y-96348350D03*
X164000000Y-99000000D03*
X160799175Y-97674175D03*
X105125000Y-80645000D03*
X103250000Y-78770000D03*
X104575825Y-81970825D03*
D17*
X103250000Y-80645000D03*
D16*
X101924175Y-79319175D03*
X101924175Y-81970825D03*
X103250000Y-82520000D03*
X101375000Y-80645000D03*
X104575825Y-79319175D03*
D17*
X103250000Y-122325000D03*
D16*
X101924175Y-123650825D03*
X103250000Y-120450000D03*
X101375000Y-122325000D03*
X104575825Y-120999175D03*
X104575825Y-123650825D03*
X105125000Y-122325000D03*
X103250000Y-124200000D03*
X101924175Y-120999175D03*
D18*
X78740000Y-120650000D03*
D19*
X76740000Y-120650000D03*
X78740000Y-118650000D03*
X76740000Y-118650000D03*
X78740000Y-116650000D03*
X76740000Y-116650000D03*
X78740000Y-114650000D03*
X76740000Y-114650000D03*
X78740000Y-112650000D03*
X76740000Y-112650000D03*
X78740000Y-110650000D03*
X76740000Y-110650000D03*
X78740000Y-108650000D03*
X76740000Y-108650000D03*
X78740000Y-106650000D03*
X76740000Y-106650000D03*
X78740000Y-104650000D03*
X76740000Y-104650000D03*
X78740000Y-102650000D03*
X76740000Y-102650000D03*
X78740000Y-100650000D03*
X76740000Y-100650000D03*
X78740000Y-98650000D03*
X76740000Y-98650000D03*
X78740000Y-96650000D03*
X76740000Y-96650000D03*
X78740000Y-94650000D03*
X76740000Y-94650000D03*
X78740000Y-92650000D03*
X76740000Y-92650000D03*
X78740000Y-90650000D03*
X76740000Y-90650000D03*
X78740000Y-88650000D03*
X76740000Y-88650000D03*
X78740000Y-86650000D03*
X76740000Y-86650000D03*
X78740000Y-84650000D03*
X76740000Y-84650000D03*
X78740000Y-82650000D03*
X76740000Y-82650000D03*
M02*
