G04 #@! TF.GenerationSoftware,KiCad,Pcbnew,(6.0.4)*
G04 #@! TF.CreationDate,2022-09-09T10:41:32-05:00*
G04 #@! TF.ProjectId,v2-PowerBook-BLUESCSI-dehij,76322d50-6f77-4657-9242-6f6f6b2d424c,rev?*
G04 #@! TF.SameCoordinates,Original*
G04 #@! TF.FileFunction,Legend,Top*
G04 #@! TF.FilePolarity,Positive*
%FSLAX46Y46*%
G04 Gerber Fmt 4.6, Leading zero omitted, Abs format (unit mm)*
G04 Created by KiCad (PCBNEW (6.0.4)) date 2022-09-09 10:41:32*
%MOMM*%
%LPD*%
G01*
G04 APERTURE LIST*
G04 Aperture macros list*
%AMRoundRect*
0 Rectangle with rounded corners*
0 $1 Rounding radius*
0 $2 $3 $4 $5 $6 $7 $8 $9 X,Y pos of 4 corners*
0 Add a 4 corners polygon primitive as box body*
4,1,4,$2,$3,$4,$5,$6,$7,$8,$9,$2,$3,0*
0 Add four circle primitives for the rounded corners*
1,1,$1+$1,$2,$3*
1,1,$1+$1,$4,$5*
1,1,$1+$1,$6,$7*
1,1,$1+$1,$8,$9*
0 Add four rect primitives between the rounded corners*
20,1,$1+$1,$2,$3,$4,$5,0*
20,1,$1+$1,$4,$5,$6,$7,0*
20,1,$1+$1,$6,$7,$8,$9,0*
20,1,$1+$1,$8,$9,$2,$3,0*%
G04 Aperture macros list end*
%ADD10C,0.120000*%
%ADD11C,0.150000*%
%ADD12C,0.200000*%
%ADD13C,0.300000*%
%ADD14C,0.100000*%
%ADD15R,1.100000X0.850000*%
%ADD16R,1.100000X0.750000*%
%ADD17R,1.000000X1.200000*%
%ADD18R,1.350000X1.550000*%
%ADD19R,1.350000X1.900000*%
%ADD20R,1.800000X1.170000*%
%ADD21R,1.700000X1.700000*%
%ADD22O,1.700000X1.700000*%
%ADD23RoundRect,0.250000X0.400000X0.625000X-0.400000X0.625000X-0.400000X-0.625000X0.400000X-0.625000X0*%
%ADD24RoundRect,0.250000X-0.400000X-0.625000X0.400000X-0.625000X0.400000X0.625000X-0.400000X0.625000X0*%
%ADD25C,1.700000*%
%ADD26C,0.800000*%
%ADD27C,5.000000*%
%ADD28R,1.350000X1.350000*%
%ADD29O,1.350000X1.350000*%
G04 APERTURE END LIST*
D10*
X77760000Y-103630000D02*
X80980000Y-103630000D01*
X80980000Y-103630000D02*
X80980000Y-105690000D01*
X80980000Y-105690000D02*
X77760000Y-105690000D01*
X77760000Y-105690000D02*
X77760000Y-103630000D01*
D11*
X92309523Y-78847619D02*
X92357142Y-78800000D01*
X92452380Y-78752380D01*
X92690476Y-78752380D01*
X92785714Y-78800000D01*
X92833333Y-78847619D01*
X92880952Y-78942857D01*
X92880952Y-79038095D01*
X92833333Y-79180952D01*
X92261904Y-79752380D01*
X92880952Y-79752380D01*
X93261904Y-78847619D02*
X93309523Y-78800000D01*
X93404761Y-78752380D01*
X93642857Y-78752380D01*
X93738095Y-78800000D01*
X93785714Y-78847619D01*
X93833333Y-78942857D01*
X93833333Y-79038095D01*
X93785714Y-79180952D01*
X93214285Y-79752380D01*
X93833333Y-79752380D01*
X94452380Y-78752380D02*
X94547619Y-78752380D01*
X94642857Y-78800000D01*
X94690476Y-78847619D01*
X94738095Y-78942857D01*
X94785714Y-79133333D01*
X94785714Y-79371428D01*
X94738095Y-79561904D01*
X94690476Y-79657142D01*
X94642857Y-79704761D01*
X94547619Y-79752380D01*
X94452380Y-79752380D01*
X94357142Y-79704761D01*
X94309523Y-79657142D01*
X94261904Y-79561904D01*
X94214285Y-79371428D01*
X94214285Y-79133333D01*
X94261904Y-78942857D01*
X94309523Y-78847619D01*
X94357142Y-78800000D01*
X94452380Y-78752380D01*
X95928571Y-79752380D02*
X96166666Y-79752380D01*
X96166666Y-79561904D01*
X96071428Y-79514285D01*
X95976190Y-79419047D01*
X95928571Y-79276190D01*
X95928571Y-79038095D01*
X95976190Y-78895238D01*
X96071428Y-78800000D01*
X96214285Y-78752380D01*
X96404761Y-78752380D01*
X96547619Y-78800000D01*
X96642857Y-78895238D01*
X96690476Y-79038095D01*
X96690476Y-79276190D01*
X96642857Y-79419047D01*
X96547619Y-79514285D01*
X96452380Y-79561904D01*
X96452380Y-79752380D01*
X96690476Y-79752380D01*
X116314285Y-82521428D02*
X116342857Y-82550000D01*
X116371428Y-82635714D01*
X116371428Y-82692857D01*
X116342857Y-82778571D01*
X116285714Y-82835714D01*
X116228571Y-82864285D01*
X116114285Y-82892857D01*
X116028571Y-82892857D01*
X115914285Y-82864285D01*
X115857142Y-82835714D01*
X115800000Y-82778571D01*
X115771428Y-82692857D01*
X115771428Y-82635714D01*
X115800000Y-82550000D01*
X115828571Y-82521428D01*
X115771428Y-82150000D02*
X115771428Y-82035714D01*
X115800000Y-81978571D01*
X115857142Y-81921428D01*
X115971428Y-81892857D01*
X116171428Y-81892857D01*
X116285714Y-81921428D01*
X116342857Y-81978571D01*
X116371428Y-82035714D01*
X116371428Y-82150000D01*
X116342857Y-82207142D01*
X116285714Y-82264285D01*
X116171428Y-82292857D01*
X115971428Y-82292857D01*
X115857142Y-82264285D01*
X115800000Y-82207142D01*
X115771428Y-82150000D01*
X116371428Y-81635714D02*
X115771428Y-81635714D01*
X116200000Y-81435714D01*
X115771428Y-81235714D01*
X116371428Y-81235714D01*
X80511904Y-105052380D02*
X79988095Y-104385714D01*
X80511904Y-104385714D02*
X79988095Y-105052380D01*
X139377619Y-125112380D02*
X139472857Y-125112380D01*
X139568095Y-125160000D01*
X139615714Y-125207619D01*
X139663333Y-125302857D01*
X139710952Y-125493333D01*
X139710952Y-125731428D01*
X139663333Y-125921904D01*
X139615714Y-126017142D01*
X139568095Y-126064761D01*
X139472857Y-126112380D01*
X139377619Y-126112380D01*
X139282380Y-126064761D01*
X139234761Y-126017142D01*
X139187142Y-125921904D01*
X139139523Y-125731428D01*
X139139523Y-125493333D01*
X139187142Y-125302857D01*
X139234761Y-125207619D01*
X139282380Y-125160000D01*
X139377619Y-125112380D01*
X140187142Y-126112380D02*
X140377619Y-126112380D01*
X140472857Y-126064761D01*
X140520476Y-126017142D01*
X140615714Y-125874285D01*
X140663333Y-125683809D01*
X140663333Y-125302857D01*
X140615714Y-125207619D01*
X140568095Y-125160000D01*
X140472857Y-125112380D01*
X140282380Y-125112380D01*
X140187142Y-125160000D01*
X140139523Y-125207619D01*
X140091904Y-125302857D01*
X140091904Y-125540952D01*
X140139523Y-125636190D01*
X140187142Y-125683809D01*
X140282380Y-125731428D01*
X140472857Y-125731428D01*
X140568095Y-125683809D01*
X140615714Y-125636190D01*
X140663333Y-125540952D01*
X141806190Y-125064761D02*
X140949047Y-126350476D01*
X142091904Y-125207619D02*
X142139523Y-125160000D01*
X142234761Y-125112380D01*
X142472857Y-125112380D01*
X142568095Y-125160000D01*
X142615714Y-125207619D01*
X142663333Y-125302857D01*
X142663333Y-125398095D01*
X142615714Y-125540952D01*
X142044285Y-126112380D01*
X142663333Y-126112380D01*
X143282380Y-125112380D02*
X143377619Y-125112380D01*
X143472857Y-125160000D01*
X143520476Y-125207619D01*
X143568095Y-125302857D01*
X143615714Y-125493333D01*
X143615714Y-125731428D01*
X143568095Y-125921904D01*
X143520476Y-126017142D01*
X143472857Y-126064761D01*
X143377619Y-126112380D01*
X143282380Y-126112380D01*
X143187142Y-126064761D01*
X143139523Y-126017142D01*
X143091904Y-125921904D01*
X143044285Y-125731428D01*
X143044285Y-125493333D01*
X143091904Y-125302857D01*
X143139523Y-125207619D01*
X143187142Y-125160000D01*
X143282380Y-125112380D01*
X143996666Y-125207619D02*
X144044285Y-125160000D01*
X144139523Y-125112380D01*
X144377619Y-125112380D01*
X144472857Y-125160000D01*
X144520476Y-125207619D01*
X144568095Y-125302857D01*
X144568095Y-125398095D01*
X144520476Y-125540952D01*
X143949047Y-126112380D01*
X144568095Y-126112380D01*
X144949047Y-125207619D02*
X144996666Y-125160000D01*
X145091904Y-125112380D01*
X145330000Y-125112380D01*
X145425238Y-125160000D01*
X145472857Y-125207619D01*
X145520476Y-125302857D01*
X145520476Y-125398095D01*
X145472857Y-125540952D01*
X144901428Y-126112380D01*
X145520476Y-126112380D01*
X115771428Y-80624285D02*
X115771428Y-80281428D01*
X116371428Y-80452857D02*
X115771428Y-80452857D01*
X116371428Y-80081428D02*
X115771428Y-80081428D01*
X115771428Y-79852857D01*
X115800000Y-79795714D01*
X115828571Y-79767142D01*
X115885714Y-79738571D01*
X115971428Y-79738571D01*
X116028571Y-79767142D01*
X116057142Y-79795714D01*
X116085714Y-79852857D01*
X116085714Y-80081428D01*
X115771428Y-79538571D02*
X116371428Y-79395714D01*
X115942857Y-79281428D01*
X116371428Y-79167142D01*
X115771428Y-79024285D01*
X116371428Y-78452857D02*
X116085714Y-78652857D01*
X116371428Y-78795714D02*
X115771428Y-78795714D01*
X115771428Y-78567142D01*
X115800000Y-78510000D01*
X115828571Y-78481428D01*
X115885714Y-78452857D01*
X115971428Y-78452857D01*
X116028571Y-78481428D01*
X116057142Y-78510000D01*
X116085714Y-78567142D01*
X116085714Y-78795714D01*
D12*
X136185238Y-123962380D02*
X136185238Y-122962380D01*
X136613809Y-123962380D02*
X136613809Y-123438571D01*
X136566190Y-123343333D01*
X136470952Y-123295714D01*
X136328095Y-123295714D01*
X136232857Y-123343333D01*
X136185238Y-123390952D01*
X136947142Y-123295714D02*
X137328095Y-123295714D01*
X137090000Y-122962380D02*
X137090000Y-123819523D01*
X137137619Y-123914761D01*
X137232857Y-123962380D01*
X137328095Y-123962380D01*
X137518571Y-123295714D02*
X137899523Y-123295714D01*
X137661428Y-122962380D02*
X137661428Y-123819523D01*
X137709047Y-123914761D01*
X137804285Y-123962380D01*
X137899523Y-123962380D01*
X138232857Y-123295714D02*
X138232857Y-124295714D01*
X138232857Y-123343333D02*
X138328095Y-123295714D01*
X138518571Y-123295714D01*
X138613809Y-123343333D01*
X138661428Y-123390952D01*
X138709047Y-123486190D01*
X138709047Y-123771904D01*
X138661428Y-123867142D01*
X138613809Y-123914761D01*
X138518571Y-123962380D01*
X138328095Y-123962380D01*
X138232857Y-123914761D01*
X139090000Y-123914761D02*
X139185238Y-123962380D01*
X139375714Y-123962380D01*
X139470952Y-123914761D01*
X139518571Y-123819523D01*
X139518571Y-123771904D01*
X139470952Y-123676666D01*
X139375714Y-123629047D01*
X139232857Y-123629047D01*
X139137619Y-123581428D01*
X139090000Y-123486190D01*
X139090000Y-123438571D01*
X139137619Y-123343333D01*
X139232857Y-123295714D01*
X139375714Y-123295714D01*
X139470952Y-123343333D01*
X139947142Y-123867142D02*
X139994761Y-123914761D01*
X139947142Y-123962380D01*
X139899523Y-123914761D01*
X139947142Y-123867142D01*
X139947142Y-123962380D01*
X139947142Y-123343333D02*
X139994761Y-123390952D01*
X139947142Y-123438571D01*
X139899523Y-123390952D01*
X139947142Y-123343333D01*
X139947142Y-123438571D01*
X141137619Y-122914761D02*
X140280476Y-124200476D01*
X142185238Y-122914761D02*
X141328095Y-124200476D01*
X142947142Y-123295714D02*
X142947142Y-124105238D01*
X142899523Y-124200476D01*
X142851904Y-124248095D01*
X142756666Y-124295714D01*
X142613809Y-124295714D01*
X142518571Y-124248095D01*
X142947142Y-123914761D02*
X142851904Y-123962380D01*
X142661428Y-123962380D01*
X142566190Y-123914761D01*
X142518571Y-123867142D01*
X142470952Y-123771904D01*
X142470952Y-123486190D01*
X142518571Y-123390952D01*
X142566190Y-123343333D01*
X142661428Y-123295714D01*
X142851904Y-123295714D01*
X142947142Y-123343333D01*
X143423333Y-123962380D02*
X143423333Y-123295714D01*
X143423333Y-122962380D02*
X143375714Y-123010000D01*
X143423333Y-123057619D01*
X143470952Y-123010000D01*
X143423333Y-122962380D01*
X143423333Y-123057619D01*
X143756666Y-123295714D02*
X144137619Y-123295714D01*
X143899523Y-122962380D02*
X143899523Y-123819523D01*
X143947142Y-123914761D01*
X144042380Y-123962380D01*
X144137619Y-123962380D01*
X144470952Y-123962380D02*
X144470952Y-122962380D01*
X144899523Y-123962380D02*
X144899523Y-123438571D01*
X144851904Y-123343333D01*
X144756666Y-123295714D01*
X144613809Y-123295714D01*
X144518571Y-123343333D01*
X144470952Y-123390952D01*
X145804285Y-123295714D02*
X145804285Y-123962380D01*
X145375714Y-123295714D02*
X145375714Y-123819523D01*
X145423333Y-123914761D01*
X145518571Y-123962380D01*
X145661428Y-123962380D01*
X145756666Y-123914761D01*
X145804285Y-123867142D01*
X146280476Y-123962380D02*
X146280476Y-122962380D01*
X146280476Y-123343333D02*
X146375714Y-123295714D01*
X146566190Y-123295714D01*
X146661428Y-123343333D01*
X146709047Y-123390952D01*
X146756666Y-123486190D01*
X146756666Y-123771904D01*
X146709047Y-123867142D01*
X146661428Y-123914761D01*
X146566190Y-123962380D01*
X146375714Y-123962380D01*
X146280476Y-123914761D01*
X147185238Y-123867142D02*
X147232857Y-123914761D01*
X147185238Y-123962380D01*
X147137619Y-123914761D01*
X147185238Y-123867142D01*
X147185238Y-123962380D01*
X148090000Y-123914761D02*
X147994761Y-123962380D01*
X147804285Y-123962380D01*
X147709047Y-123914761D01*
X147661428Y-123867142D01*
X147613809Y-123771904D01*
X147613809Y-123486190D01*
X147661428Y-123390952D01*
X147709047Y-123343333D01*
X147804285Y-123295714D01*
X147994761Y-123295714D01*
X148090000Y-123343333D01*
X148661428Y-123962380D02*
X148566190Y-123914761D01*
X148518571Y-123867142D01*
X148470952Y-123771904D01*
X148470952Y-123486190D01*
X148518571Y-123390952D01*
X148566190Y-123343333D01*
X148661428Y-123295714D01*
X148804285Y-123295714D01*
X148899523Y-123343333D01*
X148947142Y-123390952D01*
X148994761Y-123486190D01*
X148994761Y-123771904D01*
X148947142Y-123867142D01*
X148899523Y-123914761D01*
X148804285Y-123962380D01*
X148661428Y-123962380D01*
X149423333Y-123962380D02*
X149423333Y-123295714D01*
X149423333Y-123390952D02*
X149470952Y-123343333D01*
X149566190Y-123295714D01*
X149709047Y-123295714D01*
X149804285Y-123343333D01*
X149851904Y-123438571D01*
X149851904Y-123962380D01*
X149851904Y-123438571D02*
X149899523Y-123343333D01*
X149994761Y-123295714D01*
X150137619Y-123295714D01*
X150232857Y-123343333D01*
X150280476Y-123438571D01*
X150280476Y-123962380D01*
X151470952Y-122914761D02*
X150613809Y-124200476D01*
X152185238Y-123914761D02*
X152090000Y-123962380D01*
X151899523Y-123962380D01*
X151804285Y-123914761D01*
X151756666Y-123819523D01*
X151756666Y-123438571D01*
X151804285Y-123343333D01*
X151899523Y-123295714D01*
X152090000Y-123295714D01*
X152185238Y-123343333D01*
X152232857Y-123438571D01*
X152232857Y-123533809D01*
X151756666Y-123629047D01*
X152661428Y-123962380D02*
X152661428Y-123295714D01*
X152661428Y-123486190D02*
X152709047Y-123390952D01*
X152756666Y-123343333D01*
X152851904Y-123295714D01*
X152947142Y-123295714D01*
X153280476Y-123962380D02*
X153280476Y-123295714D01*
X153280476Y-122962380D02*
X153232857Y-123010000D01*
X153280476Y-123057619D01*
X153328095Y-123010000D01*
X153280476Y-122962380D01*
X153280476Y-123057619D01*
X154185238Y-123914761D02*
X154090000Y-123962380D01*
X153899523Y-123962380D01*
X153804285Y-123914761D01*
X153756666Y-123867142D01*
X153709047Y-123771904D01*
X153709047Y-123486190D01*
X153756666Y-123390952D01*
X153804285Y-123343333D01*
X153899523Y-123295714D01*
X154090000Y-123295714D01*
X154185238Y-123343333D01*
X154613809Y-123962380D02*
X154613809Y-122962380D01*
X155042380Y-123962380D02*
X155042380Y-123438571D01*
X154994761Y-123343333D01*
X154899523Y-123295714D01*
X154756666Y-123295714D01*
X154661428Y-123343333D01*
X154613809Y-123390952D01*
X155899523Y-123914761D02*
X155804285Y-123962380D01*
X155613809Y-123962380D01*
X155518571Y-123914761D01*
X155470952Y-123819523D01*
X155470952Y-123438571D01*
X155518571Y-123343333D01*
X155613809Y-123295714D01*
X155804285Y-123295714D01*
X155899523Y-123343333D01*
X155947142Y-123438571D01*
X155947142Y-123533809D01*
X155470952Y-123629047D01*
X156518571Y-123962380D02*
X156423333Y-123914761D01*
X156375714Y-123819523D01*
X156375714Y-122962380D01*
X157328095Y-123295714D02*
X157328095Y-124105238D01*
X157280476Y-124200476D01*
X157232857Y-124248095D01*
X157137619Y-124295714D01*
X156994761Y-124295714D01*
X156899523Y-124248095D01*
X157328095Y-123914761D02*
X157232857Y-123962380D01*
X157042380Y-123962380D01*
X156947142Y-123914761D01*
X156899523Y-123867142D01*
X156851904Y-123771904D01*
X156851904Y-123486190D01*
X156899523Y-123390952D01*
X156947142Y-123343333D01*
X157042380Y-123295714D01*
X157232857Y-123295714D01*
X157328095Y-123343333D01*
X158185238Y-123914761D02*
X158090000Y-123962380D01*
X157899523Y-123962380D01*
X157804285Y-123914761D01*
X157756666Y-123819523D01*
X157756666Y-123438571D01*
X157804285Y-123343333D01*
X157899523Y-123295714D01*
X158090000Y-123295714D01*
X158185238Y-123343333D01*
X158232857Y-123438571D01*
X158232857Y-123533809D01*
X157756666Y-123629047D01*
X158613809Y-123914761D02*
X158709047Y-123962380D01*
X158899523Y-123962380D01*
X158994761Y-123914761D01*
X159042380Y-123819523D01*
X159042380Y-123771904D01*
X158994761Y-123676666D01*
X158899523Y-123629047D01*
X158756666Y-123629047D01*
X158661428Y-123581428D01*
X158613809Y-123486190D01*
X158613809Y-123438571D01*
X158661428Y-123343333D01*
X158756666Y-123295714D01*
X158899523Y-123295714D01*
X158994761Y-123343333D01*
X159613809Y-123962380D02*
X159518571Y-123914761D01*
X159470952Y-123867142D01*
X159423333Y-123771904D01*
X159423333Y-123486190D01*
X159470952Y-123390952D01*
X159518571Y-123343333D01*
X159613809Y-123295714D01*
X159756666Y-123295714D01*
X159851904Y-123343333D01*
X159899523Y-123390952D01*
X159947142Y-123486190D01*
X159947142Y-123771904D01*
X159899523Y-123867142D01*
X159851904Y-123914761D01*
X159756666Y-123962380D01*
X159613809Y-123962380D01*
X160375714Y-123295714D02*
X160375714Y-123962380D01*
X160375714Y-123390952D02*
X160423333Y-123343333D01*
X160518571Y-123295714D01*
X160661428Y-123295714D01*
X160756666Y-123343333D01*
X160804285Y-123438571D01*
X160804285Y-123962380D01*
X161994761Y-122914761D02*
X161137619Y-124200476D01*
X162328095Y-123962380D02*
X162328095Y-122962380D01*
X162328095Y-123343333D02*
X162423333Y-123295714D01*
X162613809Y-123295714D01*
X162709047Y-123343333D01*
X162756666Y-123390952D01*
X162804285Y-123486190D01*
X162804285Y-123771904D01*
X162756666Y-123867142D01*
X162709047Y-123914761D01*
X162613809Y-123962380D01*
X162423333Y-123962380D01*
X162328095Y-123914761D01*
X163375714Y-123962380D02*
X163280476Y-123914761D01*
X163232857Y-123819523D01*
X163232857Y-122962380D01*
X164185238Y-123295714D02*
X164185238Y-123962380D01*
X163756666Y-123295714D02*
X163756666Y-123819523D01*
X163804285Y-123914761D01*
X163899523Y-123962380D01*
X164042380Y-123962380D01*
X164137619Y-123914761D01*
X164185238Y-123867142D01*
X165042380Y-123914761D02*
X164947142Y-123962380D01*
X164756666Y-123962380D01*
X164661428Y-123914761D01*
X164613809Y-123819523D01*
X164613809Y-123438571D01*
X164661428Y-123343333D01*
X164756666Y-123295714D01*
X164947142Y-123295714D01*
X165042380Y-123343333D01*
X165090000Y-123438571D01*
X165090000Y-123533809D01*
X164613809Y-123629047D01*
X165470952Y-123914761D02*
X165566190Y-123962380D01*
X165756666Y-123962380D01*
X165851904Y-123914761D01*
X165899523Y-123819523D01*
X165899523Y-123771904D01*
X165851904Y-123676666D01*
X165756666Y-123629047D01*
X165613809Y-123629047D01*
X165518571Y-123581428D01*
X165470952Y-123486190D01*
X165470952Y-123438571D01*
X165518571Y-123343333D01*
X165613809Y-123295714D01*
X165756666Y-123295714D01*
X165851904Y-123343333D01*
X166756666Y-123914761D02*
X166661428Y-123962380D01*
X166470952Y-123962380D01*
X166375714Y-123914761D01*
X166328095Y-123867142D01*
X166280476Y-123771904D01*
X166280476Y-123486190D01*
X166328095Y-123390952D01*
X166375714Y-123343333D01*
X166470952Y-123295714D01*
X166661428Y-123295714D01*
X166756666Y-123343333D01*
X167137619Y-123914761D02*
X167232857Y-123962380D01*
X167423333Y-123962380D01*
X167518571Y-123914761D01*
X167566190Y-123819523D01*
X167566190Y-123771904D01*
X167518571Y-123676666D01*
X167423333Y-123629047D01*
X167280476Y-123629047D01*
X167185238Y-123581428D01*
X167137619Y-123486190D01*
X167137619Y-123438571D01*
X167185238Y-123343333D01*
X167280476Y-123295714D01*
X167423333Y-123295714D01*
X167518571Y-123343333D01*
X167994761Y-123962380D02*
X167994761Y-123295714D01*
X167994761Y-122962380D02*
X167947142Y-123010000D01*
X167994761Y-123057619D01*
X168042380Y-123010000D01*
X167994761Y-122962380D01*
X167994761Y-123057619D01*
D11*
X115771428Y-85390000D02*
X116371428Y-85190000D01*
X115771428Y-84990000D01*
X116314285Y-84447142D02*
X116342857Y-84475714D01*
X116371428Y-84561428D01*
X116371428Y-84618571D01*
X116342857Y-84704285D01*
X116285714Y-84761428D01*
X116228571Y-84790000D01*
X116114285Y-84818571D01*
X116028571Y-84818571D01*
X115914285Y-84790000D01*
X115857142Y-84761428D01*
X115800000Y-84704285D01*
X115771428Y-84618571D01*
X115771428Y-84561428D01*
X115800000Y-84475714D01*
X115828571Y-84447142D01*
X116314285Y-83847142D02*
X116342857Y-83875714D01*
X116371428Y-83961428D01*
X116371428Y-84018571D01*
X116342857Y-84104285D01*
X116285714Y-84161428D01*
X116228571Y-84190000D01*
X116114285Y-84218571D01*
X116028571Y-84218571D01*
X115914285Y-84190000D01*
X115857142Y-84161428D01*
X115800000Y-84104285D01*
X115771428Y-84018571D01*
X115771428Y-83961428D01*
X115800000Y-83875714D01*
X115828571Y-83847142D01*
X107388095Y-76402380D02*
X107959523Y-76402380D01*
X107673809Y-77402380D02*
X107673809Y-76402380D01*
X108673809Y-77354761D02*
X108578571Y-77402380D01*
X108388095Y-77402380D01*
X108292857Y-77354761D01*
X108245238Y-77259523D01*
X108245238Y-76878571D01*
X108292857Y-76783333D01*
X108388095Y-76735714D01*
X108578571Y-76735714D01*
X108673809Y-76783333D01*
X108721428Y-76878571D01*
X108721428Y-76973809D01*
X108245238Y-77069047D01*
X109150000Y-77402380D02*
X109150000Y-76735714D01*
X109150000Y-76926190D02*
X109197619Y-76830952D01*
X109245238Y-76783333D01*
X109340476Y-76735714D01*
X109435714Y-76735714D01*
X109769047Y-77402380D02*
X109769047Y-76735714D01*
X109769047Y-76830952D02*
X109816666Y-76783333D01*
X109911904Y-76735714D01*
X110054761Y-76735714D01*
X110150000Y-76783333D01*
X110197619Y-76878571D01*
X110197619Y-77402380D01*
X110197619Y-76878571D02*
X110245238Y-76783333D01*
X110340476Y-76735714D01*
X110483333Y-76735714D01*
X110578571Y-76783333D01*
X110626190Y-76878571D01*
X110626190Y-77402380D01*
X111102380Y-77402380D02*
X111102380Y-76735714D01*
X111102380Y-76402380D02*
X111054761Y-76450000D01*
X111102380Y-76497619D01*
X111150000Y-76450000D01*
X111102380Y-76402380D01*
X111102380Y-76497619D01*
X111578571Y-76735714D02*
X111578571Y-77402380D01*
X111578571Y-76830952D02*
X111626190Y-76783333D01*
X111721428Y-76735714D01*
X111864285Y-76735714D01*
X111959523Y-76783333D01*
X112007142Y-76878571D01*
X112007142Y-77402380D01*
X112911904Y-77402380D02*
X112911904Y-76878571D01*
X112864285Y-76783333D01*
X112769047Y-76735714D01*
X112578571Y-76735714D01*
X112483333Y-76783333D01*
X112911904Y-77354761D02*
X112816666Y-77402380D01*
X112578571Y-77402380D01*
X112483333Y-77354761D01*
X112435714Y-77259523D01*
X112435714Y-77164285D01*
X112483333Y-77069047D01*
X112578571Y-77021428D01*
X112816666Y-77021428D01*
X112911904Y-76973809D01*
X113245238Y-76735714D02*
X113626190Y-76735714D01*
X113388095Y-76402380D02*
X113388095Y-77259523D01*
X113435714Y-77354761D01*
X113530952Y-77402380D01*
X113626190Y-77402380D01*
X113959523Y-77402380D02*
X113959523Y-76735714D01*
X113959523Y-76402380D02*
X113911904Y-76450000D01*
X113959523Y-76497619D01*
X114007142Y-76450000D01*
X113959523Y-76402380D01*
X113959523Y-76497619D01*
X114578571Y-77402380D02*
X114483333Y-77354761D01*
X114435714Y-77307142D01*
X114388095Y-77211904D01*
X114388095Y-76926190D01*
X114435714Y-76830952D01*
X114483333Y-76783333D01*
X114578571Y-76735714D01*
X114721428Y-76735714D01*
X114816666Y-76783333D01*
X114864285Y-76830952D01*
X114911904Y-76926190D01*
X114911904Y-77211904D01*
X114864285Y-77307142D01*
X114816666Y-77354761D01*
X114721428Y-77402380D01*
X114578571Y-77402380D01*
X115340476Y-76735714D02*
X115340476Y-77402380D01*
X115340476Y-76830952D02*
X115388095Y-76783333D01*
X115483333Y-76735714D01*
X115626190Y-76735714D01*
X115721428Y-76783333D01*
X115769047Y-76878571D01*
X115769047Y-77402380D01*
D13*
X119355714Y-79422857D02*
X119570000Y-79494285D01*
X119641428Y-79565714D01*
X119712857Y-79708571D01*
X119712857Y-79922857D01*
X119641428Y-80065714D01*
X119570000Y-80137142D01*
X119427142Y-80208571D01*
X118855714Y-80208571D01*
X118855714Y-78708571D01*
X119355714Y-78708571D01*
X119498571Y-78780000D01*
X119570000Y-78851428D01*
X119641428Y-78994285D01*
X119641428Y-79137142D01*
X119570000Y-79280000D01*
X119498571Y-79351428D01*
X119355714Y-79422857D01*
X118855714Y-79422857D01*
X120570000Y-80208571D02*
X120427142Y-80137142D01*
X120355714Y-79994285D01*
X120355714Y-78708571D01*
X121784285Y-79208571D02*
X121784285Y-80208571D01*
X121141428Y-79208571D02*
X121141428Y-79994285D01*
X121212857Y-80137142D01*
X121355714Y-80208571D01*
X121570000Y-80208571D01*
X121712857Y-80137142D01*
X121784285Y-80065714D01*
X123070000Y-80137142D02*
X122927142Y-80208571D01*
X122641428Y-80208571D01*
X122498571Y-80137142D01*
X122427142Y-79994285D01*
X122427142Y-79422857D01*
X122498571Y-79280000D01*
X122641428Y-79208571D01*
X122927142Y-79208571D01*
X123070000Y-79280000D01*
X123141428Y-79422857D01*
X123141428Y-79565714D01*
X122427142Y-79708571D01*
X123712857Y-80137142D02*
X123927142Y-80208571D01*
X124284285Y-80208571D01*
X124427142Y-80137142D01*
X124498571Y-80065714D01*
X124570000Y-79922857D01*
X124570000Y-79780000D01*
X124498571Y-79637142D01*
X124427142Y-79565714D01*
X124284285Y-79494285D01*
X123998571Y-79422857D01*
X123855714Y-79351428D01*
X123784285Y-79280000D01*
X123712857Y-79137142D01*
X123712857Y-78994285D01*
X123784285Y-78851428D01*
X123855714Y-78780000D01*
X123998571Y-78708571D01*
X124355714Y-78708571D01*
X124570000Y-78780000D01*
X126070000Y-80065714D02*
X125998571Y-80137142D01*
X125784285Y-80208571D01*
X125641428Y-80208571D01*
X125427142Y-80137142D01*
X125284285Y-79994285D01*
X125212857Y-79851428D01*
X125141428Y-79565714D01*
X125141428Y-79351428D01*
X125212857Y-79065714D01*
X125284285Y-78922857D01*
X125427142Y-78780000D01*
X125641428Y-78708571D01*
X125784285Y-78708571D01*
X125998571Y-78780000D01*
X126070000Y-78851428D01*
X126641428Y-80137142D02*
X126855714Y-80208571D01*
X127212857Y-80208571D01*
X127355714Y-80137142D01*
X127427142Y-80065714D01*
X127498571Y-79922857D01*
X127498571Y-79780000D01*
X127427142Y-79637142D01*
X127355714Y-79565714D01*
X127212857Y-79494285D01*
X126927142Y-79422857D01*
X126784285Y-79351428D01*
X126712857Y-79280000D01*
X126641428Y-79137142D01*
X126641428Y-78994285D01*
X126712857Y-78851428D01*
X126784285Y-78780000D01*
X126927142Y-78708571D01*
X127284285Y-78708571D01*
X127498571Y-78780000D01*
X128141428Y-80208571D02*
X128141428Y-78708571D01*
X129998571Y-80208571D02*
X129998571Y-78708571D01*
X130570000Y-78708571D01*
X130712857Y-78780000D01*
X130784285Y-78851428D01*
X130855714Y-78994285D01*
X130855714Y-79208571D01*
X130784285Y-79351428D01*
X130712857Y-79422857D01*
X130570000Y-79494285D01*
X129998571Y-79494285D01*
X131712857Y-80208571D02*
X131570000Y-80137142D01*
X131498571Y-80065714D01*
X131427142Y-79922857D01*
X131427142Y-79494285D01*
X131498571Y-79351428D01*
X131570000Y-79280000D01*
X131712857Y-79208571D01*
X131927142Y-79208571D01*
X132070000Y-79280000D01*
X132141428Y-79351428D01*
X132212857Y-79494285D01*
X132212857Y-79922857D01*
X132141428Y-80065714D01*
X132070000Y-80137142D01*
X131927142Y-80208571D01*
X131712857Y-80208571D01*
X132712857Y-79208571D02*
X132998571Y-80208571D01*
X133284285Y-79494285D01*
X133570000Y-80208571D01*
X133855714Y-79208571D01*
X134998571Y-80137142D02*
X134855714Y-80208571D01*
X134570000Y-80208571D01*
X134427142Y-80137142D01*
X134355714Y-79994285D01*
X134355714Y-79422857D01*
X134427142Y-79280000D01*
X134570000Y-79208571D01*
X134855714Y-79208571D01*
X134998571Y-79280000D01*
X135070000Y-79422857D01*
X135070000Y-79565714D01*
X134355714Y-79708571D01*
X135712857Y-80208571D02*
X135712857Y-79208571D01*
X135712857Y-79494285D02*
X135784285Y-79351428D01*
X135855714Y-79280000D01*
X135998571Y-79208571D01*
X136141428Y-79208571D01*
X137141428Y-79422857D02*
X137355714Y-79494285D01*
X137427142Y-79565714D01*
X137498571Y-79708571D01*
X137498571Y-79922857D01*
X137427142Y-80065714D01*
X137355714Y-80137142D01*
X137212857Y-80208571D01*
X136641428Y-80208571D01*
X136641428Y-78708571D01*
X137141428Y-78708571D01*
X137284285Y-78780000D01*
X137355714Y-78851428D01*
X137427142Y-78994285D01*
X137427142Y-79137142D01*
X137355714Y-79280000D01*
X137284285Y-79351428D01*
X137141428Y-79422857D01*
X136641428Y-79422857D01*
X138355714Y-80208571D02*
X138212857Y-80137142D01*
X138141428Y-80065714D01*
X138070000Y-79922857D01*
X138070000Y-79494285D01*
X138141428Y-79351428D01*
X138212857Y-79280000D01*
X138355714Y-79208571D01*
X138570000Y-79208571D01*
X138712857Y-79280000D01*
X138784285Y-79351428D01*
X138855714Y-79494285D01*
X138855714Y-79922857D01*
X138784285Y-80065714D01*
X138712857Y-80137142D01*
X138570000Y-80208571D01*
X138355714Y-80208571D01*
X139712857Y-80208571D02*
X139570000Y-80137142D01*
X139498571Y-80065714D01*
X139427142Y-79922857D01*
X139427142Y-79494285D01*
X139498571Y-79351428D01*
X139570000Y-79280000D01*
X139712857Y-79208571D01*
X139927142Y-79208571D01*
X140070000Y-79280000D01*
X140141428Y-79351428D01*
X140212857Y-79494285D01*
X140212857Y-79922857D01*
X140141428Y-80065714D01*
X140070000Y-80137142D01*
X139927142Y-80208571D01*
X139712857Y-80208571D01*
X140855714Y-80208571D02*
X140855714Y-78708571D01*
X140998571Y-79637142D02*
X141427142Y-80208571D01*
X141427142Y-79208571D02*
X140855714Y-79780000D01*
X143070000Y-79208571D02*
X143427142Y-80208571D01*
X143784285Y-79208571D01*
X145141428Y-80208571D02*
X144284285Y-80208571D01*
X144712857Y-80208571D02*
X144712857Y-78708571D01*
X144570000Y-78922857D01*
X144427142Y-79065714D01*
X144284285Y-79137142D01*
X145784285Y-80065714D02*
X145855714Y-80137142D01*
X145784285Y-80208571D01*
X145712857Y-80137142D01*
X145784285Y-80065714D01*
X145784285Y-80208571D01*
X147284285Y-80208571D02*
X146427142Y-80208571D01*
X146855714Y-80208571D02*
X146855714Y-78708571D01*
X146712857Y-78922857D01*
X146570000Y-79065714D01*
X146427142Y-79137142D01*
X147927142Y-79637142D02*
X149070000Y-79637142D01*
X150427142Y-80208571D02*
X150427142Y-79422857D01*
X150355714Y-79280000D01*
X150212857Y-79208571D01*
X149927142Y-79208571D01*
X149784285Y-79280000D01*
X150427142Y-80137142D02*
X150284285Y-80208571D01*
X149927142Y-80208571D01*
X149784285Y-80137142D01*
X149712857Y-79994285D01*
X149712857Y-79851428D01*
X149784285Y-79708571D01*
X149927142Y-79637142D01*
X150284285Y-79637142D01*
X150427142Y-79565714D01*
X151141428Y-79637142D02*
X152284285Y-79637142D01*
X151712857Y-80208571D02*
X151712857Y-79065714D01*
X123891428Y-81837857D02*
X123391428Y-81837857D01*
X123391428Y-82623571D02*
X123391428Y-81123571D01*
X124105714Y-81123571D01*
X124891428Y-82623571D02*
X124748571Y-82552142D01*
X124677142Y-82480714D01*
X124605714Y-82337857D01*
X124605714Y-81909285D01*
X124677142Y-81766428D01*
X124748571Y-81695000D01*
X124891428Y-81623571D01*
X125105714Y-81623571D01*
X125248571Y-81695000D01*
X125320000Y-81766428D01*
X125391428Y-81909285D01*
X125391428Y-82337857D01*
X125320000Y-82480714D01*
X125248571Y-82552142D01*
X125105714Y-82623571D01*
X124891428Y-82623571D01*
X126034285Y-82623571D02*
X126034285Y-81623571D01*
X126034285Y-81909285D02*
X126105714Y-81766428D01*
X126177142Y-81695000D01*
X126320000Y-81623571D01*
X126462857Y-81623571D01*
X126962857Y-82623571D02*
X126962857Y-81123571D01*
X127105714Y-82052142D02*
X127534285Y-82623571D01*
X127534285Y-81623571D02*
X126962857Y-82195000D01*
X129534285Y-82623571D02*
X129391428Y-82552142D01*
X129320000Y-82480714D01*
X129248571Y-82337857D01*
X129248571Y-81909285D01*
X129320000Y-81766428D01*
X129391428Y-81695000D01*
X129534285Y-81623571D01*
X129748571Y-81623571D01*
X129891428Y-81695000D01*
X129962857Y-81766428D01*
X130034285Y-81909285D01*
X130034285Y-82337857D01*
X129962857Y-82480714D01*
X129891428Y-82552142D01*
X129748571Y-82623571D01*
X129534285Y-82623571D01*
X130462857Y-81623571D02*
X131034285Y-81623571D01*
X130677142Y-82623571D02*
X130677142Y-81337857D01*
X130748571Y-81195000D01*
X130891428Y-81123571D01*
X131034285Y-81123571D01*
X133320000Y-82623571D02*
X133320000Y-81123571D01*
X133320000Y-82552142D02*
X133177142Y-82623571D01*
X132891428Y-82623571D01*
X132748571Y-82552142D01*
X132677142Y-82480714D01*
X132605714Y-82337857D01*
X132605714Y-81909285D01*
X132677142Y-81766428D01*
X132748571Y-81695000D01*
X132891428Y-81623571D01*
X133177142Y-81623571D01*
X133320000Y-81695000D01*
X134605714Y-82552142D02*
X134462857Y-82623571D01*
X134177142Y-82623571D01*
X134034285Y-82552142D01*
X133962857Y-82409285D01*
X133962857Y-81837857D01*
X134034285Y-81695000D01*
X134177142Y-81623571D01*
X134462857Y-81623571D01*
X134605714Y-81695000D01*
X134677142Y-81837857D01*
X134677142Y-81980714D01*
X133962857Y-82123571D01*
X135320000Y-82623571D02*
X135320000Y-81123571D01*
X135962857Y-82623571D02*
X135962857Y-81837857D01*
X135891428Y-81695000D01*
X135748571Y-81623571D01*
X135534285Y-81623571D01*
X135391428Y-81695000D01*
X135320000Y-81766428D01*
X136677142Y-82623571D02*
X136677142Y-81623571D01*
X136677142Y-81123571D02*
X136605714Y-81195000D01*
X136677142Y-81266428D01*
X136748571Y-81195000D01*
X136677142Y-81123571D01*
X136677142Y-81266428D01*
X137391428Y-81623571D02*
X137391428Y-82909285D01*
X137320000Y-83052142D01*
X137177142Y-83123571D01*
X137105714Y-83123571D01*
X137391428Y-81123571D02*
X137320000Y-81195000D01*
X137391428Y-81266428D01*
X137462857Y-81195000D01*
X137391428Y-81123571D01*
X137391428Y-81266428D01*
X138105714Y-82480714D02*
X138177142Y-82552142D01*
X138105714Y-82623571D01*
X138034285Y-82552142D01*
X138105714Y-82480714D01*
X138105714Y-82623571D01*
X138820000Y-82623571D02*
X138820000Y-81123571D01*
X139462857Y-82623571D02*
X139462857Y-81837857D01*
X139391428Y-81695000D01*
X139248571Y-81623571D01*
X139034285Y-81623571D01*
X138891428Y-81695000D01*
X138820000Y-81766428D01*
X140177142Y-82623571D02*
X140177142Y-81623571D01*
X140177142Y-81123571D02*
X140105714Y-81195000D01*
X140177142Y-81266428D01*
X140248571Y-81195000D01*
X140177142Y-81123571D01*
X140177142Y-81266428D01*
X141534285Y-82623571D02*
X141534285Y-81123571D01*
X141534285Y-82552142D02*
X141391428Y-82623571D01*
X141105714Y-82623571D01*
X140962857Y-82552142D01*
X140891428Y-82480714D01*
X140820000Y-82337857D01*
X140820000Y-81909285D01*
X140891428Y-81766428D01*
X140962857Y-81695000D01*
X141105714Y-81623571D01*
X141391428Y-81623571D01*
X141534285Y-81695000D01*
X142891428Y-82623571D02*
X142891428Y-81123571D01*
X142891428Y-82552142D02*
X142748571Y-82623571D01*
X142462857Y-82623571D01*
X142320000Y-82552142D01*
X142248571Y-82480714D01*
X142177142Y-82337857D01*
X142177142Y-81909285D01*
X142248571Y-81766428D01*
X142320000Y-81695000D01*
X142462857Y-81623571D01*
X142748571Y-81623571D01*
X142891428Y-81695000D01*
X144177142Y-82552142D02*
X144034285Y-82623571D01*
X143748571Y-82623571D01*
X143605714Y-82552142D01*
X143534285Y-82409285D01*
X143534285Y-81837857D01*
X143605714Y-81695000D01*
X143748571Y-81623571D01*
X144034285Y-81623571D01*
X144177142Y-81695000D01*
X144248571Y-81837857D01*
X144248571Y-81980714D01*
X143534285Y-82123571D01*
X144891428Y-81623571D02*
X144891428Y-82909285D01*
X144820000Y-83052142D01*
X144677142Y-83123571D01*
X144605714Y-83123571D01*
X144891428Y-81123571D02*
X144820000Y-81195000D01*
X144891428Y-81266428D01*
X144962857Y-81195000D01*
X144891428Y-81123571D01*
X144891428Y-81266428D01*
X145605714Y-82480714D02*
X145677142Y-82552142D01*
X145605714Y-82623571D01*
X145534285Y-82552142D01*
X145605714Y-82480714D01*
X145605714Y-82623571D01*
X146320000Y-81623571D02*
X146320000Y-82623571D01*
X146320000Y-81766428D02*
X146391428Y-81695000D01*
X146534285Y-81623571D01*
X146748571Y-81623571D01*
X146891428Y-81695000D01*
X146962857Y-81837857D01*
X146962857Y-82623571D01*
X147891428Y-82623571D02*
X147748571Y-82552142D01*
X147677142Y-82409285D01*
X147677142Y-81123571D01*
X121748571Y-85953571D02*
X121748571Y-87167857D01*
X121820000Y-87310714D01*
X121891428Y-87382142D01*
X122034285Y-87453571D01*
X122320000Y-87453571D01*
X122462857Y-87382142D01*
X122534285Y-87310714D01*
X122605714Y-87167857D01*
X122605714Y-85953571D01*
X123320000Y-86453571D02*
X123320000Y-87953571D01*
X123320000Y-86525000D02*
X123462857Y-86453571D01*
X123748571Y-86453571D01*
X123891428Y-86525000D01*
X123962857Y-86596428D01*
X124034285Y-86739285D01*
X124034285Y-87167857D01*
X123962857Y-87310714D01*
X123891428Y-87382142D01*
X123748571Y-87453571D01*
X123462857Y-87453571D01*
X123320000Y-87382142D01*
X125320000Y-87453571D02*
X125320000Y-85953571D01*
X125320000Y-87382142D02*
X125177142Y-87453571D01*
X124891428Y-87453571D01*
X124748571Y-87382142D01*
X124677142Y-87310714D01*
X124605714Y-87167857D01*
X124605714Y-86739285D01*
X124677142Y-86596428D01*
X124748571Y-86525000D01*
X124891428Y-86453571D01*
X125177142Y-86453571D01*
X125320000Y-86525000D01*
X126677142Y-87453571D02*
X126677142Y-86667857D01*
X126605714Y-86525000D01*
X126462857Y-86453571D01*
X126177142Y-86453571D01*
X126034285Y-86525000D01*
X126677142Y-87382142D02*
X126534285Y-87453571D01*
X126177142Y-87453571D01*
X126034285Y-87382142D01*
X125962857Y-87239285D01*
X125962857Y-87096428D01*
X126034285Y-86953571D01*
X126177142Y-86882142D01*
X126534285Y-86882142D01*
X126677142Y-86810714D01*
X127177142Y-86453571D02*
X127748571Y-86453571D01*
X127391428Y-85953571D02*
X127391428Y-87239285D01*
X127462857Y-87382142D01*
X127605714Y-87453571D01*
X127748571Y-87453571D01*
X128820000Y-87382142D02*
X128677142Y-87453571D01*
X128391428Y-87453571D01*
X128248571Y-87382142D01*
X128177142Y-87239285D01*
X128177142Y-86667857D01*
X128248571Y-86525000D01*
X128391428Y-86453571D01*
X128677142Y-86453571D01*
X128820000Y-86525000D01*
X128891428Y-86667857D01*
X128891428Y-86810714D01*
X128177142Y-86953571D01*
X129462857Y-87382142D02*
X129605714Y-87453571D01*
X129891428Y-87453571D01*
X130034285Y-87382142D01*
X130105714Y-87239285D01*
X130105714Y-87167857D01*
X130034285Y-87025000D01*
X129891428Y-86953571D01*
X129677142Y-86953571D01*
X129534285Y-86882142D01*
X129462857Y-86739285D01*
X129462857Y-86667857D01*
X129534285Y-86525000D01*
X129677142Y-86453571D01*
X129891428Y-86453571D01*
X130034285Y-86525000D01*
X131891428Y-87453571D02*
X131891428Y-85953571D01*
X131891428Y-86525000D02*
X132034285Y-86453571D01*
X132320000Y-86453571D01*
X132462857Y-86525000D01*
X132534285Y-86596428D01*
X132605714Y-86739285D01*
X132605714Y-87167857D01*
X132534285Y-87310714D01*
X132462857Y-87382142D01*
X132320000Y-87453571D01*
X132034285Y-87453571D01*
X131891428Y-87382142D01*
X133105714Y-86453571D02*
X133462857Y-87453571D01*
X133820000Y-86453571D02*
X133462857Y-87453571D01*
X133320000Y-87810714D01*
X133248571Y-87882142D01*
X133105714Y-87953571D01*
X135534285Y-86667857D02*
X136034285Y-86667857D01*
X136248571Y-87453571D02*
X135534285Y-87453571D01*
X135534285Y-85953571D01*
X136248571Y-85953571D01*
X136891428Y-87310714D02*
X136962857Y-87382142D01*
X136891428Y-87453571D01*
X136820000Y-87382142D01*
X136891428Y-87310714D01*
X136891428Y-87453571D01*
X138748571Y-87453571D02*
X138748571Y-85953571D01*
X138748571Y-86667857D02*
X139605714Y-86667857D01*
X139605714Y-87453571D02*
X139605714Y-85953571D01*
X140891428Y-87382142D02*
X140748571Y-87453571D01*
X140462857Y-87453571D01*
X140320000Y-87382142D01*
X140248571Y-87239285D01*
X140248571Y-86667857D01*
X140320000Y-86525000D01*
X140462857Y-86453571D01*
X140748571Y-86453571D01*
X140891428Y-86525000D01*
X140962857Y-86667857D01*
X140962857Y-86810714D01*
X140248571Y-86953571D01*
X141820000Y-87453571D02*
X141677142Y-87382142D01*
X141605714Y-87239285D01*
X141605714Y-85953571D01*
X143034285Y-86453571D02*
X143034285Y-87667857D01*
X142962857Y-87810714D01*
X142891428Y-87882142D01*
X142748571Y-87953571D01*
X142534285Y-87953571D01*
X142391428Y-87882142D01*
X143034285Y-87382142D02*
X142891428Y-87453571D01*
X142605714Y-87453571D01*
X142462857Y-87382142D01*
X142391428Y-87310714D01*
X142320000Y-87167857D01*
X142320000Y-86739285D01*
X142391428Y-86596428D01*
X142462857Y-86525000D01*
X142605714Y-86453571D01*
X142891428Y-86453571D01*
X143034285Y-86525000D01*
X144320000Y-87382142D02*
X144177142Y-87453571D01*
X143891428Y-87453571D01*
X143748571Y-87382142D01*
X143677142Y-87239285D01*
X143677142Y-86667857D01*
X143748571Y-86525000D01*
X143891428Y-86453571D01*
X144177142Y-86453571D01*
X144320000Y-86525000D01*
X144391428Y-86667857D01*
X144391428Y-86810714D01*
X143677142Y-86953571D01*
X144962857Y-87382142D02*
X145105714Y-87453571D01*
X145391428Y-87453571D01*
X145534285Y-87382142D01*
X145605714Y-87239285D01*
X145605714Y-87167857D01*
X145534285Y-87025000D01*
X145391428Y-86953571D01*
X145177142Y-86953571D01*
X145034285Y-86882142D01*
X144962857Y-86739285D01*
X144962857Y-86667857D01*
X145034285Y-86525000D01*
X145177142Y-86453571D01*
X145391428Y-86453571D01*
X145534285Y-86525000D01*
X146462857Y-87453571D02*
X146320000Y-87382142D01*
X146248571Y-87310714D01*
X146177142Y-87167857D01*
X146177142Y-86739285D01*
X146248571Y-86596428D01*
X146320000Y-86525000D01*
X146462857Y-86453571D01*
X146677142Y-86453571D01*
X146820000Y-86525000D01*
X146891428Y-86596428D01*
X146962857Y-86739285D01*
X146962857Y-87167857D01*
X146891428Y-87310714D01*
X146820000Y-87382142D01*
X146677142Y-87453571D01*
X146462857Y-87453571D01*
X147605714Y-86453571D02*
X147605714Y-87453571D01*
X147605714Y-86596428D02*
X147677142Y-86525000D01*
X147820000Y-86453571D01*
X148034285Y-86453571D01*
X148177142Y-86525000D01*
X148248571Y-86667857D01*
X148248571Y-87453571D01*
X130927142Y-89868571D02*
X130855714Y-89868571D01*
X130712857Y-89797142D01*
X130498571Y-89582857D01*
X130141428Y-89154285D01*
X129998571Y-88940000D01*
X129927142Y-88725714D01*
X129927142Y-88582857D01*
X129998571Y-88440000D01*
X130141428Y-88368571D01*
X130212857Y-88368571D01*
X130355714Y-88440000D01*
X130427142Y-88582857D01*
X130427142Y-88654285D01*
X130355714Y-88797142D01*
X130284285Y-88868571D01*
X129855714Y-89154285D01*
X129784285Y-89225714D01*
X129712857Y-89368571D01*
X129712857Y-89582857D01*
X129784285Y-89725714D01*
X129855714Y-89797142D01*
X129998571Y-89868571D01*
X130212857Y-89868571D01*
X130355714Y-89797142D01*
X130427142Y-89725714D01*
X130641428Y-89440000D01*
X130712857Y-89225714D01*
X130712857Y-89082857D01*
X132641428Y-89440000D02*
X133355714Y-89440000D01*
X132498571Y-89868571D02*
X132998571Y-88368571D01*
X133498571Y-89868571D01*
X133998571Y-89725714D02*
X134070000Y-89797142D01*
X133998571Y-89868571D01*
X133927142Y-89797142D01*
X133998571Y-89725714D01*
X133998571Y-89868571D01*
X135855714Y-89868571D02*
X135855714Y-88368571D01*
X136712857Y-89868571D02*
X136070000Y-89011428D01*
X136712857Y-88368571D02*
X135855714Y-89225714D01*
X137998571Y-88868571D02*
X137998571Y-89868571D01*
X137355714Y-88868571D02*
X137355714Y-89654285D01*
X137427142Y-89797142D01*
X137570000Y-89868571D01*
X137784285Y-89868571D01*
X137927142Y-89797142D01*
X137998571Y-89725714D01*
X138712857Y-89868571D02*
X138712857Y-88368571D01*
X138855714Y-89297142D02*
X139284285Y-89868571D01*
X139284285Y-88868571D02*
X138712857Y-89440000D01*
X140498571Y-89797142D02*
X140355714Y-89868571D01*
X140070000Y-89868571D01*
X139927142Y-89797142D01*
X139855714Y-89654285D01*
X139855714Y-89082857D01*
X139927142Y-88940000D01*
X140070000Y-88868571D01*
X140355714Y-88868571D01*
X140498571Y-88940000D01*
X140570000Y-89082857D01*
X140570000Y-89225714D01*
X139855714Y-89368571D01*
X141212857Y-89868571D02*
X141212857Y-88868571D01*
X141212857Y-89154285D02*
X141284285Y-89011428D01*
X141355714Y-88940000D01*
X141498571Y-88868571D01*
X141641428Y-88868571D01*
D11*
X85261904Y-78802380D02*
X85880952Y-78802380D01*
X85547619Y-79183333D01*
X85690476Y-79183333D01*
X85785714Y-79230952D01*
X85833333Y-79278571D01*
X85880952Y-79373809D01*
X85880952Y-79611904D01*
X85833333Y-79707142D01*
X85785714Y-79754761D01*
X85690476Y-79802380D01*
X85404761Y-79802380D01*
X85309523Y-79754761D01*
X85261904Y-79707142D01*
X86214285Y-78802380D02*
X86833333Y-78802380D01*
X86500000Y-79183333D01*
X86642857Y-79183333D01*
X86738095Y-79230952D01*
X86785714Y-79278571D01*
X86833333Y-79373809D01*
X86833333Y-79611904D01*
X86785714Y-79707142D01*
X86738095Y-79754761D01*
X86642857Y-79802380D01*
X86357142Y-79802380D01*
X86261904Y-79754761D01*
X86214285Y-79707142D01*
X87452380Y-78802380D02*
X87547619Y-78802380D01*
X87642857Y-78850000D01*
X87690476Y-78897619D01*
X87738095Y-78992857D01*
X87785714Y-79183333D01*
X87785714Y-79421428D01*
X87738095Y-79611904D01*
X87690476Y-79707142D01*
X87642857Y-79754761D01*
X87547619Y-79802380D01*
X87452380Y-79802380D01*
X87357142Y-79754761D01*
X87309523Y-79707142D01*
X87261904Y-79611904D01*
X87214285Y-79421428D01*
X87214285Y-79183333D01*
X87261904Y-78992857D01*
X87309523Y-78897619D01*
X87357142Y-78850000D01*
X87452380Y-78802380D01*
X88928571Y-79802380D02*
X89166666Y-79802380D01*
X89166666Y-79611904D01*
X89071428Y-79564285D01*
X88976190Y-79469047D01*
X88928571Y-79326190D01*
X88928571Y-79088095D01*
X88976190Y-78945238D01*
X89071428Y-78850000D01*
X89214285Y-78802380D01*
X89404761Y-78802380D01*
X89547619Y-78850000D01*
X89642857Y-78945238D01*
X89690476Y-79088095D01*
X89690476Y-79326190D01*
X89642857Y-79469047D01*
X89547619Y-79564285D01*
X89452380Y-79611904D01*
X89452380Y-79802380D01*
X89690476Y-79802380D01*
X153684880Y-85333333D02*
X154399166Y-85333333D01*
X154542023Y-85380952D01*
X154637261Y-85476190D01*
X154684880Y-85619047D01*
X154684880Y-85714285D01*
X154684880Y-84333333D02*
X154684880Y-84904761D01*
X154684880Y-84619047D02*
X153684880Y-84619047D01*
X153827738Y-84714285D01*
X153922976Y-84809523D01*
X153970595Y-84904761D01*
X109116666Y-86722380D02*
X109116666Y-87436666D01*
X109069047Y-87579523D01*
X108973809Y-87674761D01*
X108830952Y-87722380D01*
X108735714Y-87722380D01*
X109592857Y-87722380D02*
X109592857Y-86722380D01*
X109973809Y-86722380D01*
X110069047Y-86770000D01*
X110116666Y-86817619D01*
X110164285Y-86912857D01*
X110164285Y-87055714D01*
X110116666Y-87150952D01*
X110069047Y-87198571D01*
X109973809Y-87246190D01*
X109592857Y-87246190D01*
X111116666Y-87722380D02*
X110545238Y-87722380D01*
X110830952Y-87722380D02*
X110830952Y-86722380D01*
X110735714Y-86865238D01*
X110640476Y-86960476D01*
X110545238Y-87008095D01*
X112966666Y-86622380D02*
X112966666Y-87336666D01*
X112919047Y-87479523D01*
X112823809Y-87574761D01*
X112680952Y-87622380D01*
X112585714Y-87622380D01*
X113442857Y-87622380D02*
X113442857Y-86622380D01*
X113823809Y-86622380D01*
X113919047Y-86670000D01*
X113966666Y-86717619D01*
X114014285Y-86812857D01*
X114014285Y-86955714D01*
X113966666Y-87050952D01*
X113919047Y-87098571D01*
X113823809Y-87146190D01*
X113442857Y-87146190D01*
X114395238Y-86717619D02*
X114442857Y-86670000D01*
X114538095Y-86622380D01*
X114776190Y-86622380D01*
X114871428Y-86670000D01*
X114919047Y-86717619D01*
X114966666Y-86812857D01*
X114966666Y-86908095D01*
X114919047Y-87050952D01*
X114347619Y-87622380D01*
X114966666Y-87622380D01*
X83533333Y-81702380D02*
X83200000Y-81226190D01*
X82961904Y-81702380D02*
X82961904Y-80702380D01*
X83342857Y-80702380D01*
X83438095Y-80750000D01*
X83485714Y-80797619D01*
X83533333Y-80892857D01*
X83533333Y-81035714D01*
X83485714Y-81130952D01*
X83438095Y-81178571D01*
X83342857Y-81226190D01*
X82961904Y-81226190D01*
X84485714Y-81702380D02*
X83914285Y-81702380D01*
X84200000Y-81702380D02*
X84200000Y-80702380D01*
X84104761Y-80845238D01*
X84009523Y-80940476D01*
X83914285Y-80988095D01*
X83483333Y-84252380D02*
X83150000Y-83776190D01*
X82911904Y-84252380D02*
X82911904Y-83252380D01*
X83292857Y-83252380D01*
X83388095Y-83300000D01*
X83435714Y-83347619D01*
X83483333Y-83442857D01*
X83483333Y-83585714D01*
X83435714Y-83680952D01*
X83388095Y-83728571D01*
X83292857Y-83776190D01*
X82911904Y-83776190D01*
X83864285Y-83347619D02*
X83911904Y-83300000D01*
X84007142Y-83252380D01*
X84245238Y-83252380D01*
X84340476Y-83300000D01*
X84388095Y-83347619D01*
X84435714Y-83442857D01*
X84435714Y-83538095D01*
X84388095Y-83680952D01*
X83816666Y-84252380D01*
X84435714Y-84252380D01*
X83483333Y-86802380D02*
X83150000Y-86326190D01*
X82911904Y-86802380D02*
X82911904Y-85802380D01*
X83292857Y-85802380D01*
X83388095Y-85850000D01*
X83435714Y-85897619D01*
X83483333Y-85992857D01*
X83483333Y-86135714D01*
X83435714Y-86230952D01*
X83388095Y-86278571D01*
X83292857Y-86326190D01*
X82911904Y-86326190D01*
X83816666Y-85802380D02*
X84435714Y-85802380D01*
X84102380Y-86183333D01*
X84245238Y-86183333D01*
X84340476Y-86230952D01*
X84388095Y-86278571D01*
X84435714Y-86373809D01*
X84435714Y-86611904D01*
X84388095Y-86707142D01*
X84340476Y-86754761D01*
X84245238Y-86802380D01*
X83959523Y-86802380D01*
X83864285Y-86754761D01*
X83816666Y-86707142D01*
X83433333Y-89352380D02*
X83100000Y-88876190D01*
X82861904Y-89352380D02*
X82861904Y-88352380D01*
X83242857Y-88352380D01*
X83338095Y-88400000D01*
X83385714Y-88447619D01*
X83433333Y-88542857D01*
X83433333Y-88685714D01*
X83385714Y-88780952D01*
X83338095Y-88828571D01*
X83242857Y-88876190D01*
X82861904Y-88876190D01*
X84290476Y-88685714D02*
X84290476Y-89352380D01*
X84052380Y-88304761D02*
X83814285Y-89019047D01*
X84433333Y-89019047D01*
X83483333Y-91902380D02*
X83150000Y-91426190D01*
X82911904Y-91902380D02*
X82911904Y-90902380D01*
X83292857Y-90902380D01*
X83388095Y-90950000D01*
X83435714Y-90997619D01*
X83483333Y-91092857D01*
X83483333Y-91235714D01*
X83435714Y-91330952D01*
X83388095Y-91378571D01*
X83292857Y-91426190D01*
X82911904Y-91426190D01*
X84388095Y-90902380D02*
X83911904Y-90902380D01*
X83864285Y-91378571D01*
X83911904Y-91330952D01*
X84007142Y-91283333D01*
X84245238Y-91283333D01*
X84340476Y-91330952D01*
X84388095Y-91378571D01*
X84435714Y-91473809D01*
X84435714Y-91711904D01*
X84388095Y-91807142D01*
X84340476Y-91854761D01*
X84245238Y-91902380D01*
X84007142Y-91902380D01*
X83911904Y-91854761D01*
X83864285Y-91807142D01*
X83483333Y-94452380D02*
X83150000Y-93976190D01*
X82911904Y-94452380D02*
X82911904Y-93452380D01*
X83292857Y-93452380D01*
X83388095Y-93500000D01*
X83435714Y-93547619D01*
X83483333Y-93642857D01*
X83483333Y-93785714D01*
X83435714Y-93880952D01*
X83388095Y-93928571D01*
X83292857Y-93976190D01*
X82911904Y-93976190D01*
X84340476Y-93452380D02*
X84150000Y-93452380D01*
X84054761Y-93500000D01*
X84007142Y-93547619D01*
X83911904Y-93690476D01*
X83864285Y-93880952D01*
X83864285Y-94261904D01*
X83911904Y-94357142D01*
X83959523Y-94404761D01*
X84054761Y-94452380D01*
X84245238Y-94452380D01*
X84340476Y-94404761D01*
X84388095Y-94357142D01*
X84435714Y-94261904D01*
X84435714Y-94023809D01*
X84388095Y-93928571D01*
X84340476Y-93880952D01*
X84245238Y-93833333D01*
X84054761Y-93833333D01*
X83959523Y-93880952D01*
X83911904Y-93928571D01*
X83864285Y-94023809D01*
X83533333Y-99552380D02*
X83200000Y-99076190D01*
X82961904Y-99552380D02*
X82961904Y-98552380D01*
X83342857Y-98552380D01*
X83438095Y-98600000D01*
X83485714Y-98647619D01*
X83533333Y-98742857D01*
X83533333Y-98885714D01*
X83485714Y-98980952D01*
X83438095Y-99028571D01*
X83342857Y-99076190D01*
X82961904Y-99076190D01*
X84104761Y-98980952D02*
X84009523Y-98933333D01*
X83961904Y-98885714D01*
X83914285Y-98790476D01*
X83914285Y-98742857D01*
X83961904Y-98647619D01*
X84009523Y-98600000D01*
X84104761Y-98552380D01*
X84295238Y-98552380D01*
X84390476Y-98600000D01*
X84438095Y-98647619D01*
X84485714Y-98742857D01*
X84485714Y-98790476D01*
X84438095Y-98885714D01*
X84390476Y-98933333D01*
X84295238Y-98980952D01*
X84104761Y-98980952D01*
X84009523Y-99028571D01*
X83961904Y-99076190D01*
X83914285Y-99171428D01*
X83914285Y-99361904D01*
X83961904Y-99457142D01*
X84009523Y-99504761D01*
X84104761Y-99552380D01*
X84295238Y-99552380D01*
X84390476Y-99504761D01*
X84438095Y-99457142D01*
X84485714Y-99361904D01*
X84485714Y-99171428D01*
X84438095Y-99076190D01*
X84390476Y-99028571D01*
X84295238Y-98980952D01*
X83483333Y-102052380D02*
X83150000Y-101576190D01*
X82911904Y-102052380D02*
X82911904Y-101052380D01*
X83292857Y-101052380D01*
X83388095Y-101100000D01*
X83435714Y-101147619D01*
X83483333Y-101242857D01*
X83483333Y-101385714D01*
X83435714Y-101480952D01*
X83388095Y-101528571D01*
X83292857Y-101576190D01*
X82911904Y-101576190D01*
X83959523Y-102052380D02*
X84150000Y-102052380D01*
X84245238Y-102004761D01*
X84292857Y-101957142D01*
X84388095Y-101814285D01*
X84435714Y-101623809D01*
X84435714Y-101242857D01*
X84388095Y-101147619D01*
X84340476Y-101100000D01*
X84245238Y-101052380D01*
X84054761Y-101052380D01*
X83959523Y-101100000D01*
X83911904Y-101147619D01*
X83864285Y-101242857D01*
X83864285Y-101480952D01*
X83911904Y-101576190D01*
X83959523Y-101623809D01*
X84054761Y-101671428D01*
X84245238Y-101671428D01*
X84340476Y-101623809D01*
X84388095Y-101576190D01*
X84435714Y-101480952D01*
X82557142Y-104582380D02*
X82223809Y-104106190D01*
X81985714Y-104582380D02*
X81985714Y-103582380D01*
X82366666Y-103582380D01*
X82461904Y-103630000D01*
X82509523Y-103677619D01*
X82557142Y-103772857D01*
X82557142Y-103915714D01*
X82509523Y-104010952D01*
X82461904Y-104058571D01*
X82366666Y-104106190D01*
X81985714Y-104106190D01*
X83509523Y-104582380D02*
X82938095Y-104582380D01*
X83223809Y-104582380D02*
X83223809Y-103582380D01*
X83128571Y-103725238D01*
X83033333Y-103820476D01*
X82938095Y-103868095D01*
X84128571Y-103582380D02*
X84223809Y-103582380D01*
X84319047Y-103630000D01*
X84366666Y-103677619D01*
X84414285Y-103772857D01*
X84461904Y-103963333D01*
X84461904Y-104201428D01*
X84414285Y-104391904D01*
X84366666Y-104487142D01*
X84319047Y-104534761D01*
X84223809Y-104582380D01*
X84128571Y-104582380D01*
X84033333Y-104534761D01*
X83985714Y-104487142D01*
X83938095Y-104391904D01*
X83890476Y-104201428D01*
X83890476Y-103963333D01*
X83938095Y-103772857D01*
X83985714Y-103677619D01*
X84033333Y-103630000D01*
X84128571Y-103582380D01*
X82557142Y-107112380D02*
X82223809Y-106636190D01*
X81985714Y-107112380D02*
X81985714Y-106112380D01*
X82366666Y-106112380D01*
X82461904Y-106160000D01*
X82509523Y-106207619D01*
X82557142Y-106302857D01*
X82557142Y-106445714D01*
X82509523Y-106540952D01*
X82461904Y-106588571D01*
X82366666Y-106636190D01*
X81985714Y-106636190D01*
X83509523Y-107112380D02*
X82938095Y-107112380D01*
X83223809Y-107112380D02*
X83223809Y-106112380D01*
X83128571Y-106255238D01*
X83033333Y-106350476D01*
X82938095Y-106398095D01*
X84461904Y-107112380D02*
X83890476Y-107112380D01*
X84176190Y-107112380D02*
X84176190Y-106112380D01*
X84080952Y-106255238D01*
X83985714Y-106350476D01*
X83890476Y-106398095D01*
X82557142Y-109692380D02*
X82223809Y-109216190D01*
X81985714Y-109692380D02*
X81985714Y-108692380D01*
X82366666Y-108692380D01*
X82461904Y-108740000D01*
X82509523Y-108787619D01*
X82557142Y-108882857D01*
X82557142Y-109025714D01*
X82509523Y-109120952D01*
X82461904Y-109168571D01*
X82366666Y-109216190D01*
X81985714Y-109216190D01*
X83509523Y-109692380D02*
X82938095Y-109692380D01*
X83223809Y-109692380D02*
X83223809Y-108692380D01*
X83128571Y-108835238D01*
X83033333Y-108930476D01*
X82938095Y-108978095D01*
X83890476Y-108787619D02*
X83938095Y-108740000D01*
X84033333Y-108692380D01*
X84271428Y-108692380D01*
X84366666Y-108740000D01*
X84414285Y-108787619D01*
X84461904Y-108882857D01*
X84461904Y-108978095D01*
X84414285Y-109120952D01*
X83842857Y-109692380D01*
X84461904Y-109692380D01*
X82557142Y-112222380D02*
X82223809Y-111746190D01*
X81985714Y-112222380D02*
X81985714Y-111222380D01*
X82366666Y-111222380D01*
X82461904Y-111270000D01*
X82509523Y-111317619D01*
X82557142Y-111412857D01*
X82557142Y-111555714D01*
X82509523Y-111650952D01*
X82461904Y-111698571D01*
X82366666Y-111746190D01*
X81985714Y-111746190D01*
X83509523Y-112222380D02*
X82938095Y-112222380D01*
X83223809Y-112222380D02*
X83223809Y-111222380D01*
X83128571Y-111365238D01*
X83033333Y-111460476D01*
X82938095Y-111508095D01*
X83842857Y-111222380D02*
X84461904Y-111222380D01*
X84128571Y-111603333D01*
X84271428Y-111603333D01*
X84366666Y-111650952D01*
X84414285Y-111698571D01*
X84461904Y-111793809D01*
X84461904Y-112031904D01*
X84414285Y-112127142D01*
X84366666Y-112174761D01*
X84271428Y-112222380D01*
X83985714Y-112222380D01*
X83890476Y-112174761D01*
X83842857Y-112127142D01*
X82507142Y-114752380D02*
X82173809Y-114276190D01*
X81935714Y-114752380D02*
X81935714Y-113752380D01*
X82316666Y-113752380D01*
X82411904Y-113800000D01*
X82459523Y-113847619D01*
X82507142Y-113942857D01*
X82507142Y-114085714D01*
X82459523Y-114180952D01*
X82411904Y-114228571D01*
X82316666Y-114276190D01*
X81935714Y-114276190D01*
X83459523Y-114752380D02*
X82888095Y-114752380D01*
X83173809Y-114752380D02*
X83173809Y-113752380D01*
X83078571Y-113895238D01*
X82983333Y-113990476D01*
X82888095Y-114038095D01*
X84316666Y-114085714D02*
X84316666Y-114752380D01*
X84078571Y-113704761D02*
X83840476Y-114419047D01*
X84459523Y-114419047D01*
X82557142Y-117282380D02*
X82223809Y-116806190D01*
X81985714Y-117282380D02*
X81985714Y-116282380D01*
X82366666Y-116282380D01*
X82461904Y-116330000D01*
X82509523Y-116377619D01*
X82557142Y-116472857D01*
X82557142Y-116615714D01*
X82509523Y-116710952D01*
X82461904Y-116758571D01*
X82366666Y-116806190D01*
X81985714Y-116806190D01*
X83509523Y-117282380D02*
X82938095Y-117282380D01*
X83223809Y-117282380D02*
X83223809Y-116282380D01*
X83128571Y-116425238D01*
X83033333Y-116520476D01*
X82938095Y-116568095D01*
X84414285Y-116282380D02*
X83938095Y-116282380D01*
X83890476Y-116758571D01*
X83938095Y-116710952D01*
X84033333Y-116663333D01*
X84271428Y-116663333D01*
X84366666Y-116710952D01*
X84414285Y-116758571D01*
X84461904Y-116853809D01*
X84461904Y-117091904D01*
X84414285Y-117187142D01*
X84366666Y-117234761D01*
X84271428Y-117282380D01*
X84033333Y-117282380D01*
X83938095Y-117234761D01*
X83890476Y-117187142D01*
X82557142Y-119862380D02*
X82223809Y-119386190D01*
X81985714Y-119862380D02*
X81985714Y-118862380D01*
X82366666Y-118862380D01*
X82461904Y-118910000D01*
X82509523Y-118957619D01*
X82557142Y-119052857D01*
X82557142Y-119195714D01*
X82509523Y-119290952D01*
X82461904Y-119338571D01*
X82366666Y-119386190D01*
X81985714Y-119386190D01*
X83509523Y-119862380D02*
X82938095Y-119862380D01*
X83223809Y-119862380D02*
X83223809Y-118862380D01*
X83128571Y-119005238D01*
X83033333Y-119100476D01*
X82938095Y-119148095D01*
X84366666Y-118862380D02*
X84176190Y-118862380D01*
X84080952Y-118910000D01*
X84033333Y-118957619D01*
X83938095Y-119100476D01*
X83890476Y-119290952D01*
X83890476Y-119671904D01*
X83938095Y-119767142D01*
X83985714Y-119814761D01*
X84080952Y-119862380D01*
X84271428Y-119862380D01*
X84366666Y-119814761D01*
X84414285Y-119767142D01*
X84461904Y-119671904D01*
X84461904Y-119433809D01*
X84414285Y-119338571D01*
X84366666Y-119290952D01*
X84271428Y-119243333D01*
X84080952Y-119243333D01*
X83985714Y-119290952D01*
X83938095Y-119338571D01*
X83890476Y-119433809D01*
X82557142Y-122532380D02*
X82223809Y-122056190D01*
X81985714Y-122532380D02*
X81985714Y-121532380D01*
X82366666Y-121532380D01*
X82461904Y-121580000D01*
X82509523Y-121627619D01*
X82557142Y-121722857D01*
X82557142Y-121865714D01*
X82509523Y-121960952D01*
X82461904Y-122008571D01*
X82366666Y-122056190D01*
X81985714Y-122056190D01*
X83509523Y-122532380D02*
X82938095Y-122532380D01*
X83223809Y-122532380D02*
X83223809Y-121532380D01*
X83128571Y-121675238D01*
X83033333Y-121770476D01*
X82938095Y-121818095D01*
X83842857Y-121532380D02*
X84509523Y-121532380D01*
X84080952Y-122532380D01*
X82457142Y-124922380D02*
X82123809Y-124446190D01*
X81885714Y-124922380D02*
X81885714Y-123922380D01*
X82266666Y-123922380D01*
X82361904Y-123970000D01*
X82409523Y-124017619D01*
X82457142Y-124112857D01*
X82457142Y-124255714D01*
X82409523Y-124350952D01*
X82361904Y-124398571D01*
X82266666Y-124446190D01*
X81885714Y-124446190D01*
X83409523Y-124922380D02*
X82838095Y-124922380D01*
X83123809Y-124922380D02*
X83123809Y-123922380D01*
X83028571Y-124065238D01*
X82933333Y-124160476D01*
X82838095Y-124208095D01*
X83980952Y-124350952D02*
X83885714Y-124303333D01*
X83838095Y-124255714D01*
X83790476Y-124160476D01*
X83790476Y-124112857D01*
X83838095Y-124017619D01*
X83885714Y-123970000D01*
X83980952Y-123922380D01*
X84171428Y-123922380D01*
X84266666Y-123970000D01*
X84314285Y-124017619D01*
X84361904Y-124112857D01*
X84361904Y-124160476D01*
X84314285Y-124255714D01*
X84266666Y-124303333D01*
X84171428Y-124350952D01*
X83980952Y-124350952D01*
X83885714Y-124398571D01*
X83838095Y-124446190D01*
X83790476Y-124541428D01*
X83790476Y-124731904D01*
X83838095Y-124827142D01*
X83885714Y-124874761D01*
X83980952Y-124922380D01*
X84171428Y-124922380D01*
X84266666Y-124874761D01*
X84314285Y-124827142D01*
X84361904Y-124731904D01*
X84361904Y-124541428D01*
X84314285Y-124446190D01*
X84266666Y-124398571D01*
X84171428Y-124350952D01*
X98107142Y-81752380D02*
X97773809Y-81276190D01*
X97535714Y-81752380D02*
X97535714Y-80752380D01*
X97916666Y-80752380D01*
X98011904Y-80800000D01*
X98059523Y-80847619D01*
X98107142Y-80942857D01*
X98107142Y-81085714D01*
X98059523Y-81180952D01*
X98011904Y-81228571D01*
X97916666Y-81276190D01*
X97535714Y-81276190D01*
X99059523Y-81752380D02*
X98488095Y-81752380D01*
X98773809Y-81752380D02*
X98773809Y-80752380D01*
X98678571Y-80895238D01*
X98583333Y-80990476D01*
X98488095Y-81038095D01*
X99535714Y-81752380D02*
X99726190Y-81752380D01*
X99821428Y-81704761D01*
X99869047Y-81657142D01*
X99964285Y-81514285D01*
X100011904Y-81323809D01*
X100011904Y-80942857D01*
X99964285Y-80847619D01*
X99916666Y-80800000D01*
X99821428Y-80752380D01*
X99630952Y-80752380D01*
X99535714Y-80800000D01*
X99488095Y-80847619D01*
X99440476Y-80942857D01*
X99440476Y-81180952D01*
X99488095Y-81276190D01*
X99535714Y-81323809D01*
X99630952Y-81371428D01*
X99821428Y-81371428D01*
X99916666Y-81323809D01*
X99964285Y-81276190D01*
X100011904Y-81180952D01*
X98107142Y-84252380D02*
X97773809Y-83776190D01*
X97535714Y-84252380D02*
X97535714Y-83252380D01*
X97916666Y-83252380D01*
X98011904Y-83300000D01*
X98059523Y-83347619D01*
X98107142Y-83442857D01*
X98107142Y-83585714D01*
X98059523Y-83680952D01*
X98011904Y-83728571D01*
X97916666Y-83776190D01*
X97535714Y-83776190D01*
X98488095Y-83347619D02*
X98535714Y-83300000D01*
X98630952Y-83252380D01*
X98869047Y-83252380D01*
X98964285Y-83300000D01*
X99011904Y-83347619D01*
X99059523Y-83442857D01*
X99059523Y-83538095D01*
X99011904Y-83680952D01*
X98440476Y-84252380D01*
X99059523Y-84252380D01*
X99678571Y-83252380D02*
X99773809Y-83252380D01*
X99869047Y-83300000D01*
X99916666Y-83347619D01*
X99964285Y-83442857D01*
X100011904Y-83633333D01*
X100011904Y-83871428D01*
X99964285Y-84061904D01*
X99916666Y-84157142D01*
X99869047Y-84204761D01*
X99773809Y-84252380D01*
X99678571Y-84252380D01*
X99583333Y-84204761D01*
X99535714Y-84157142D01*
X99488095Y-84061904D01*
X99440476Y-83871428D01*
X99440476Y-83633333D01*
X99488095Y-83442857D01*
X99535714Y-83347619D01*
X99583333Y-83300000D01*
X99678571Y-83252380D01*
X98107142Y-86802380D02*
X97773809Y-86326190D01*
X97535714Y-86802380D02*
X97535714Y-85802380D01*
X97916666Y-85802380D01*
X98011904Y-85850000D01*
X98059523Y-85897619D01*
X98107142Y-85992857D01*
X98107142Y-86135714D01*
X98059523Y-86230952D01*
X98011904Y-86278571D01*
X97916666Y-86326190D01*
X97535714Y-86326190D01*
X98488095Y-85897619D02*
X98535714Y-85850000D01*
X98630952Y-85802380D01*
X98869047Y-85802380D01*
X98964285Y-85850000D01*
X99011904Y-85897619D01*
X99059523Y-85992857D01*
X99059523Y-86088095D01*
X99011904Y-86230952D01*
X98440476Y-86802380D01*
X99059523Y-86802380D01*
X100011904Y-86802380D02*
X99440476Y-86802380D01*
X99726190Y-86802380D02*
X99726190Y-85802380D01*
X99630952Y-85945238D01*
X99535714Y-86040476D01*
X99440476Y-86088095D01*
X98107142Y-89352380D02*
X97773809Y-88876190D01*
X97535714Y-89352380D02*
X97535714Y-88352380D01*
X97916666Y-88352380D01*
X98011904Y-88400000D01*
X98059523Y-88447619D01*
X98107142Y-88542857D01*
X98107142Y-88685714D01*
X98059523Y-88780952D01*
X98011904Y-88828571D01*
X97916666Y-88876190D01*
X97535714Y-88876190D01*
X98488095Y-88447619D02*
X98535714Y-88400000D01*
X98630952Y-88352380D01*
X98869047Y-88352380D01*
X98964285Y-88400000D01*
X99011904Y-88447619D01*
X99059523Y-88542857D01*
X99059523Y-88638095D01*
X99011904Y-88780952D01*
X98440476Y-89352380D01*
X99059523Y-89352380D01*
X99440476Y-88447619D02*
X99488095Y-88400000D01*
X99583333Y-88352380D01*
X99821428Y-88352380D01*
X99916666Y-88400000D01*
X99964285Y-88447619D01*
X100011904Y-88542857D01*
X100011904Y-88638095D01*
X99964285Y-88780952D01*
X99392857Y-89352380D01*
X100011904Y-89352380D01*
X98107142Y-91902380D02*
X97773809Y-91426190D01*
X97535714Y-91902380D02*
X97535714Y-90902380D01*
X97916666Y-90902380D01*
X98011904Y-90950000D01*
X98059523Y-90997619D01*
X98107142Y-91092857D01*
X98107142Y-91235714D01*
X98059523Y-91330952D01*
X98011904Y-91378571D01*
X97916666Y-91426190D01*
X97535714Y-91426190D01*
X98488095Y-90997619D02*
X98535714Y-90950000D01*
X98630952Y-90902380D01*
X98869047Y-90902380D01*
X98964285Y-90950000D01*
X99011904Y-90997619D01*
X99059523Y-91092857D01*
X99059523Y-91188095D01*
X99011904Y-91330952D01*
X98440476Y-91902380D01*
X99059523Y-91902380D01*
X99392857Y-90902380D02*
X100011904Y-90902380D01*
X99678571Y-91283333D01*
X99821428Y-91283333D01*
X99916666Y-91330952D01*
X99964285Y-91378571D01*
X100011904Y-91473809D01*
X100011904Y-91711904D01*
X99964285Y-91807142D01*
X99916666Y-91854761D01*
X99821428Y-91902380D01*
X99535714Y-91902380D01*
X99440476Y-91854761D01*
X99392857Y-91807142D01*
X98107142Y-94402380D02*
X97773809Y-93926190D01*
X97535714Y-94402380D02*
X97535714Y-93402380D01*
X97916666Y-93402380D01*
X98011904Y-93450000D01*
X98059523Y-93497619D01*
X98107142Y-93592857D01*
X98107142Y-93735714D01*
X98059523Y-93830952D01*
X98011904Y-93878571D01*
X97916666Y-93926190D01*
X97535714Y-93926190D01*
X98488095Y-93497619D02*
X98535714Y-93450000D01*
X98630952Y-93402380D01*
X98869047Y-93402380D01*
X98964285Y-93450000D01*
X99011904Y-93497619D01*
X99059523Y-93592857D01*
X99059523Y-93688095D01*
X99011904Y-93830952D01*
X98440476Y-94402380D01*
X99059523Y-94402380D01*
X99916666Y-93735714D02*
X99916666Y-94402380D01*
X99678571Y-93354761D02*
X99440476Y-94069047D01*
X100059523Y-94069047D01*
X98107142Y-96952380D02*
X97773809Y-96476190D01*
X97535714Y-96952380D02*
X97535714Y-95952380D01*
X97916666Y-95952380D01*
X98011904Y-96000000D01*
X98059523Y-96047619D01*
X98107142Y-96142857D01*
X98107142Y-96285714D01*
X98059523Y-96380952D01*
X98011904Y-96428571D01*
X97916666Y-96476190D01*
X97535714Y-96476190D01*
X98488095Y-96047619D02*
X98535714Y-96000000D01*
X98630952Y-95952380D01*
X98869047Y-95952380D01*
X98964285Y-96000000D01*
X99011904Y-96047619D01*
X99059523Y-96142857D01*
X99059523Y-96238095D01*
X99011904Y-96380952D01*
X98440476Y-96952380D01*
X99059523Y-96952380D01*
X99964285Y-95952380D02*
X99488095Y-95952380D01*
X99440476Y-96428571D01*
X99488095Y-96380952D01*
X99583333Y-96333333D01*
X99821428Y-96333333D01*
X99916666Y-96380952D01*
X99964285Y-96428571D01*
X100011904Y-96523809D01*
X100011904Y-96761904D01*
X99964285Y-96857142D01*
X99916666Y-96904761D01*
X99821428Y-96952380D01*
X99583333Y-96952380D01*
X99488095Y-96904761D01*
X99440476Y-96857142D01*
X98107142Y-99502380D02*
X97773809Y-99026190D01*
X97535714Y-99502380D02*
X97535714Y-98502380D01*
X97916666Y-98502380D01*
X98011904Y-98550000D01*
X98059523Y-98597619D01*
X98107142Y-98692857D01*
X98107142Y-98835714D01*
X98059523Y-98930952D01*
X98011904Y-98978571D01*
X97916666Y-99026190D01*
X97535714Y-99026190D01*
X98488095Y-98597619D02*
X98535714Y-98550000D01*
X98630952Y-98502380D01*
X98869047Y-98502380D01*
X98964285Y-98550000D01*
X99011904Y-98597619D01*
X99059523Y-98692857D01*
X99059523Y-98788095D01*
X99011904Y-98930952D01*
X98440476Y-99502380D01*
X99059523Y-99502380D01*
X99916666Y-98502380D02*
X99726190Y-98502380D01*
X99630952Y-98550000D01*
X99583333Y-98597619D01*
X99488095Y-98740476D01*
X99440476Y-98930952D01*
X99440476Y-99311904D01*
X99488095Y-99407142D01*
X99535714Y-99454761D01*
X99630952Y-99502380D01*
X99821428Y-99502380D01*
X99916666Y-99454761D01*
X99964285Y-99407142D01*
X100011904Y-99311904D01*
X100011904Y-99073809D01*
X99964285Y-98978571D01*
X99916666Y-98930952D01*
X99821428Y-98883333D01*
X99630952Y-98883333D01*
X99535714Y-98930952D01*
X99488095Y-98978571D01*
X99440476Y-99073809D01*
X98107142Y-102052380D02*
X97773809Y-101576190D01*
X97535714Y-102052380D02*
X97535714Y-101052380D01*
X97916666Y-101052380D01*
X98011904Y-101100000D01*
X98059523Y-101147619D01*
X98107142Y-101242857D01*
X98107142Y-101385714D01*
X98059523Y-101480952D01*
X98011904Y-101528571D01*
X97916666Y-101576190D01*
X97535714Y-101576190D01*
X98488095Y-101147619D02*
X98535714Y-101100000D01*
X98630952Y-101052380D01*
X98869047Y-101052380D01*
X98964285Y-101100000D01*
X99011904Y-101147619D01*
X99059523Y-101242857D01*
X99059523Y-101338095D01*
X99011904Y-101480952D01*
X98440476Y-102052380D01*
X99059523Y-102052380D01*
X99392857Y-101052380D02*
X100059523Y-101052380D01*
X99630952Y-102052380D01*
X98107142Y-124902380D02*
X97773809Y-124426190D01*
X97535714Y-124902380D02*
X97535714Y-123902380D01*
X97916666Y-123902380D01*
X98011904Y-123950000D01*
X98059523Y-123997619D01*
X98107142Y-124092857D01*
X98107142Y-124235714D01*
X98059523Y-124330952D01*
X98011904Y-124378571D01*
X97916666Y-124426190D01*
X97535714Y-124426190D01*
X98488095Y-123997619D02*
X98535714Y-123950000D01*
X98630952Y-123902380D01*
X98869047Y-123902380D01*
X98964285Y-123950000D01*
X99011904Y-123997619D01*
X99059523Y-124092857D01*
X99059523Y-124188095D01*
X99011904Y-124330952D01*
X98440476Y-124902380D01*
X99059523Y-124902380D01*
X99630952Y-124330952D02*
X99535714Y-124283333D01*
X99488095Y-124235714D01*
X99440476Y-124140476D01*
X99440476Y-124092857D01*
X99488095Y-123997619D01*
X99535714Y-123950000D01*
X99630952Y-123902380D01*
X99821428Y-123902380D01*
X99916666Y-123950000D01*
X99964285Y-123997619D01*
X100011904Y-124092857D01*
X100011904Y-124140476D01*
X99964285Y-124235714D01*
X99916666Y-124283333D01*
X99821428Y-124330952D01*
X99630952Y-124330952D01*
X99535714Y-124378571D01*
X99488095Y-124426190D01*
X99440476Y-124521428D01*
X99440476Y-124711904D01*
X99488095Y-124807142D01*
X99535714Y-124854761D01*
X99630952Y-124902380D01*
X99821428Y-124902380D01*
X99916666Y-124854761D01*
X99964285Y-124807142D01*
X100011904Y-124711904D01*
X100011904Y-124521428D01*
X99964285Y-124426190D01*
X99916666Y-124378571D01*
X99821428Y-124330952D01*
X98107142Y-122402380D02*
X97773809Y-121926190D01*
X97535714Y-122402380D02*
X97535714Y-121402380D01*
X97916666Y-121402380D01*
X98011904Y-121450000D01*
X98059523Y-121497619D01*
X98107142Y-121592857D01*
X98107142Y-121735714D01*
X98059523Y-121830952D01*
X98011904Y-121878571D01*
X97916666Y-121926190D01*
X97535714Y-121926190D01*
X98488095Y-121497619D02*
X98535714Y-121450000D01*
X98630952Y-121402380D01*
X98869047Y-121402380D01*
X98964285Y-121450000D01*
X99011904Y-121497619D01*
X99059523Y-121592857D01*
X99059523Y-121688095D01*
X99011904Y-121830952D01*
X98440476Y-122402380D01*
X99059523Y-122402380D01*
X99535714Y-122402380D02*
X99726190Y-122402380D01*
X99821428Y-122354761D01*
X99869047Y-122307142D01*
X99964285Y-122164285D01*
X100011904Y-121973809D01*
X100011904Y-121592857D01*
X99964285Y-121497619D01*
X99916666Y-121450000D01*
X99821428Y-121402380D01*
X99630952Y-121402380D01*
X99535714Y-121450000D01*
X99488095Y-121497619D01*
X99440476Y-121592857D01*
X99440476Y-121830952D01*
X99488095Y-121926190D01*
X99535714Y-121973809D01*
X99630952Y-122021428D01*
X99821428Y-122021428D01*
X99916666Y-121973809D01*
X99964285Y-121926190D01*
X100011904Y-121830952D01*
X98107142Y-119852380D02*
X97773809Y-119376190D01*
X97535714Y-119852380D02*
X97535714Y-118852380D01*
X97916666Y-118852380D01*
X98011904Y-118900000D01*
X98059523Y-118947619D01*
X98107142Y-119042857D01*
X98107142Y-119185714D01*
X98059523Y-119280952D01*
X98011904Y-119328571D01*
X97916666Y-119376190D01*
X97535714Y-119376190D01*
X98440476Y-118852380D02*
X99059523Y-118852380D01*
X98726190Y-119233333D01*
X98869047Y-119233333D01*
X98964285Y-119280952D01*
X99011904Y-119328571D01*
X99059523Y-119423809D01*
X99059523Y-119661904D01*
X99011904Y-119757142D01*
X98964285Y-119804761D01*
X98869047Y-119852380D01*
X98583333Y-119852380D01*
X98488095Y-119804761D01*
X98440476Y-119757142D01*
X99678571Y-118852380D02*
X99773809Y-118852380D01*
X99869047Y-118900000D01*
X99916666Y-118947619D01*
X99964285Y-119042857D01*
X100011904Y-119233333D01*
X100011904Y-119471428D01*
X99964285Y-119661904D01*
X99916666Y-119757142D01*
X99869047Y-119804761D01*
X99773809Y-119852380D01*
X99678571Y-119852380D01*
X99583333Y-119804761D01*
X99535714Y-119757142D01*
X99488095Y-119661904D01*
X99440476Y-119471428D01*
X99440476Y-119233333D01*
X99488095Y-119042857D01*
X99535714Y-118947619D01*
X99583333Y-118900000D01*
X99678571Y-118852380D01*
X98107142Y-117302380D02*
X97773809Y-116826190D01*
X97535714Y-117302380D02*
X97535714Y-116302380D01*
X97916666Y-116302380D01*
X98011904Y-116350000D01*
X98059523Y-116397619D01*
X98107142Y-116492857D01*
X98107142Y-116635714D01*
X98059523Y-116730952D01*
X98011904Y-116778571D01*
X97916666Y-116826190D01*
X97535714Y-116826190D01*
X98440476Y-116302380D02*
X99059523Y-116302380D01*
X98726190Y-116683333D01*
X98869047Y-116683333D01*
X98964285Y-116730952D01*
X99011904Y-116778571D01*
X99059523Y-116873809D01*
X99059523Y-117111904D01*
X99011904Y-117207142D01*
X98964285Y-117254761D01*
X98869047Y-117302380D01*
X98583333Y-117302380D01*
X98488095Y-117254761D01*
X98440476Y-117207142D01*
X100011904Y-117302380D02*
X99440476Y-117302380D01*
X99726190Y-117302380D02*
X99726190Y-116302380D01*
X99630952Y-116445238D01*
X99535714Y-116540476D01*
X99440476Y-116588095D01*
X98107142Y-114752380D02*
X97773809Y-114276190D01*
X97535714Y-114752380D02*
X97535714Y-113752380D01*
X97916666Y-113752380D01*
X98011904Y-113800000D01*
X98059523Y-113847619D01*
X98107142Y-113942857D01*
X98107142Y-114085714D01*
X98059523Y-114180952D01*
X98011904Y-114228571D01*
X97916666Y-114276190D01*
X97535714Y-114276190D01*
X98440476Y-113752380D02*
X99059523Y-113752380D01*
X98726190Y-114133333D01*
X98869047Y-114133333D01*
X98964285Y-114180952D01*
X99011904Y-114228571D01*
X99059523Y-114323809D01*
X99059523Y-114561904D01*
X99011904Y-114657142D01*
X98964285Y-114704761D01*
X98869047Y-114752380D01*
X98583333Y-114752380D01*
X98488095Y-114704761D01*
X98440476Y-114657142D01*
X99440476Y-113847619D02*
X99488095Y-113800000D01*
X99583333Y-113752380D01*
X99821428Y-113752380D01*
X99916666Y-113800000D01*
X99964285Y-113847619D01*
X100011904Y-113942857D01*
X100011904Y-114038095D01*
X99964285Y-114180952D01*
X99392857Y-114752380D01*
X100011904Y-114752380D01*
X98107142Y-112252380D02*
X97773809Y-111776190D01*
X97535714Y-112252380D02*
X97535714Y-111252380D01*
X97916666Y-111252380D01*
X98011904Y-111300000D01*
X98059523Y-111347619D01*
X98107142Y-111442857D01*
X98107142Y-111585714D01*
X98059523Y-111680952D01*
X98011904Y-111728571D01*
X97916666Y-111776190D01*
X97535714Y-111776190D01*
X98440476Y-111252380D02*
X99059523Y-111252380D01*
X98726190Y-111633333D01*
X98869047Y-111633333D01*
X98964285Y-111680952D01*
X99011904Y-111728571D01*
X99059523Y-111823809D01*
X99059523Y-112061904D01*
X99011904Y-112157142D01*
X98964285Y-112204761D01*
X98869047Y-112252380D01*
X98583333Y-112252380D01*
X98488095Y-112204761D01*
X98440476Y-112157142D01*
X99392857Y-111252380D02*
X100011904Y-111252380D01*
X99678571Y-111633333D01*
X99821428Y-111633333D01*
X99916666Y-111680952D01*
X99964285Y-111728571D01*
X100011904Y-111823809D01*
X100011904Y-112061904D01*
X99964285Y-112157142D01*
X99916666Y-112204761D01*
X99821428Y-112252380D01*
X99535714Y-112252380D01*
X99440476Y-112204761D01*
X99392857Y-112157142D01*
X98107142Y-109652380D02*
X97773809Y-109176190D01*
X97535714Y-109652380D02*
X97535714Y-108652380D01*
X97916666Y-108652380D01*
X98011904Y-108700000D01*
X98059523Y-108747619D01*
X98107142Y-108842857D01*
X98107142Y-108985714D01*
X98059523Y-109080952D01*
X98011904Y-109128571D01*
X97916666Y-109176190D01*
X97535714Y-109176190D01*
X98440476Y-108652380D02*
X99059523Y-108652380D01*
X98726190Y-109033333D01*
X98869047Y-109033333D01*
X98964285Y-109080952D01*
X99011904Y-109128571D01*
X99059523Y-109223809D01*
X99059523Y-109461904D01*
X99011904Y-109557142D01*
X98964285Y-109604761D01*
X98869047Y-109652380D01*
X98583333Y-109652380D01*
X98488095Y-109604761D01*
X98440476Y-109557142D01*
X99916666Y-108985714D02*
X99916666Y-109652380D01*
X99678571Y-108604761D02*
X99440476Y-109319047D01*
X100059523Y-109319047D01*
X98107142Y-107152380D02*
X97773809Y-106676190D01*
X97535714Y-107152380D02*
X97535714Y-106152380D01*
X97916666Y-106152380D01*
X98011904Y-106200000D01*
X98059523Y-106247619D01*
X98107142Y-106342857D01*
X98107142Y-106485714D01*
X98059523Y-106580952D01*
X98011904Y-106628571D01*
X97916666Y-106676190D01*
X97535714Y-106676190D01*
X98440476Y-106152380D02*
X99059523Y-106152380D01*
X98726190Y-106533333D01*
X98869047Y-106533333D01*
X98964285Y-106580952D01*
X99011904Y-106628571D01*
X99059523Y-106723809D01*
X99059523Y-106961904D01*
X99011904Y-107057142D01*
X98964285Y-107104761D01*
X98869047Y-107152380D01*
X98583333Y-107152380D01*
X98488095Y-107104761D01*
X98440476Y-107057142D01*
X99964285Y-106152380D02*
X99488095Y-106152380D01*
X99440476Y-106628571D01*
X99488095Y-106580952D01*
X99583333Y-106533333D01*
X99821428Y-106533333D01*
X99916666Y-106580952D01*
X99964285Y-106628571D01*
X100011904Y-106723809D01*
X100011904Y-106961904D01*
X99964285Y-107057142D01*
X99916666Y-107104761D01*
X99821428Y-107152380D01*
X99583333Y-107152380D01*
X99488095Y-107104761D01*
X99440476Y-107057142D01*
X98107142Y-104602380D02*
X97773809Y-104126190D01*
X97535714Y-104602380D02*
X97535714Y-103602380D01*
X97916666Y-103602380D01*
X98011904Y-103650000D01*
X98059523Y-103697619D01*
X98107142Y-103792857D01*
X98107142Y-103935714D01*
X98059523Y-104030952D01*
X98011904Y-104078571D01*
X97916666Y-104126190D01*
X97535714Y-104126190D01*
X98440476Y-103602380D02*
X99059523Y-103602380D01*
X98726190Y-103983333D01*
X98869047Y-103983333D01*
X98964285Y-104030952D01*
X99011904Y-104078571D01*
X99059523Y-104173809D01*
X99059523Y-104411904D01*
X99011904Y-104507142D01*
X98964285Y-104554761D01*
X98869047Y-104602380D01*
X98583333Y-104602380D01*
X98488095Y-104554761D01*
X98440476Y-104507142D01*
X99916666Y-103602380D02*
X99726190Y-103602380D01*
X99630952Y-103650000D01*
X99583333Y-103697619D01*
X99488095Y-103840476D01*
X99440476Y-104030952D01*
X99440476Y-104411904D01*
X99488095Y-104507142D01*
X99535714Y-104554761D01*
X99630952Y-104602380D01*
X99821428Y-104602380D01*
X99916666Y-104554761D01*
X99964285Y-104507142D01*
X100011904Y-104411904D01*
X100011904Y-104173809D01*
X99964285Y-104078571D01*
X99916666Y-104030952D01*
X99821428Y-103983333D01*
X99630952Y-103983333D01*
X99535714Y-104030952D01*
X99488095Y-104078571D01*
X99440476Y-104173809D01*
X101878095Y-91042380D02*
X101878095Y-91851904D01*
X101925714Y-91947142D01*
X101973333Y-91994761D01*
X102068571Y-92042380D01*
X102259047Y-92042380D01*
X102354285Y-91994761D01*
X102401904Y-91947142D01*
X102449523Y-91851904D01*
X102449523Y-91042380D01*
X103449523Y-92042380D02*
X102878095Y-92042380D01*
X103163809Y-92042380D02*
X103163809Y-91042380D01*
X103068571Y-91185238D01*
X102973333Y-91280476D01*
X102878095Y-91328095D01*
X149024285Y-100784761D02*
X149152857Y-100832380D01*
X149367142Y-100832380D01*
X149452857Y-100784761D01*
X149495714Y-100737142D01*
X149538571Y-100641904D01*
X149538571Y-100546666D01*
X149495714Y-100451428D01*
X149452857Y-100403809D01*
X149367142Y-100356190D01*
X149195714Y-100308571D01*
X149110000Y-100260952D01*
X149067142Y-100213333D01*
X149024285Y-100118095D01*
X149024285Y-100022857D01*
X149067142Y-99927619D01*
X149110000Y-99880000D01*
X149195714Y-99832380D01*
X149410000Y-99832380D01*
X149538571Y-99880000D01*
X149838571Y-99832380D02*
X150052857Y-100832380D01*
X150224285Y-100118095D01*
X150395714Y-100832380D01*
X150610000Y-99832380D01*
X151467142Y-100737142D02*
X151424285Y-100784761D01*
X151295714Y-100832380D01*
X151210000Y-100832380D01*
X151081428Y-100784761D01*
X150995714Y-100689523D01*
X150952857Y-100594285D01*
X150910000Y-100403809D01*
X150910000Y-100260952D01*
X150952857Y-100070476D01*
X150995714Y-99975238D01*
X151081428Y-99880000D01*
X151210000Y-99832380D01*
X151295714Y-99832380D01*
X151424285Y-99880000D01*
X151467142Y-99927619D01*
X152281428Y-100832380D02*
X151852857Y-100832380D01*
X151852857Y-99832380D01*
X152581428Y-100832380D02*
X152581428Y-99832380D01*
X153095714Y-100832380D02*
X152710000Y-100260952D01*
X153095714Y-99832380D02*
X152581428Y-100403809D01*
X149055142Y-103324761D02*
X149183714Y-103372380D01*
X149398000Y-103372380D01*
X149483714Y-103324761D01*
X149526571Y-103277142D01*
X149569428Y-103181904D01*
X149569428Y-103086666D01*
X149526571Y-102991428D01*
X149483714Y-102943809D01*
X149398000Y-102896190D01*
X149226571Y-102848571D01*
X149140857Y-102800952D01*
X149098000Y-102753333D01*
X149055142Y-102658095D01*
X149055142Y-102562857D01*
X149098000Y-102467619D01*
X149140857Y-102420000D01*
X149226571Y-102372380D01*
X149440857Y-102372380D01*
X149569428Y-102420000D01*
X149869428Y-102372380D02*
X150083714Y-103372380D01*
X150255142Y-102658095D01*
X150426571Y-103372380D01*
X150640857Y-102372380D01*
X151155142Y-102372380D02*
X151326571Y-102372380D01*
X151412285Y-102420000D01*
X151498000Y-102515238D01*
X151540857Y-102705714D01*
X151540857Y-103039047D01*
X151498000Y-103229523D01*
X151412285Y-103324761D01*
X151326571Y-103372380D01*
X151155142Y-103372380D01*
X151069428Y-103324761D01*
X150983714Y-103229523D01*
X150940857Y-103039047D01*
X150940857Y-102705714D01*
X150983714Y-102515238D01*
X151069428Y-102420000D01*
X151155142Y-102372380D01*
X149183714Y-104912380D02*
X149740857Y-104912380D01*
X149440857Y-105293333D01*
X149569428Y-105293333D01*
X149655142Y-105340952D01*
X149698000Y-105388571D01*
X149740857Y-105483809D01*
X149740857Y-105721904D01*
X149698000Y-105817142D01*
X149655142Y-105864761D01*
X149569428Y-105912380D01*
X149312285Y-105912380D01*
X149226571Y-105864761D01*
X149183714Y-105817142D01*
X149998000Y-104912380D02*
X150298000Y-105912380D01*
X150598000Y-104912380D01*
X150812285Y-104912380D02*
X151369428Y-104912380D01*
X151069428Y-105293333D01*
X151198000Y-105293333D01*
X151283714Y-105340952D01*
X151326571Y-105388571D01*
X151369428Y-105483809D01*
X151369428Y-105721904D01*
X151326571Y-105817142D01*
X151283714Y-105864761D01*
X151198000Y-105912380D01*
X150940857Y-105912380D01*
X150855142Y-105864761D01*
X150812285Y-105817142D01*
X102252380Y-103031904D02*
X103061904Y-103031904D01*
X103157142Y-102984285D01*
X103204761Y-102936666D01*
X103252380Y-102841428D01*
X103252380Y-102650952D01*
X103204761Y-102555714D01*
X103157142Y-102508095D01*
X103061904Y-102460476D01*
X102252380Y-102460476D01*
X103204761Y-102031904D02*
X103252380Y-101889047D01*
X103252380Y-101650952D01*
X103204761Y-101555714D01*
X103157142Y-101508095D01*
X103061904Y-101460476D01*
X102966666Y-101460476D01*
X102871428Y-101508095D01*
X102823809Y-101555714D01*
X102776190Y-101650952D01*
X102728571Y-101841428D01*
X102680952Y-101936666D01*
X102633333Y-101984285D01*
X102538095Y-102031904D01*
X102442857Y-102031904D01*
X102347619Y-101984285D01*
X102300000Y-101936666D01*
X102252380Y-101841428D01*
X102252380Y-101603333D01*
X102300000Y-101460476D01*
X102728571Y-100698571D02*
X102776190Y-100555714D01*
X102823809Y-100508095D01*
X102919047Y-100460476D01*
X103061904Y-100460476D01*
X103157142Y-100508095D01*
X103204761Y-100555714D01*
X103252380Y-100650952D01*
X103252380Y-101031904D01*
X102252380Y-101031904D01*
X102252380Y-100698571D01*
X102300000Y-100603333D01*
X102347619Y-100555714D01*
X102442857Y-100508095D01*
X102538095Y-100508095D01*
X102633333Y-100555714D01*
X102680952Y-100603333D01*
X102728571Y-100698571D01*
X102728571Y-101031904D01*
X149612285Y-97340000D02*
X149526571Y-97292380D01*
X149398000Y-97292380D01*
X149269428Y-97340000D01*
X149183714Y-97435238D01*
X149140857Y-97530476D01*
X149098000Y-97720952D01*
X149098000Y-97863809D01*
X149140857Y-98054285D01*
X149183714Y-98149523D01*
X149269428Y-98244761D01*
X149398000Y-98292380D01*
X149483714Y-98292380D01*
X149612285Y-98244761D01*
X149655142Y-98197142D01*
X149655142Y-97863809D01*
X149483714Y-97863809D01*
X150040857Y-98292380D02*
X150040857Y-97292380D01*
X150555142Y-98292380D01*
X150555142Y-97292380D01*
X150983714Y-98292380D02*
X150983714Y-97292380D01*
X151198000Y-97292380D01*
X151326571Y-97340000D01*
X151412285Y-97435238D01*
X151455142Y-97530476D01*
X151498000Y-97720952D01*
X151498000Y-97863809D01*
X151455142Y-98054285D01*
X151412285Y-98149523D01*
X151326571Y-98244761D01*
X151198000Y-98292380D01*
X150983714Y-98292380D01*
X83433333Y-96952380D02*
X83100000Y-96476190D01*
X82861904Y-96952380D02*
X82861904Y-95952380D01*
X83242857Y-95952380D01*
X83338095Y-96000000D01*
X83385714Y-96047619D01*
X83433333Y-96142857D01*
X83433333Y-96285714D01*
X83385714Y-96380952D01*
X83338095Y-96428571D01*
X83242857Y-96476190D01*
X82861904Y-96476190D01*
X83766666Y-95952380D02*
X84433333Y-95952380D01*
X84004761Y-96952380D01*
X161912270Y-94626555D02*
X161912270Y-93626555D01*
X161912270Y-94102746D02*
X162483698Y-94102746D01*
X162483698Y-94626555D02*
X162483698Y-93626555D01*
X162912270Y-93721794D02*
X162959889Y-93674175D01*
X163055127Y-93626555D01*
X163293222Y-93626555D01*
X163388460Y-93674175D01*
X163436079Y-93721794D01*
X163483698Y-93817032D01*
X163483698Y-93912270D01*
X163436079Y-94055127D01*
X162864651Y-94626555D01*
X163483698Y-94626555D01*
D10*
X167232500Y-80120000D02*
X167232500Y-78890000D01*
X156962500Y-91070000D02*
X161412500Y-91070000D01*
X167232500Y-91070000D02*
X167232500Y-88390000D01*
X167232500Y-86090000D02*
X167232500Y-82420000D01*
X162812500Y-91070000D02*
X165112500Y-91070000D01*
X167232500Y-78890000D02*
X157412500Y-78890000D01*
X166512500Y-91070000D02*
X167232500Y-91070000D01*
X155592500Y-89590000D02*
X155592500Y-88730000D01*
X108620000Y-83230000D02*
X108620000Y-80630000D01*
X109950000Y-85830000D02*
X108620000Y-85830000D01*
X108620000Y-85830000D02*
X108620000Y-84500000D01*
X111280000Y-80630000D02*
X108620000Y-80630000D01*
X111280000Y-83230000D02*
X111280000Y-80630000D01*
X111280000Y-83230000D02*
X108620000Y-83230000D01*
X115130000Y-77990000D02*
X112470000Y-77990000D01*
X112470000Y-85730000D02*
X112470000Y-84400000D01*
X115130000Y-83130000D02*
X115130000Y-77990000D01*
X113800000Y-85730000D02*
X112470000Y-85730000D01*
X115130000Y-83130000D02*
X112470000Y-83130000D01*
X112470000Y-83130000D02*
X112470000Y-77990000D01*
X88207064Y-80370000D02*
X86752936Y-80370000D01*
X88207064Y-82190000D02*
X86752936Y-82190000D01*
X88207064Y-82910000D02*
X86752936Y-82910000D01*
X88207064Y-84730000D02*
X86752936Y-84730000D01*
X88207064Y-87270000D02*
X86752936Y-87270000D01*
X88207064Y-85450000D02*
X86752936Y-85450000D01*
X88207064Y-87990000D02*
X86752936Y-87990000D01*
X88207064Y-89810000D02*
X86752936Y-89810000D01*
X88207064Y-90530000D02*
X86752936Y-90530000D01*
X88207064Y-92350000D02*
X86752936Y-92350000D01*
X88207064Y-93070000D02*
X86752936Y-93070000D01*
X88207064Y-94890000D02*
X86752936Y-94890000D01*
X88207064Y-98150000D02*
X86752936Y-98150000D01*
X88207064Y-99970000D02*
X86752936Y-99970000D01*
X88207064Y-102510000D02*
X86752936Y-102510000D01*
X88207064Y-100690000D02*
X86752936Y-100690000D01*
X88227064Y-105050000D02*
X86772936Y-105050000D01*
X88227064Y-103230000D02*
X86772936Y-103230000D01*
X88227064Y-107590000D02*
X86772936Y-107590000D01*
X88227064Y-105770000D02*
X86772936Y-105770000D01*
X88227064Y-110130000D02*
X86772936Y-110130000D01*
X88227064Y-108310000D02*
X86772936Y-108310000D01*
X88227064Y-112670000D02*
X86772936Y-112670000D01*
X88227064Y-110850000D02*
X86772936Y-110850000D01*
X88227064Y-113390000D02*
X86772936Y-113390000D01*
X88227064Y-115210000D02*
X86772936Y-115210000D01*
X88227064Y-115930000D02*
X86772936Y-115930000D01*
X88227064Y-117750000D02*
X86772936Y-117750000D01*
X88227064Y-118470000D02*
X86772936Y-118470000D01*
X88227064Y-120290000D02*
X86772936Y-120290000D01*
X88227064Y-122820000D02*
X86772936Y-122820000D01*
X88227064Y-121000000D02*
X86772936Y-121000000D01*
X88177064Y-123550000D02*
X86722936Y-123550000D01*
X88177064Y-125370000D02*
X86722936Y-125370000D01*
X93772936Y-82190000D02*
X95227064Y-82190000D01*
X93772936Y-80370000D02*
X95227064Y-80370000D01*
X93772936Y-84730000D02*
X95227064Y-84730000D01*
X93772936Y-82910000D02*
X95227064Y-82910000D01*
X93772936Y-85450000D02*
X95227064Y-85450000D01*
X93772936Y-87270000D02*
X95227064Y-87270000D01*
X93772936Y-89810000D02*
X95227064Y-89810000D01*
X93772936Y-87990000D02*
X95227064Y-87990000D01*
X93772936Y-92350000D02*
X95227064Y-92350000D01*
X93772936Y-90530000D02*
X95227064Y-90530000D01*
X93772936Y-94890000D02*
X95227064Y-94890000D01*
X93772936Y-93070000D02*
X95227064Y-93070000D01*
X93772936Y-97430000D02*
X95227064Y-97430000D01*
X93772936Y-95610000D02*
X95227064Y-95610000D01*
X93772936Y-98150000D02*
X95227064Y-98150000D01*
X93772936Y-99970000D02*
X95227064Y-99970000D01*
X93772936Y-100690000D02*
X95227064Y-100690000D01*
X93772936Y-102510000D02*
X95227064Y-102510000D01*
X93772936Y-123550000D02*
X95227064Y-123550000D01*
X93772936Y-125370000D02*
X95227064Y-125370000D01*
X93772936Y-122830000D02*
X95227064Y-122830000D01*
X93772936Y-121010000D02*
X95227064Y-121010000D01*
X93772936Y-120290000D02*
X95227064Y-120290000D01*
X93772936Y-118470000D02*
X95227064Y-118470000D01*
X93772936Y-115930000D02*
X95227064Y-115930000D01*
X93772936Y-117750000D02*
X95227064Y-117750000D01*
X93772936Y-113390000D02*
X95227064Y-113390000D01*
X93772936Y-115210000D02*
X95227064Y-115210000D01*
X93772936Y-112670000D02*
X95227064Y-112670000D01*
X93772936Y-110850000D02*
X95227064Y-110850000D01*
X93772936Y-108310000D02*
X95227064Y-108310000D01*
X93772936Y-110130000D02*
X95227064Y-110130000D01*
X93772936Y-105770000D02*
X95227064Y-105770000D01*
X93772936Y-107590000D02*
X95227064Y-107590000D01*
X93772936Y-105050000D02*
X95227064Y-105050000D01*
X93772936Y-103230000D02*
X95227064Y-103230000D01*
X101079936Y-104846411D02*
X106090000Y-104846411D01*
X123130200Y-104061087D02*
X123342332Y-104273219D01*
X131474060Y-103353980D02*
X130766953Y-102646873D01*
X110202277Y-104162467D02*
X113002277Y-104162467D01*
X123342332Y-104273219D02*
X124049438Y-103566112D01*
X108702277Y-106912467D02*
X114502277Y-106912467D01*
X109861801Y-98528199D02*
X109861801Y-97891802D01*
X123130200Y-104061087D02*
X123837306Y-103353980D01*
X142452809Y-105442282D02*
X142452809Y-97642282D01*
X128999186Y-97202151D02*
X128292079Y-97909258D01*
X126898576Y-96615755D02*
X126998576Y-96615755D01*
X112401801Y-98528199D02*
X112401801Y-97891802D01*
X124544413Y-105475300D02*
X125251520Y-104768194D01*
X100745241Y-98075143D02*
X100430000Y-97797388D01*
X122423093Y-103353980D02*
X123130200Y-102646873D01*
X100573395Y-98800000D02*
X100573395Y-104500000D01*
X116530000Y-97240000D02*
X116230000Y-96940000D01*
X126998576Y-106415250D02*
X126898576Y-106415250D01*
X126898576Y-96615755D02*
X122048829Y-101465502D01*
X110031170Y-102021000D02*
X110065124Y-102021000D01*
X122635225Y-103566112D02*
X123342332Y-102859005D01*
X129706293Y-97909258D02*
X128999186Y-98616365D01*
X100592892Y-105687488D02*
X100909153Y-105408834D01*
X130059846Y-104768194D02*
X129847714Y-104980326D01*
X115578198Y-98528199D02*
X114941801Y-98528199D01*
X131120506Y-99323471D02*
X130413399Y-100030578D01*
X122635225Y-99464893D02*
X123342332Y-100172000D01*
X139052809Y-97542282D02*
X142352809Y-97542282D01*
X108852277Y-104162467D02*
X109502277Y-104162467D01*
X104070000Y-110600000D02*
X104070000Y-107940000D01*
X132181166Y-100384132D02*
X131474060Y-101091238D01*
X123483753Y-98616365D02*
X124190860Y-99323471D01*
X125251520Y-106182407D02*
X125958627Y-105475300D01*
X121715986Y-102646873D02*
X122423093Y-101939767D01*
X128292079Y-96495044D02*
X127584972Y-97202151D01*
X110498198Y-101068199D02*
X109861801Y-101068199D01*
X128079947Y-106748093D02*
X127372840Y-106040986D01*
X123695885Y-98404233D02*
X123483753Y-98616365D01*
X130554821Y-104273219D02*
X129847714Y-103566112D01*
X130201267Y-98404233D02*
X130413399Y-98616365D01*
X125463652Y-96636466D02*
X125251520Y-96848598D01*
X124544413Y-105475300D02*
X124756545Y-105687432D01*
X129352739Y-105475300D02*
X129140607Y-105687432D01*
X130413399Y-104414640D02*
X129706293Y-103707533D01*
X131261928Y-103566112D02*
X130554821Y-102859005D01*
X108602277Y-103512467D02*
X108602277Y-106812467D01*
X101074425Y-97953590D02*
X101071500Y-97953573D01*
X100430000Y-98800000D02*
X100430000Y-104500000D01*
X129140607Y-97343572D02*
X129352739Y-97555704D01*
X130908374Y-103919666D02*
X130201267Y-103212559D01*
X142452809Y-97642282D02*
X142452807Y-97641663D01*
X125605073Y-96495044D02*
X126312180Y-97202151D01*
X122069539Y-103000427D02*
X122776646Y-102293320D01*
X123342332Y-98757786D02*
X124049438Y-99464893D01*
X131120506Y-103707533D02*
X130413399Y-103000427D01*
X130908374Y-99111339D02*
X130201267Y-99818446D01*
X100780469Y-105522216D02*
X100617578Y-105337341D01*
X130201267Y-104626772D02*
X129494161Y-103919666D01*
X124897967Y-105828854D02*
X125110099Y-106040986D01*
X100573395Y-104500000D02*
X100430000Y-104500000D01*
X125817205Y-96282912D02*
X125605073Y-96495044D01*
X131615481Y-99818446D02*
X131827613Y-100030578D01*
X131827613Y-100030578D02*
X131120506Y-100737685D01*
X141343851Y-105458200D02*
X140061767Y-105458200D01*
X130554821Y-98757786D02*
X130766953Y-98969918D01*
X113320000Y-97610000D02*
X113320000Y-98810000D01*
X128787054Y-106040986D02*
X128079947Y-105333879D01*
X140261767Y-104849226D02*
X141143851Y-104849226D01*
X113890000Y-102020000D02*
X114290000Y-102020000D01*
X122988778Y-99111339D02*
X122776646Y-99323471D01*
X124402992Y-97697126D02*
X125110099Y-98404233D01*
X100634789Y-104750000D02*
X100980000Y-104750000D01*
X114941801Y-101068199D02*
X114941801Y-100431802D01*
X138952811Y-97641663D02*
X138952809Y-97642282D01*
X100745241Y-105224858D02*
X100430000Y-105502613D01*
X108909000Y-99938528D02*
X108909000Y-100127631D01*
X113702277Y-104162467D02*
X114352277Y-104162467D01*
X152390000Y-110600000D02*
X104070000Y-110600000D01*
X101079669Y-97958514D02*
X101080000Y-97960104D01*
X129706293Y-105121747D02*
X129494161Y-105333879D01*
X138942809Y-104042282D02*
X138942809Y-104542282D01*
X113320000Y-100150000D02*
X113320000Y-101350000D01*
X128292079Y-106535961D02*
X128079947Y-106748093D01*
X109580000Y-101350000D02*
X109580000Y-100150000D01*
X130413399Y-98616365D02*
X129706293Y-99323471D01*
X101071500Y-97953573D02*
X101079669Y-97958514D01*
X122069539Y-103000427D02*
X122281671Y-103212559D01*
X130766953Y-104061087D02*
X130554821Y-104273219D01*
X131848324Y-101565502D02*
X131848324Y-101465502D01*
X138942809Y-99042282D02*
X138942809Y-98542282D01*
X101074425Y-105346411D02*
X101071500Y-105346428D01*
X152330000Y-92760000D02*
X152330000Y-95300000D01*
X126998576Y-96615755D02*
X131848324Y-101465502D01*
X142452807Y-105442900D02*
X142452809Y-105442282D01*
X101074425Y-105346411D02*
X106080000Y-105346411D01*
X122776646Y-103707533D02*
X122988778Y-103919666D01*
X129847714Y-98050679D02*
X130059846Y-98262811D01*
X128079947Y-96282912D02*
X128292079Y-96495044D01*
X125817205Y-106748093D02*
X126524312Y-106040986D01*
X125110099Y-96990019D02*
X125817205Y-97697126D01*
X108752277Y-106062467D02*
X108752277Y-104262467D01*
X114941801Y-98528199D02*
X114941801Y-97891802D01*
X123695885Y-98404233D02*
X124402992Y-99111339D01*
X123342332Y-98757786D02*
X123130200Y-98969918D01*
X109502277Y-106162467D02*
X108852277Y-106162467D01*
X148580000Y-106790000D02*
X148580000Y-96510000D01*
X106080000Y-97953590D02*
X106080000Y-105346411D01*
X129494161Y-97697126D02*
X129706293Y-97909258D01*
X145920000Y-96510000D02*
X145920000Y-106790000D01*
X114452277Y-104262467D02*
X114452277Y-106062467D01*
X139861767Y-105249226D02*
X139861767Y-105435812D01*
X123837306Y-104768194D02*
X124049438Y-104980326D01*
X114290000Y-102020000D02*
X116230000Y-102020000D01*
X110498198Y-97891802D02*
X110498198Y-98528199D01*
X124756545Y-97343572D02*
X124544413Y-97555704D01*
X125251520Y-96848598D02*
X125958627Y-97555704D01*
X124402992Y-97697126D02*
X124190860Y-97909258D01*
X123130200Y-98969918D02*
X123837306Y-99677025D01*
X112401801Y-101068199D02*
X112401801Y-100431802D01*
X109010000Y-96940000D02*
X113890000Y-96940000D01*
X129352739Y-105475300D02*
X128645632Y-104768194D01*
X113990000Y-97040000D02*
X113990000Y-99380000D01*
X113602277Y-106062467D02*
X113602277Y-104262467D01*
X122048829Y-101565502D02*
X126898576Y-106415250D01*
X139052809Y-97542282D02*
X139052190Y-97542283D01*
X131969034Y-100172000D02*
X131261928Y-100879106D01*
X125463652Y-96636466D02*
X126170759Y-97343572D01*
X124897967Y-105828854D02*
X125605073Y-105121747D01*
X130766953Y-98969918D02*
X130059846Y-99677025D01*
X125605073Y-106535961D02*
X126312180Y-105828854D01*
X100980000Y-105109272D02*
X100980000Y-105364928D01*
X122776646Y-99323471D02*
X123483753Y-100030578D01*
X101470000Y-110600000D02*
X101470000Y-109270000D01*
X124544413Y-97555704D02*
X125251520Y-98262811D01*
X101074425Y-97953590D02*
X106080000Y-97953590D01*
X129494161Y-105333879D02*
X128787054Y-104626772D01*
X128999186Y-105828854D02*
X128292079Y-105121747D01*
X100592892Y-97612513D02*
X100909153Y-97891167D01*
X112401801Y-97891802D02*
X113038198Y-97891802D01*
X101079936Y-98453590D02*
X106090000Y-98453590D01*
X131120506Y-103707533D02*
X130908374Y-103919666D01*
X113320000Y-101350000D02*
X109580000Y-101350000D01*
X113320000Y-98810000D02*
X109580000Y-98810000D01*
X101080000Y-98199989D02*
X101075785Y-98199989D01*
X123837306Y-98262811D02*
X124544413Y-98969918D01*
X122776646Y-103707533D02*
X123483753Y-103000427D01*
X124049438Y-104980326D02*
X124756545Y-104273219D01*
X141543851Y-105435812D02*
X141543851Y-105249226D01*
X121928118Y-102859005D02*
X122635225Y-102151899D01*
X101530000Y-92760000D02*
X152330000Y-92760000D01*
X113002277Y-106162467D02*
X110202277Y-106162467D01*
X152390000Y-107940000D02*
X152390000Y-110600000D01*
X108910000Y-101920000D02*
X108910000Y-97040000D01*
X109580000Y-97610000D02*
X113320000Y-97610000D01*
X115578198Y-100431802D02*
X115578198Y-101068199D01*
X131969034Y-102859005D02*
X131261928Y-102151899D01*
X109861801Y-101068199D02*
X109861801Y-100431802D01*
X101080000Y-105339897D02*
X101080000Y-104850000D01*
X114352277Y-106162467D02*
X113702277Y-106162467D01*
X139052809Y-105542282D02*
X142352809Y-105542282D01*
X130766953Y-104061087D02*
X130059846Y-103353980D01*
X114602277Y-106812467D02*
X114602277Y-103512467D01*
X110498198Y-100431802D02*
X110498198Y-101068199D01*
X138247588Y-104762050D02*
X138247588Y-98462050D01*
X101080000Y-104850000D02*
X101079936Y-104846411D01*
X122635225Y-99464893D02*
X122423093Y-99677025D01*
X138952809Y-105442282D02*
X138952811Y-105442900D01*
X101058825Y-98511536D02*
X101058825Y-104788465D01*
X109861801Y-100431802D02*
X110498198Y-100431802D01*
X116230000Y-102020000D02*
X116530000Y-101720000D01*
X131474060Y-103353980D02*
X131261928Y-103566112D01*
X125110099Y-96990019D02*
X124897967Y-97202151D01*
X131969034Y-100172000D02*
X132181166Y-100384132D01*
X128433500Y-96636466D02*
X127726394Y-97343572D01*
X108602378Y-103507983D02*
X108602277Y-103512467D01*
X125817205Y-96282912D02*
X126524312Y-96990019D01*
X128787054Y-96990019D02*
X128079947Y-97697126D01*
X125251520Y-106182407D02*
X125463652Y-106394539D01*
X129847714Y-104980326D02*
X129140607Y-104273219D01*
X112401801Y-100431802D02*
X113038198Y-100431802D01*
X101080000Y-105100012D02*
X101075785Y-105100012D01*
X106090000Y-98199989D02*
X106090000Y-105100012D01*
X113102277Y-104262467D02*
X113102277Y-106062467D01*
X128645632Y-106182407D02*
X128433500Y-106394539D01*
X139052190Y-105542280D02*
X139052809Y-105542282D01*
X137822588Y-98462050D02*
X137822588Y-104762050D01*
X104070000Y-107940000D02*
X152390000Y-107940000D01*
X123837306Y-104768194D02*
X124544413Y-104061087D01*
X131827613Y-103000427D02*
X131615481Y-103212559D01*
X101071500Y-105346428D02*
X101079669Y-105341487D01*
X124897967Y-97202151D02*
X125605073Y-97909258D01*
X113990000Y-99580000D02*
X113990000Y-101920000D01*
X123483753Y-104414640D02*
X124190860Y-103707533D01*
X100430000Y-97797388D02*
X100592892Y-97612513D01*
X101530000Y-95300000D02*
X101530000Y-92760000D01*
X121928118Y-100172000D02*
X121715986Y-100384132D01*
X124190860Y-97909258D02*
X124897967Y-98616365D01*
X121715986Y-102646873D02*
X121928118Y-102859005D01*
X110498198Y-98528199D02*
X109861801Y-98528199D01*
X110114503Y-102021000D02*
X110159375Y-102021000D01*
X123695885Y-104626772D02*
X124402992Y-103919666D01*
X124190860Y-105121747D02*
X124402992Y-105333879D01*
X113038198Y-101068199D02*
X112401801Y-101068199D01*
X130413399Y-104414640D02*
X130201267Y-104626772D01*
X122988778Y-99111339D02*
X123695885Y-99818446D01*
X128292079Y-106535961D02*
X127584972Y-105828854D01*
X130059846Y-98262811D02*
X129352739Y-98969918D01*
X121715986Y-100384132D02*
X122423093Y-101091238D01*
X109502277Y-104162467D02*
X109602277Y-104262467D01*
X113990000Y-99580000D02*
X108921400Y-99580000D01*
X109602277Y-104262467D02*
X109602277Y-106062467D01*
X128645632Y-106182407D02*
X127938526Y-105475300D01*
X114502277Y-103412467D02*
X108702277Y-103412467D01*
X100430000Y-105502613D02*
X100592892Y-105687488D01*
X108921400Y-99380000D02*
X113990000Y-99380000D01*
X123483753Y-104414640D02*
X123695885Y-104626772D01*
X124049438Y-98050679D02*
X123837306Y-98262811D01*
X124756545Y-97343572D02*
X125463652Y-98050679D01*
X122281671Y-99818446D02*
X122988778Y-100525553D01*
X122069539Y-100030578D02*
X122776646Y-100737685D01*
X129140607Y-105687432D02*
X128433500Y-104980326D01*
X128433500Y-96636466D02*
X128645632Y-96848598D01*
X145920000Y-106790000D02*
X148580000Y-106790000D01*
X122988778Y-103919666D02*
X123695885Y-103212559D01*
X109302003Y-102021000D02*
X109491106Y-102021000D01*
X125110099Y-106040986D02*
X125817205Y-105333879D01*
X130201267Y-98404233D02*
X129494161Y-99111339D01*
X128433500Y-106394539D02*
X127726394Y-105687432D01*
X122423093Y-103353980D02*
X122635225Y-103566112D01*
X109580000Y-98810000D02*
X109580000Y-97610000D01*
X109861801Y-97891802D02*
X110498198Y-97891802D01*
X125463652Y-106394539D02*
X126170759Y-105687432D01*
X113038198Y-100431802D02*
X113038198Y-101068199D01*
X100980000Y-98190729D02*
X100980000Y-97935073D01*
X122048829Y-101465502D02*
X122048829Y-101565502D01*
X109580000Y-100150000D02*
X113320000Y-100150000D01*
X116230000Y-96940000D02*
X114290000Y-96940000D01*
X133297588Y-98462050D02*
X133297588Y-104762050D01*
X129140607Y-97343572D02*
X128433500Y-98050679D01*
X113890000Y-102020000D02*
X109010000Y-102020000D01*
X100780469Y-97777785D02*
X100617578Y-97962660D01*
X129494161Y-97697126D02*
X128787054Y-98404233D01*
X101079669Y-105341487D02*
X101080000Y-105339897D01*
X131261928Y-99464893D02*
X130554821Y-100172000D01*
X131615481Y-99818446D02*
X130908374Y-100525553D01*
X122281671Y-103212559D02*
X122988778Y-102505452D01*
X133722588Y-104762050D02*
X133722588Y-98462050D01*
X129847714Y-98050679D02*
X129140607Y-98757786D01*
X128787054Y-96990019D02*
X128999186Y-97202151D01*
X102800000Y-110600000D02*
X101470000Y-110600000D01*
X121928118Y-100172000D02*
X122635225Y-100879106D01*
X131261928Y-99464893D02*
X131474060Y-99677025D01*
X122423093Y-99677025D02*
X123130200Y-100384132D01*
X131615481Y-103212559D02*
X130908374Y-102505452D01*
X152330000Y-95300000D02*
X101530000Y-95300000D01*
X129706293Y-105121747D02*
X128999186Y-104414640D01*
X124049438Y-98050679D02*
X124756545Y-98757786D01*
X124402992Y-105333879D02*
X125110099Y-104626772D01*
X100573395Y-98800000D02*
X100430000Y-98800000D01*
X114290000Y-96940000D02*
X113890000Y-96940000D01*
X130554821Y-98757786D02*
X129847714Y-99464893D01*
X128999186Y-105828854D02*
X128787054Y-106040986D01*
X115578198Y-97891802D02*
X115578198Y-98528199D01*
X125605073Y-106535961D02*
X125817205Y-106748093D01*
X148580000Y-96510000D02*
X145920000Y-96510000D01*
X128079947Y-96282912D02*
X127372840Y-96990019D01*
X114941801Y-100431802D02*
X115578198Y-100431802D01*
X101080000Y-97960104D02*
X101080000Y-98450000D01*
X142452804Y-97641334D02*
X142452809Y-97642282D01*
X100634789Y-98550000D02*
X100980000Y-98550000D01*
X122281671Y-99818446D02*
X122069539Y-100030578D01*
X130908374Y-99111339D02*
X131120506Y-99323471D01*
X115578198Y-101068199D02*
X114941801Y-101068199D01*
X101080000Y-98450000D02*
X101079936Y-98453590D01*
X131474060Y-99677025D02*
X130766953Y-100384132D01*
X116530000Y-101720000D02*
X116530000Y-97240000D01*
X100915431Y-104750000D02*
X100915431Y-98550000D01*
X113038198Y-97891802D02*
X113038198Y-98528199D01*
X138952809Y-105442282D02*
X138952809Y-97642282D01*
X129352739Y-97555704D02*
X128645632Y-98262811D01*
X128645632Y-96848598D02*
X127938526Y-97555704D01*
X114941801Y-97891802D02*
X115578198Y-97891802D01*
X130059846Y-104768194D02*
X129352739Y-104061087D01*
X124190860Y-105121747D02*
X124897967Y-104414640D01*
X113038198Y-98528199D02*
X112401801Y-98528199D01*
X126998576Y-106415250D02*
X131848324Y-101565502D01*
X124756545Y-105687432D02*
X125463652Y-104980326D01*
X132181166Y-102646873D02*
X131969034Y-102859005D01*
X132181166Y-102646873D02*
X131474060Y-101939767D01*
X110102277Y-106062467D02*
X110102277Y-104262467D01*
X131827613Y-103000427D02*
X131120506Y-102293320D01*
X140261767Y-104849227D02*
G75*
G03*
X139861767Y-105249226I-67J-399933D01*
G01*
X113002277Y-106162477D02*
G75*
G03*
X113102277Y-106062467I23J99977D01*
G01*
X108752233Y-106062467D02*
G75*
G03*
X108852277Y-106162467I100067J67D01*
G01*
X109010000Y-96940000D02*
G75*
G03*
X108910000Y-97040000I0J-100000D01*
G01*
X108852277Y-104162477D02*
G75*
G03*
X108752277Y-104262467I23J-100023D01*
G01*
X141343850Y-105458210D02*
G75*
G03*
X141543851Y-105435812I51350J445610D01*
G01*
X110202277Y-104162477D02*
G75*
G03*
X110102277Y-104262467I23J-100023D01*
G01*
X142353428Y-105542307D02*
G75*
G03*
X142452807Y-105442901I-628J100007D01*
G01*
X114602233Y-103512467D02*
G75*
G03*
X114502277Y-103412467I-99933J67D01*
G01*
X100634793Y-98550039D02*
G75*
G03*
X100430001Y-98800000I25007J-229361D01*
G01*
X100778187Y-98550034D02*
G75*
G03*
X100573395Y-98800000I25013J-229366D01*
G01*
X108602273Y-106812467D02*
G75*
G03*
X108702277Y-106912467I100067J67D01*
G01*
X109502277Y-106162477D02*
G75*
G03*
X109602277Y-106062467I23J99977D01*
G01*
X108702277Y-103412477D02*
G75*
G03*
X108602277Y-103512467I23J-100023D01*
G01*
X138247592Y-98462050D02*
G75*
G03*
X133297588Y-98462050I-2475002J0D01*
G01*
X101079936Y-104846411D02*
G75*
G03*
X100980001Y-104750000I-99936J-3589D01*
G01*
X100909160Y-97891159D02*
G75*
G03*
X101071500Y-97953573I165240J187459D01*
G01*
X133297588Y-104762050D02*
G75*
G03*
X138247588Y-104762050I2475000J0D01*
G01*
X139861767Y-105435812D02*
G75*
G03*
X140061767Y-105458200I150633J441112D01*
G01*
X139052190Y-97542310D02*
G75*
G03*
X138952810Y-97641663I610J-99990D01*
G01*
X113989999Y-97040000D02*
G75*
G03*
X113890000Y-96940001I-99999J0D01*
G01*
X100980000Y-98550001D02*
G75*
G03*
X101079937Y-98453590I0J100001D01*
G01*
X100573397Y-104500000D02*
G75*
G03*
X100778182Y-104750000I229953J-20510D01*
G01*
X100745233Y-98075152D02*
G75*
G03*
X101075785Y-98199989I330567J375252D01*
G01*
X133722588Y-104762050D02*
G75*
G03*
X137822588Y-104762050I2050000J0D01*
G01*
X114352277Y-106162477D02*
G75*
G03*
X114452277Y-106062467I23J99977D01*
G01*
X141543854Y-105249226D02*
G75*
G03*
X141143851Y-104849226I-400004J-4D01*
G01*
X100429999Y-104500000D02*
G75*
G03*
X100634788Y-104750001I229941J-20520D01*
G01*
X108910000Y-101920000D02*
G75*
G03*
X109010000Y-102020000I100000J0D01*
G01*
X142452816Y-97641663D02*
G75*
G03*
X142353428Y-97542284I-100016J-637D01*
G01*
X113702277Y-104162477D02*
G75*
G03*
X113602277Y-104262467I23J-100023D01*
G01*
X137822592Y-98462050D02*
G75*
G03*
X133722588Y-98462050I-2050002J0D01*
G01*
X113890000Y-102020000D02*
G75*
G03*
X113990000Y-101920000I0J100000D01*
G01*
X101071500Y-105346402D02*
G75*
G03*
X100909153Y-105408834I3000J-250098D01*
G01*
X138952820Y-105442900D02*
G75*
G03*
X139052189Y-105542280I99980J600D01*
G01*
X114502277Y-106912477D02*
G75*
G03*
X114602277Y-106812467I23J99977D01*
G01*
X113602233Y-106062467D02*
G75*
G03*
X113702277Y-106162467I100067J67D01*
G01*
X101075785Y-105100040D02*
G75*
G03*
X100745241Y-105224858I-85J-499860D01*
G01*
X110102233Y-106062467D02*
G75*
G03*
X110202277Y-106162467I100067J67D01*
G01*
X114452233Y-104262467D02*
G75*
G03*
X114352277Y-104162467I-99933J67D01*
G01*
X113102233Y-104262467D02*
G75*
G03*
X113002277Y-104162467I-99933J67D01*
G01*
X131198576Y-101515502D02*
G75*
G03*
X131198576Y-101515502I-250000J0D01*
G01*
X141128685Y-98490855D02*
G75*
G03*
X141128685Y-98490855I-425876J0D01*
G01*
G36*
X147603060Y-100626380D02*
G01*
X147095060Y-100626380D01*
X147095060Y-100118380D01*
X147603060Y-100118380D01*
X147603060Y-100626380D01*
G37*
D14*
X147603060Y-100626380D02*
X147095060Y-100626380D01*
X147095060Y-100118380D01*
X147603060Y-100118380D01*
X147603060Y-100626380D01*
G36*
X147603060Y-105706380D02*
G01*
X147095060Y-105706380D01*
X147095060Y-105198380D01*
X147603060Y-105198380D01*
X147603060Y-105706380D01*
G37*
X147603060Y-105706380D02*
X147095060Y-105706380D01*
X147095060Y-105198380D01*
X147603060Y-105198380D01*
X147603060Y-105706380D01*
G36*
X147603060Y-98086380D02*
G01*
X147095060Y-98086380D01*
X147095060Y-97578380D01*
X147603060Y-97578380D01*
X147603060Y-98086380D01*
G37*
X147603060Y-98086380D02*
X147095060Y-98086380D01*
X147095060Y-97578380D01*
X147603060Y-97578380D01*
X147603060Y-98086380D01*
G36*
X147603060Y-103166380D02*
G01*
X147095060Y-103166380D01*
X147095060Y-102658380D01*
X147603060Y-102658380D01*
X147603060Y-103166380D01*
G37*
X147603060Y-103166380D02*
X147095060Y-103166380D01*
X147095060Y-102658380D01*
X147603060Y-102658380D01*
X147603060Y-103166380D01*
D10*
X88207064Y-95610000D02*
X86752936Y-95610000D01*
X88207064Y-97430000D02*
X86752936Y-97430000D01*
G36*
X136652828Y-115099453D02*
G01*
X136712746Y-115142974D01*
X136759625Y-115201765D01*
X136789606Y-115270613D01*
X136794414Y-115290814D01*
X136795381Y-115299056D01*
X136795763Y-115311657D01*
X136795482Y-115329379D01*
X136794464Y-115352978D01*
X136792634Y-115383216D01*
X136789914Y-115420850D01*
X136786230Y-115466640D01*
X136781506Y-115521346D01*
X136775666Y-115585726D01*
X136768634Y-115660539D01*
X136760335Y-115746545D01*
X136750693Y-115844502D01*
X136739633Y-115955171D01*
X136727078Y-116079309D01*
X136712954Y-116217677D01*
X136697183Y-116371032D01*
X136679691Y-116540136D01*
X136660403Y-116725745D01*
X136639241Y-116928621D01*
X136616131Y-117149521D01*
X136590996Y-117389205D01*
X136563762Y-117648433D01*
X136534352Y-117927962D01*
X136502691Y-118228553D01*
X136480511Y-118438984D01*
X136447338Y-118753512D01*
X136416412Y-119046475D01*
X136387647Y-119318636D01*
X136360959Y-119570754D01*
X136336263Y-119803594D01*
X136313475Y-120017915D01*
X136292509Y-120214481D01*
X136273281Y-120394053D01*
X136255706Y-120557392D01*
X136239699Y-120705261D01*
X136225176Y-120838421D01*
X136212051Y-120957634D01*
X136200241Y-121063662D01*
X136189659Y-121157267D01*
X136180222Y-121239210D01*
X136171845Y-121310254D01*
X136164442Y-121371160D01*
X136157930Y-121422689D01*
X136152222Y-121465605D01*
X136147236Y-121500667D01*
X136142885Y-121528640D01*
X136139085Y-121550283D01*
X136135751Y-121566359D01*
X136132799Y-121577630D01*
X136130535Y-121583980D01*
X136095148Y-121643126D01*
X136043866Y-121698953D01*
X135983084Y-121745515D01*
X135925367Y-121774653D01*
X135907029Y-121781165D01*
X135888779Y-121786384D01*
X135868005Y-121790447D01*
X135842094Y-121793491D01*
X135808435Y-121795650D01*
X135764415Y-121797063D01*
X135707421Y-121797865D01*
X135634843Y-121798191D01*
X135544067Y-121798180D01*
X135476689Y-121798061D01*
X135367169Y-121797647D01*
X135277885Y-121796843D01*
X135206628Y-121795561D01*
X135151189Y-121793716D01*
X135109358Y-121791218D01*
X135078925Y-121787983D01*
X135057681Y-121783921D01*
X135048809Y-121781193D01*
X134980173Y-121744974D01*
X134925340Y-121693230D01*
X134886898Y-121629258D01*
X134867440Y-121556350D01*
X134866726Y-121549646D01*
X134867465Y-121534123D01*
X134870459Y-121497386D01*
X134875592Y-121440545D01*
X134882749Y-121364707D01*
X134891814Y-121270983D01*
X134902671Y-121160481D01*
X134915206Y-121034309D01*
X134929303Y-120893578D01*
X134944845Y-120739395D01*
X134961718Y-120572871D01*
X134979806Y-120395112D01*
X134998994Y-120207230D01*
X135019166Y-120010331D01*
X135040206Y-119805526D01*
X135061999Y-119593924D01*
X135084430Y-119376633D01*
X135107383Y-119154762D01*
X135130742Y-118929420D01*
X135154393Y-118701716D01*
X135178218Y-118472758D01*
X135202104Y-118243657D01*
X135225934Y-118015521D01*
X135249593Y-117789458D01*
X135272965Y-117566578D01*
X135295936Y-117347989D01*
X135318388Y-117134801D01*
X135340208Y-116928123D01*
X135361279Y-116729062D01*
X135381485Y-116538729D01*
X135400712Y-116358232D01*
X135418844Y-116188681D01*
X135435765Y-116031183D01*
X135451360Y-115886848D01*
X135465513Y-115756785D01*
X135478108Y-115642103D01*
X135489031Y-115543910D01*
X135498166Y-115463316D01*
X135505397Y-115401430D01*
X135510608Y-115359360D01*
X135513685Y-115338215D01*
X135513840Y-115337440D01*
X135541016Y-115261885D01*
X135588615Y-115193648D01*
X135655370Y-115134258D01*
X135710009Y-115100273D01*
X135766129Y-115070040D01*
X136596708Y-115070040D01*
X136652828Y-115099453D01*
G37*
G36*
X134613390Y-118583557D02*
G01*
X134612417Y-118618441D01*
X134606486Y-118645289D01*
X134599215Y-118663027D01*
X134594656Y-118662212D01*
X134589278Y-118641253D01*
X134588371Y-118637137D01*
X134587804Y-118595509D01*
X134595276Y-118575405D01*
X134610053Y-118549492D01*
X134613390Y-118583557D01*
G37*
G36*
X142256426Y-117688584D02*
G01*
X142275872Y-117509079D01*
X142293345Y-117349723D01*
X142308892Y-117210075D01*
X142322564Y-117089698D01*
X142334410Y-116988155D01*
X142344478Y-116905006D01*
X142352818Y-116839814D01*
X142359480Y-116792140D01*
X142364512Y-116761547D01*
X142367651Y-116748350D01*
X142398049Y-116692308D01*
X142444556Y-116637108D01*
X142501402Y-116588630D01*
X142556672Y-116555593D01*
X142624017Y-116523571D01*
X144386191Y-116523672D01*
X146148365Y-116523772D01*
X146205109Y-116550196D01*
X146271703Y-116592780D01*
X146321866Y-116649763D01*
X146354136Y-116718816D01*
X146367052Y-116797609D01*
X146367234Y-116808582D01*
X146366077Y-116827089D01*
X146362715Y-116866295D01*
X146357311Y-116924577D01*
X146350027Y-117000311D01*
X146341025Y-117091874D01*
X146330468Y-117197643D01*
X146318517Y-117315992D01*
X146305337Y-117445300D01*
X146291088Y-117583943D01*
X146275933Y-117730296D01*
X146260035Y-117882737D01*
X146254528Y-117935296D01*
X146235761Y-118114121D01*
X146219152Y-118272019D01*
X146204521Y-118410391D01*
X146191690Y-118530635D01*
X146180481Y-118634152D01*
X146170714Y-118722341D01*
X146162210Y-118796602D01*
X146154791Y-118858335D01*
X146148278Y-118908938D01*
X146142491Y-118949813D01*
X146137252Y-118982358D01*
X146132383Y-119007973D01*
X146127703Y-119028058D01*
X146123035Y-119044013D01*
X146118199Y-119057237D01*
X146113017Y-119069129D01*
X146108385Y-119078868D01*
X146066638Y-119146870D01*
X146012436Y-119200637D01*
X145941397Y-119244369D01*
X145930008Y-119249860D01*
X145867764Y-119279055D01*
X143611732Y-119290279D01*
X143559020Y-119314635D01*
X143520539Y-119337066D01*
X143479291Y-119368036D01*
X143457415Y-119387884D01*
X143436196Y-119409483D01*
X143418262Y-119429659D01*
X143403099Y-119450589D01*
X143390191Y-119474445D01*
X143379024Y-119503402D01*
X143369084Y-119539634D01*
X143359855Y-119585314D01*
X143350823Y-119642616D01*
X143341473Y-119713715D01*
X143331291Y-119800784D01*
X143319761Y-119905997D01*
X143307469Y-120021173D01*
X143294912Y-120140243D01*
X143284736Y-120239185D01*
X143276789Y-120320175D01*
X143270916Y-120385391D01*
X143266965Y-120437007D01*
X143264782Y-120477202D01*
X143264212Y-120508150D01*
X143265104Y-120532030D01*
X143267302Y-120551017D01*
X143269336Y-120561660D01*
X143295759Y-120631546D01*
X143340455Y-120691870D01*
X143399776Y-120737909D01*
X143409493Y-120743179D01*
X143465199Y-120771852D01*
X145721851Y-120783076D01*
X145768348Y-120807943D01*
X145817790Y-120842911D01*
X145862035Y-120889503D01*
X145894723Y-120940345D01*
X145905246Y-120966684D01*
X145912430Y-120998181D01*
X145916425Y-121036215D01*
X145917157Y-121083753D01*
X145914553Y-121143764D01*
X145908539Y-121219213D01*
X145899041Y-121313068D01*
X145895925Y-121341452D01*
X145886751Y-121419505D01*
X145878435Y-121479008D01*
X145870227Y-121523803D01*
X145861378Y-121557731D01*
X145851137Y-121584633D01*
X145846633Y-121593993D01*
X145799413Y-121664209D01*
X145735821Y-121725194D01*
X145676955Y-121763491D01*
X145620835Y-121793239D01*
X143853049Y-121795326D01*
X143615997Y-121795584D01*
X143400384Y-121795765D01*
X143205202Y-121795863D01*
X143029443Y-121795869D01*
X142872098Y-121795775D01*
X142732158Y-121795575D01*
X142608616Y-121795259D01*
X142500463Y-121794820D01*
X142406689Y-121794250D01*
X142326288Y-121793541D01*
X142258250Y-121792686D01*
X142201566Y-121791677D01*
X142155229Y-121790506D01*
X142118230Y-121789165D01*
X142089561Y-121787646D01*
X142068212Y-121785941D01*
X142053176Y-121784043D01*
X142043444Y-121781944D01*
X142041385Y-121781265D01*
X141974269Y-121745713D01*
X141919477Y-121694825D01*
X141880286Y-121632557D01*
X141859974Y-121562863D01*
X141859890Y-121562238D01*
X141859626Y-121540032D01*
X141861750Y-121497512D01*
X141866091Y-121436665D01*
X141872480Y-121359477D01*
X141880747Y-121267936D01*
X141890723Y-121164029D01*
X141902237Y-121049743D01*
X141910143Y-120973885D01*
X141917830Y-120900979D01*
X141927684Y-120807430D01*
X141939527Y-120694918D01*
X141953184Y-120565123D01*
X141968477Y-120419728D01*
X141985230Y-120260414D01*
X142003266Y-120088861D01*
X142022408Y-119906751D01*
X142042480Y-119715765D01*
X142063305Y-119517585D01*
X142084706Y-119313890D01*
X142106506Y-119106364D01*
X142128529Y-118896686D01*
X142150598Y-118686539D01*
X142157917Y-118616836D01*
X142185752Y-118352362D01*
X142211415Y-118109786D01*
X142225371Y-117978708D01*
X143528283Y-117978708D01*
X143528984Y-118016949D01*
X143533423Y-118046432D01*
X143542358Y-118073947D01*
X143548919Y-118089477D01*
X143566615Y-118125403D01*
X143584524Y-118155498D01*
X143592519Y-118166115D01*
X143629039Y-118197624D01*
X143676985Y-118226965D01*
X143725707Y-118247898D01*
X143738084Y-118251414D01*
X143758393Y-118253612D01*
X143798467Y-118255549D01*
X143855626Y-118257180D01*
X143927187Y-118258460D01*
X144010471Y-118259343D01*
X144102796Y-118259785D01*
X144201480Y-118259742D01*
X144229054Y-118259640D01*
X144678016Y-118257667D01*
X144740260Y-118228472D01*
X144818904Y-118181895D01*
X144879460Y-118123749D01*
X144922851Y-118052591D01*
X144950000Y-117966981D01*
X144960864Y-117883867D01*
X144963354Y-117828063D01*
X144961900Y-117787249D01*
X144955886Y-117754213D01*
X144947655Y-117729263D01*
X144909520Y-117659426D01*
X144854808Y-117603649D01*
X144801562Y-117571332D01*
X144787389Y-117564906D01*
X144773594Y-117559628D01*
X144757921Y-117555384D01*
X144738114Y-117552062D01*
X144711917Y-117549548D01*
X144677074Y-117547727D01*
X144631330Y-117546487D01*
X144572428Y-117545715D01*
X144498112Y-117545295D01*
X144406127Y-117545116D01*
X144294217Y-117545062D01*
X144279562Y-117545059D01*
X143813765Y-117544958D01*
X143746420Y-117577148D01*
X143669671Y-117622848D01*
X143610920Y-117678906D01*
X143568935Y-117747304D01*
X143542487Y-117830026D01*
X143530563Y-117924920D01*
X143528283Y-117978708D01*
X142225371Y-117978708D01*
X142234957Y-117888673D01*
X142256426Y-117688584D01*
G37*
G36*
X130281320Y-120307598D02*
G01*
X130301990Y-120108364D01*
X130323842Y-119898219D01*
X130346780Y-119678114D01*
X130370704Y-119448999D01*
X130395517Y-119211827D01*
X130421120Y-118967546D01*
X130447417Y-118717110D01*
X130467041Y-118530504D01*
X130498780Y-118228926D01*
X130528266Y-117948858D01*
X130555592Y-117689487D01*
X130557099Y-117675194D01*
X131797771Y-117675194D01*
X131805255Y-117758588D01*
X131830438Y-117828465D01*
X131873997Y-117885944D01*
X131936610Y-117932146D01*
X131961180Y-117944922D01*
X132017300Y-117971760D01*
X132455037Y-117968801D01*
X132892775Y-117965842D01*
X132964610Y-117926902D01*
X133036631Y-117876824D01*
X133093450Y-117814168D01*
X133132097Y-117742433D01*
X133139241Y-117721250D01*
X133144156Y-117697200D01*
X133150827Y-117653668D01*
X133158947Y-117593525D01*
X133168208Y-117519641D01*
X133178303Y-117434887D01*
X133188923Y-117342133D01*
X133199762Y-117244251D01*
X133210512Y-117144111D01*
X133220866Y-117044584D01*
X133230515Y-116948541D01*
X133239152Y-116858852D01*
X133246469Y-116778388D01*
X133252160Y-116710020D01*
X133255916Y-116656618D01*
X133257430Y-116621054D01*
X133257446Y-116617990D01*
X133254023Y-116559818D01*
X133242460Y-116512124D01*
X133230872Y-116484269D01*
X133201877Y-116433242D01*
X133166874Y-116395624D01*
X133119071Y-116364866D01*
X133094668Y-116352935D01*
X133079861Y-116346337D01*
X133065339Y-116340973D01*
X133048718Y-116336713D01*
X133027614Y-116333432D01*
X132999643Y-116331000D01*
X132962422Y-116329292D01*
X132913566Y-116328179D01*
X132850693Y-116327534D01*
X132771418Y-116327230D01*
X132673357Y-116327138D01*
X132612174Y-116327133D01*
X132185660Y-116327133D01*
X132118316Y-116358585D01*
X132037387Y-116407614D01*
X131973329Y-116470972D01*
X131935951Y-116529165D01*
X131928907Y-116543996D01*
X131922595Y-116560724D01*
X131916701Y-116581484D01*
X131910907Y-116608410D01*
X131904899Y-116643639D01*
X131898360Y-116689305D01*
X131890974Y-116747544D01*
X131882425Y-116820491D01*
X131872398Y-116910281D01*
X131860575Y-117019049D01*
X131852912Y-117090367D01*
X131841575Y-117197691D01*
X131830998Y-117300815D01*
X131821438Y-117397028D01*
X131813150Y-117483619D01*
X131806390Y-117557875D01*
X131801412Y-117617086D01*
X131798474Y-117658539D01*
X131797771Y-117675194D01*
X130557099Y-117675194D01*
X130580851Y-117449997D01*
X130604133Y-117229575D01*
X130625532Y-117027406D01*
X130645139Y-116842674D01*
X130663048Y-116674567D01*
X130679349Y-116522268D01*
X130694136Y-116384964D01*
X130707500Y-116261841D01*
X130719534Y-116152083D01*
X130730330Y-116054876D01*
X130739980Y-115969406D01*
X130748577Y-115894858D01*
X130756212Y-115830418D01*
X130762978Y-115775271D01*
X130768967Y-115728603D01*
X130774272Y-115689598D01*
X130778984Y-115657443D01*
X130783196Y-115631324D01*
X130787000Y-115610425D01*
X130790488Y-115593931D01*
X130793753Y-115581030D01*
X130796886Y-115570905D01*
X130799981Y-115562744D01*
X130803128Y-115555730D01*
X130804097Y-115553727D01*
X130848937Y-115485825D01*
X130909882Y-115428091D01*
X130981139Y-115385754D01*
X130997778Y-115378967D01*
X131006323Y-115375867D01*
X131015312Y-115373063D01*
X131025844Y-115370540D01*
X131039019Y-115368287D01*
X131055938Y-115366291D01*
X131077700Y-115364539D01*
X131105405Y-115363019D01*
X131140153Y-115361718D01*
X131183045Y-115360623D01*
X131235180Y-115359721D01*
X131297658Y-115359000D01*
X131371579Y-115358447D01*
X131458043Y-115358050D01*
X131558150Y-115357796D01*
X131673000Y-115357672D01*
X131803694Y-115357665D01*
X131951330Y-115357763D01*
X132117009Y-115357953D01*
X132301831Y-115358222D01*
X132506896Y-115358558D01*
X132733304Y-115358949D01*
X132734425Y-115358951D01*
X134409784Y-115361865D01*
X134464726Y-115395834D01*
X134519316Y-115441422D01*
X134562881Y-115501064D01*
X134590368Y-115567428D01*
X134593963Y-115583291D01*
X134594111Y-115601264D01*
X134591992Y-115639618D01*
X134587804Y-115696425D01*
X134581744Y-115769755D01*
X134574010Y-115857677D01*
X134564798Y-115958261D01*
X134554306Y-116069578D01*
X134542731Y-116189697D01*
X134530271Y-116316689D01*
X134517122Y-116448623D01*
X134503483Y-116583569D01*
X134489551Y-116719597D01*
X134475522Y-116854778D01*
X134461594Y-116987181D01*
X134447965Y-117114876D01*
X134434831Y-117235934D01*
X134422391Y-117348424D01*
X134410841Y-117450416D01*
X134400378Y-117539980D01*
X134391200Y-117615187D01*
X134383505Y-117674106D01*
X134377489Y-117714807D01*
X134374343Y-117731597D01*
X134323334Y-117904618D01*
X134251566Y-118073869D01*
X134171394Y-118218383D01*
X134131756Y-118283456D01*
X134102306Y-118335838D01*
X134080398Y-118381255D01*
X134063387Y-118425435D01*
X134048629Y-118474105D01*
X134042283Y-118497973D01*
X134030705Y-118546285D01*
X134023702Y-118588107D01*
X134021846Y-118627520D01*
X134025709Y-118668604D01*
X134035863Y-118715440D01*
X134052879Y-118772107D01*
X134077331Y-118842687D01*
X134098903Y-118901812D01*
X134132088Y-118993948D01*
X134157351Y-119070060D01*
X134175704Y-119134718D01*
X134188161Y-119192489D01*
X134195733Y-119247943D01*
X134199433Y-119305649D01*
X134200291Y-119359271D01*
X134199145Y-119384115D01*
X134195819Y-119428897D01*
X134190511Y-119491681D01*
X134183422Y-119570525D01*
X134174749Y-119663494D01*
X134164694Y-119768647D01*
X134153454Y-119884046D01*
X134141231Y-120007754D01*
X134128222Y-120137830D01*
X134114629Y-120272338D01*
X134100649Y-120409339D01*
X134086483Y-120546893D01*
X134072331Y-120683063D01*
X134058390Y-120815910D01*
X134044862Y-120943495D01*
X134031945Y-121063881D01*
X134019839Y-121175128D01*
X134008744Y-121275298D01*
X133998858Y-121362453D01*
X133990382Y-121434655D01*
X133983514Y-121489964D01*
X133978454Y-121526442D01*
X133975814Y-121540871D01*
X133945880Y-121611654D01*
X133897680Y-121676396D01*
X133835321Y-121730868D01*
X133762912Y-121770839D01*
X133746295Y-121777178D01*
X133737365Y-121780134D01*
X133727485Y-121782807D01*
X133715545Y-121785211D01*
X133700434Y-121787360D01*
X133681043Y-121789266D01*
X133656260Y-121790943D01*
X133624976Y-121792405D01*
X133586081Y-121793665D01*
X133538465Y-121794737D01*
X133481016Y-121795634D01*
X133412626Y-121796369D01*
X133332183Y-121796956D01*
X133238578Y-121797408D01*
X133130700Y-121797740D01*
X133007440Y-121797963D01*
X132867686Y-121798092D01*
X132710330Y-121798141D01*
X132534259Y-121798122D01*
X132338366Y-121798049D01*
X132121538Y-121797935D01*
X132037222Y-121797887D01*
X131846273Y-121797718D01*
X131661216Y-121797442D01*
X131483318Y-121797066D01*
X131313849Y-121796597D01*
X131154078Y-121796044D01*
X131005274Y-121795412D01*
X130868704Y-121794710D01*
X130745638Y-121793944D01*
X130637345Y-121793121D01*
X130545093Y-121792249D01*
X130470151Y-121791336D01*
X130413788Y-121790387D01*
X130377273Y-121789411D01*
X130361873Y-121788414D01*
X130361681Y-121788364D01*
X130291979Y-121757054D01*
X130232826Y-121707592D01*
X130222535Y-121696057D01*
X130188265Y-121647296D01*
X130168383Y-121594903D01*
X130160474Y-121531568D01*
X130160079Y-121507026D01*
X130161263Y-121490585D01*
X130164709Y-121452772D01*
X130170319Y-121394536D01*
X130177994Y-121316830D01*
X130187637Y-121220605D01*
X130199149Y-121106811D01*
X130212433Y-120976399D01*
X130227390Y-120830321D01*
X130243922Y-120669527D01*
X130255269Y-120559547D01*
X131497628Y-120559547D01*
X131498344Y-120582863D01*
X131500195Y-120601676D01*
X131503057Y-120617767D01*
X131506803Y-120632918D01*
X131507677Y-120636097D01*
X131525572Y-120673143D01*
X131557178Y-120714945D01*
X131596557Y-120755406D01*
X131637771Y-120788426D01*
X131674882Y-120807905D01*
X131674967Y-120807933D01*
X131697260Y-120811633D01*
X131739061Y-120814563D01*
X131800919Y-120816734D01*
X131883385Y-120818159D01*
X131987009Y-120818849D01*
X132112342Y-120818817D01*
X132157600Y-120818655D01*
X132600950Y-120816748D01*
X132658278Y-120786503D01*
X132715684Y-120747498D01*
X132768640Y-120695775D01*
X132811074Y-120638089D01*
X132833676Y-120591313D01*
X132838755Y-120568988D01*
X132845650Y-120526811D01*
X132854092Y-120467280D01*
X132863813Y-120392893D01*
X132874544Y-120306150D01*
X132886016Y-120209549D01*
X132897960Y-120105589D01*
X132910109Y-119996768D01*
X132922193Y-119885585D01*
X132933945Y-119774538D01*
X132945094Y-119666126D01*
X132955373Y-119562849D01*
X132964513Y-119467203D01*
X132972246Y-119381689D01*
X132978302Y-119308805D01*
X132982413Y-119251048D01*
X132984311Y-119210919D01*
X132984019Y-119192836D01*
X132965043Y-119117250D01*
X132926824Y-119052431D01*
X132870699Y-119000183D01*
X132819819Y-118971302D01*
X132805953Y-118965469D01*
X132791124Y-118960718D01*
X132772985Y-118956937D01*
X132749192Y-118954015D01*
X132717398Y-118951838D01*
X132675260Y-118950295D01*
X132620430Y-118949273D01*
X132550565Y-118948660D01*
X132463319Y-118948344D01*
X132356347Y-118948212D01*
X132337185Y-118948201D01*
X131905059Y-118947963D01*
X131836523Y-118980387D01*
X131757403Y-119028744D01*
X131695906Y-119090365D01*
X131657094Y-119154700D01*
X131651223Y-119169209D01*
X131645628Y-119187337D01*
X131640064Y-119210908D01*
X131634287Y-119241744D01*
X131628051Y-119281670D01*
X131621111Y-119332507D01*
X131613222Y-119396080D01*
X131604138Y-119474212D01*
X131593614Y-119568726D01*
X131581405Y-119681444D01*
X131567265Y-119814191D01*
X131563151Y-119853072D01*
X131547960Y-119997093D01*
X131535040Y-120120576D01*
X131524267Y-120225302D01*
X131515514Y-120313054D01*
X131508654Y-120385612D01*
X131503562Y-120444759D01*
X131500111Y-120492276D01*
X131498175Y-120529945D01*
X131497628Y-120559547D01*
X130255269Y-120559547D01*
X130261932Y-120494970D01*
X130281320Y-120307598D01*
G37*
G36*
X138373041Y-116411453D02*
G01*
X138463660Y-116412076D01*
X138536858Y-116413487D01*
X138595148Y-116415992D01*
X138641044Y-116419896D01*
X138677058Y-116425503D01*
X138705704Y-116433118D01*
X138729494Y-116443047D01*
X138750942Y-116455596D01*
X138772562Y-116471068D01*
X138775956Y-116473646D01*
X138821712Y-116521107D01*
X138856229Y-116582035D01*
X138875268Y-116648566D01*
X138876723Y-116660518D01*
X138876276Y-116679667D01*
X138873442Y-116720509D01*
X138868282Y-116782421D01*
X138860859Y-116864784D01*
X138851233Y-116966974D01*
X138839468Y-117088372D01*
X138825624Y-117228354D01*
X138809763Y-117386301D01*
X138791948Y-117561590D01*
X138772240Y-117753600D01*
X138750701Y-117961709D01*
X138727393Y-118185297D01*
X138702377Y-118423741D01*
X138684387Y-118594388D01*
X138660036Y-118825601D01*
X138636968Y-119045926D01*
X138615270Y-119254496D01*
X138595029Y-119450443D01*
X138576331Y-119632899D01*
X138559262Y-119800996D01*
X138543910Y-119953868D01*
X138530360Y-120090645D01*
X138518700Y-120210460D01*
X138509014Y-120312446D01*
X138501391Y-120395733D01*
X138495917Y-120459456D01*
X138492677Y-120502745D01*
X138491759Y-120524734D01*
X138491840Y-120526297D01*
X138509674Y-120603231D01*
X138547114Y-120669780D01*
X138603178Y-120724504D01*
X138645095Y-120750928D01*
X138656185Y-120756107D01*
X138669650Y-120760391D01*
X138687666Y-120763884D01*
X138712412Y-120766690D01*
X138746063Y-120768913D01*
X138790798Y-120770657D01*
X138848794Y-120772026D01*
X138922228Y-120773124D01*
X139013276Y-120774055D01*
X139124118Y-120774924D01*
X139151336Y-120775116D01*
X139266282Y-120775881D01*
X139361073Y-120776358D01*
X139438001Y-120776460D01*
X139499359Y-120776099D01*
X139547438Y-120775188D01*
X139584531Y-120773638D01*
X139612930Y-120771363D01*
X139634927Y-120768275D01*
X139652814Y-120764286D01*
X139668884Y-120759308D01*
X139681129Y-120754871D01*
X139748643Y-120719815D01*
X139811078Y-120669418D01*
X139861819Y-120609680D01*
X139884646Y-120570282D01*
X139888389Y-120561690D01*
X139892061Y-120551377D01*
X139895781Y-120538318D01*
X139899668Y-120521489D01*
X139903843Y-120499866D01*
X139908424Y-120472425D01*
X139913531Y-120438140D01*
X139919284Y-120395987D01*
X139925802Y-120344943D01*
X139933205Y-120283981D01*
X139941613Y-120212079D01*
X139951145Y-120128212D01*
X139961920Y-120031354D01*
X139974059Y-119920482D01*
X139987680Y-119794572D01*
X140002904Y-119652598D01*
X140019849Y-119493537D01*
X140038636Y-119316363D01*
X140059384Y-119120054D01*
X140082213Y-118903583D01*
X140107242Y-118665926D01*
X140110236Y-118637476D01*
X140135653Y-118396165D01*
X140158864Y-118176172D01*
X140179988Y-117976485D01*
X140199140Y-117796095D01*
X140216438Y-117633991D01*
X140231998Y-117489163D01*
X140245938Y-117360601D01*
X140258374Y-117247294D01*
X140269423Y-117148231D01*
X140279201Y-117062403D01*
X140287827Y-116988799D01*
X140295415Y-116926409D01*
X140302085Y-116874222D01*
X140307951Y-116831228D01*
X140313131Y-116796417D01*
X140317743Y-116768778D01*
X140321902Y-116747301D01*
X140325725Y-116730975D01*
X140329330Y-116718790D01*
X140332834Y-116709737D01*
X140333282Y-116708750D01*
X140379173Y-116635793D01*
X140443031Y-116575224D01*
X140512947Y-116533432D01*
X140581242Y-116501123D01*
X140979695Y-116501224D01*
X141084799Y-116501281D01*
X141169945Y-116501492D01*
X141237622Y-116502002D01*
X141290320Y-116502955D01*
X141330529Y-116504496D01*
X141360738Y-116506772D01*
X141383436Y-116509926D01*
X141401115Y-116514104D01*
X141416263Y-116519450D01*
X141431369Y-116526111D01*
X141434893Y-116527748D01*
X141501296Y-116570319D01*
X141551610Y-116627390D01*
X141584062Y-116696165D01*
X141596876Y-116773853D01*
X141597011Y-116783008D01*
X141595850Y-116798821D01*
X141592439Y-116835899D01*
X141586889Y-116893183D01*
X141579309Y-116969614D01*
X141569807Y-117064133D01*
X141558492Y-117175681D01*
X141545473Y-117303199D01*
X141530860Y-117445629D01*
X141514761Y-117601910D01*
X141497287Y-117770985D01*
X141478544Y-117951794D01*
X141458644Y-118143278D01*
X141437694Y-118344378D01*
X141415803Y-118554036D01*
X141393082Y-118771192D01*
X141369638Y-118994788D01*
X141350004Y-119181704D01*
X141321599Y-119451828D01*
X141295424Y-119700534D01*
X141271377Y-119928732D01*
X141249353Y-120137330D01*
X141229247Y-120327238D01*
X141210958Y-120499364D01*
X141194379Y-120654618D01*
X141179408Y-120793908D01*
X141165941Y-120918143D01*
X141153872Y-121028232D01*
X141143100Y-121125084D01*
X141133519Y-121209608D01*
X141125026Y-121282714D01*
X141117517Y-121345309D01*
X141110888Y-121398303D01*
X141105035Y-121442605D01*
X141099853Y-121479123D01*
X141095240Y-121508767D01*
X141091091Y-121532446D01*
X141087302Y-121551068D01*
X141083770Y-121565543D01*
X141080390Y-121576779D01*
X141077058Y-121585686D01*
X141074459Y-121591532D01*
X141034605Y-121653779D01*
X140979060Y-121710608D01*
X140914572Y-121755876D01*
X140872103Y-121775800D01*
X140863773Y-121778827D01*
X140855016Y-121781575D01*
X140844769Y-121784059D01*
X140831966Y-121786290D01*
X140815543Y-121788282D01*
X140794435Y-121790048D01*
X140767577Y-121791599D01*
X140733906Y-121792950D01*
X140692355Y-121794112D01*
X140641861Y-121795099D01*
X140581360Y-121795923D01*
X140509785Y-121796598D01*
X140426074Y-121797135D01*
X140329161Y-121797549D01*
X140217981Y-121797851D01*
X140091470Y-121798054D01*
X139948564Y-121798172D01*
X139788197Y-121798216D01*
X139609305Y-121798200D01*
X139410824Y-121798137D01*
X139191689Y-121798039D01*
X139029097Y-121797959D01*
X138786453Y-121797807D01*
X138565304Y-121797598D01*
X138364696Y-121797324D01*
X138183676Y-121796978D01*
X138021290Y-121796551D01*
X137876586Y-121796035D01*
X137748609Y-121795422D01*
X137636407Y-121794703D01*
X137539025Y-121793871D01*
X137455511Y-121792917D01*
X137384911Y-121791834D01*
X137326271Y-121790612D01*
X137278639Y-121789244D01*
X137241061Y-121787722D01*
X137212584Y-121786038D01*
X137192254Y-121784183D01*
X137179117Y-121782149D01*
X137179002Y-121782124D01*
X137123385Y-121767565D01*
X137087348Y-121751559D01*
X137068024Y-121732311D01*
X137062536Y-121709165D01*
X137063699Y-121695496D01*
X137067112Y-121660516D01*
X137072670Y-121605239D01*
X137080266Y-121530680D01*
X137089796Y-121437851D01*
X137101153Y-121327767D01*
X137114233Y-121201441D01*
X137128929Y-121059887D01*
X137145137Y-120904119D01*
X137162750Y-120735151D01*
X137181664Y-120553996D01*
X137201773Y-120361668D01*
X137222970Y-120159180D01*
X137245151Y-119947548D01*
X137268211Y-119727783D01*
X137292043Y-119500901D01*
X137316542Y-119267915D01*
X137325612Y-119181721D01*
X137355330Y-118899514D01*
X137382822Y-118638786D01*
X137408184Y-118398688D01*
X137431511Y-118178371D01*
X137452899Y-117976987D01*
X137472444Y-117793686D01*
X137490240Y-117627620D01*
X137506384Y-117477940D01*
X137520970Y-117343797D01*
X137534094Y-117224343D01*
X137545852Y-117118727D01*
X137556338Y-117026103D01*
X137565649Y-116945620D01*
X137573879Y-116876430D01*
X137581125Y-116817684D01*
X137587481Y-116768533D01*
X137593044Y-116728129D01*
X137597908Y-116695622D01*
X137602169Y-116670164D01*
X137605922Y-116650906D01*
X137609263Y-116636998D01*
X137612287Y-116627593D01*
X137612944Y-116625987D01*
X137648207Y-116567068D01*
X137699353Y-116511379D01*
X137759982Y-116464865D01*
X137818027Y-116435511D01*
X137836512Y-116428961D01*
X137854982Y-116423712D01*
X137876069Y-116419619D01*
X137902406Y-116416539D01*
X137936625Y-116414330D01*
X137981358Y-116412847D01*
X138039238Y-116411948D01*
X138112897Y-116411489D01*
X138204969Y-116411327D01*
X138262487Y-116411313D01*
X138373041Y-116411453D01*
G37*
G36*
X154838142Y-115357971D02*
G01*
X154971840Y-115358113D01*
X155089334Y-115358383D01*
X155191663Y-115358791D01*
X155279869Y-115359345D01*
X155354992Y-115360052D01*
X155418072Y-115360920D01*
X155470151Y-115361959D01*
X155512268Y-115363176D01*
X155545465Y-115364578D01*
X155570781Y-115366175D01*
X155589258Y-115367974D01*
X155601935Y-115369984D01*
X155609854Y-115372213D01*
X155610242Y-115372371D01*
X155680418Y-115412317D01*
X155732795Y-115465862D01*
X155767089Y-115532565D01*
X155783018Y-115611985D01*
X155784202Y-115643224D01*
X155782693Y-115694584D01*
X155778551Y-115757425D01*
X155772358Y-115826696D01*
X155764696Y-115897347D01*
X155756145Y-115964327D01*
X155747286Y-116022586D01*
X155738700Y-116067075D01*
X155733081Y-116087554D01*
X155696918Y-116159315D01*
X155643791Y-116224046D01*
X155579154Y-116275811D01*
X155541083Y-116296420D01*
X155532509Y-116299717D01*
X155521314Y-116302643D01*
X155506120Y-116305230D01*
X155485551Y-116307509D01*
X155458228Y-116309513D01*
X155422775Y-116311272D01*
X155377814Y-116312819D01*
X155321967Y-116314185D01*
X155253857Y-116315401D01*
X155172107Y-116316499D01*
X155075340Y-116317511D01*
X154962177Y-116318468D01*
X154831242Y-116319402D01*
X154681157Y-116320344D01*
X154510544Y-116321327D01*
X154437318Y-116321732D01*
X154253329Y-116322687D01*
X154090394Y-116323499D01*
X153947119Y-116324299D01*
X153822111Y-116325218D01*
X153713976Y-116326389D01*
X153621323Y-116327943D01*
X153542756Y-116330011D01*
X153476884Y-116332725D01*
X153422313Y-116336216D01*
X153377650Y-116340615D01*
X153341502Y-116346055D01*
X153312475Y-116352667D01*
X153289177Y-116360582D01*
X153270214Y-116369931D01*
X153254193Y-116380847D01*
X153239721Y-116393461D01*
X153225405Y-116407904D01*
X153209852Y-116424307D01*
X153195571Y-116438941D01*
X153156366Y-116480842D01*
X153130636Y-116516387D01*
X153113746Y-116552484D01*
X153108344Y-116568900D01*
X153105335Y-116586124D01*
X153100185Y-116624277D01*
X153093042Y-116681958D01*
X153084055Y-116757766D01*
X153073372Y-116850299D01*
X153061141Y-116958156D01*
X153047512Y-117079935D01*
X153032633Y-117214235D01*
X153016653Y-117359654D01*
X152999719Y-117514791D01*
X152981981Y-117678245D01*
X152963587Y-117848614D01*
X152944686Y-118024496D01*
X152925426Y-118204490D01*
X152905956Y-118387195D01*
X152886425Y-118571209D01*
X152866980Y-118755131D01*
X152847771Y-118937559D01*
X152828946Y-119117092D01*
X152810654Y-119292329D01*
X152793043Y-119461867D01*
X152776261Y-119624306D01*
X152760458Y-119778244D01*
X152745782Y-119922280D01*
X152732381Y-120055011D01*
X152720405Y-120175038D01*
X152710000Y-120280957D01*
X152701317Y-120371369D01*
X152694504Y-120444871D01*
X152689709Y-120500062D01*
X152687081Y-120535540D01*
X152686605Y-120547371D01*
X152696250Y-120625127D01*
X152725184Y-120692282D01*
X152765709Y-120742838D01*
X152777432Y-120754970D01*
X152787789Y-120765696D01*
X152798158Y-120775109D01*
X152809920Y-120783302D01*
X152824454Y-120790369D01*
X152843139Y-120796402D01*
X152867354Y-120801495D01*
X152898479Y-120805741D01*
X152937893Y-120809233D01*
X152986975Y-120812064D01*
X153047105Y-120814328D01*
X153119661Y-120816116D01*
X153206024Y-120817524D01*
X153307572Y-120818642D01*
X153425685Y-120819566D01*
X153561742Y-120820388D01*
X153717123Y-120821200D01*
X153893206Y-120822097D01*
X153943460Y-120822360D01*
X155004131Y-120827972D01*
X155065864Y-120861644D01*
X155125866Y-120905655D01*
X155172248Y-120962786D01*
X155201347Y-121028021D01*
X155207375Y-121055567D01*
X155209419Y-121090508D01*
X155208316Y-121142502D01*
X155204572Y-121206590D01*
X155198691Y-121277813D01*
X155191181Y-121351214D01*
X155182545Y-121421833D01*
X155173290Y-121484712D01*
X155163922Y-121534892D01*
X155155268Y-121566576D01*
X155114939Y-121642087D01*
X155055936Y-121706416D01*
X154985430Y-121754696D01*
X154914339Y-121793239D01*
X153241957Y-121795755D01*
X153015247Y-121796087D01*
X152809885Y-121796360D01*
X152624774Y-121796564D01*
X152458815Y-121796685D01*
X152310909Y-121796714D01*
X152179956Y-121796637D01*
X152064859Y-121796445D01*
X151964518Y-121796124D01*
X151877834Y-121795665D01*
X151803709Y-121795054D01*
X151741044Y-121794281D01*
X151688741Y-121793335D01*
X151645699Y-121792202D01*
X151610822Y-121790873D01*
X151583008Y-121789335D01*
X151561161Y-121787578D01*
X151544181Y-121785588D01*
X151530969Y-121783356D01*
X151520427Y-121780869D01*
X151511455Y-121778116D01*
X151509893Y-121777581D01*
X151449112Y-121748127D01*
X151398508Y-121707284D01*
X151361582Y-121659043D01*
X151341839Y-121607400D01*
X151339492Y-121583346D01*
X151340652Y-121569245D01*
X151344051Y-121533948D01*
X151349571Y-121478585D01*
X151357093Y-121404283D01*
X151366500Y-121312172D01*
X151377673Y-121203380D01*
X151390493Y-121079035D01*
X151404842Y-120940267D01*
X151420602Y-120788203D01*
X151437655Y-120623973D01*
X151455881Y-120448704D01*
X151475164Y-120263526D01*
X151495383Y-120069568D01*
X151516422Y-119867957D01*
X151538162Y-119659822D01*
X151560483Y-119446292D01*
X151583269Y-119228496D01*
X151606401Y-119007561D01*
X151629759Y-118784618D01*
X151653227Y-118560793D01*
X151676685Y-118337217D01*
X151700016Y-118115016D01*
X151723100Y-117895321D01*
X151745820Y-117679259D01*
X151768057Y-117467960D01*
X151789693Y-117262551D01*
X151810609Y-117064162D01*
X151830688Y-116873920D01*
X151849810Y-116692955D01*
X151867858Y-116522395D01*
X151884712Y-116363369D01*
X151900256Y-116217005D01*
X151914370Y-116084432D01*
X151926936Y-115966778D01*
X151937835Y-115865173D01*
X151946950Y-115780744D01*
X151954162Y-115714620D01*
X151959352Y-115667930D01*
X151962403Y-115641802D01*
X151963080Y-115636854D01*
X151985209Y-115569259D01*
X152025849Y-115503307D01*
X152081273Y-115443691D01*
X152147752Y-115395103D01*
X152161138Y-115387605D01*
X152209346Y-115361865D01*
X153890162Y-115358916D01*
X154120492Y-115358533D01*
X154329414Y-115358240D01*
X154517970Y-115358043D01*
X154687199Y-115357950D01*
X154838142Y-115357971D01*
G37*
G36*
X162016771Y-115345139D02*
G01*
X162116454Y-115345208D01*
X162196335Y-115345463D01*
X162259060Y-115346071D01*
X162307273Y-115347201D01*
X162343622Y-115349023D01*
X162370751Y-115351704D01*
X162391307Y-115355414D01*
X162407935Y-115360321D01*
X162423280Y-115366594D01*
X162434445Y-115371779D01*
X162499930Y-115413998D01*
X162550359Y-115470015D01*
X162583415Y-115536322D01*
X162596779Y-115609415D01*
X162596947Y-115617597D01*
X162595809Y-115632297D01*
X162592441Y-115668184D01*
X162586960Y-115724119D01*
X162579486Y-115798965D01*
X162570137Y-115891584D01*
X162559033Y-116000838D01*
X162546291Y-116125588D01*
X162532030Y-116264697D01*
X162516370Y-116417026D01*
X162499429Y-116581438D01*
X162481325Y-116756795D01*
X162462178Y-116941958D01*
X162442105Y-117135789D01*
X162421226Y-117337152D01*
X162399660Y-117544906D01*
X162377525Y-117757915D01*
X162354939Y-117975041D01*
X162332022Y-118195145D01*
X162308892Y-118417089D01*
X162285669Y-118639736D01*
X162262470Y-118861947D01*
X162239414Y-119082585D01*
X162216620Y-119300510D01*
X162194207Y-119514586D01*
X162172294Y-119723675D01*
X162150998Y-119926637D01*
X162130440Y-120122336D01*
X162110737Y-120309633D01*
X162092009Y-120487390D01*
X162074373Y-120654470D01*
X162057949Y-120809733D01*
X162042856Y-120952043D01*
X162029211Y-121080260D01*
X162017135Y-121193248D01*
X162006745Y-121289868D01*
X161998160Y-121368982D01*
X161991500Y-121429452D01*
X161986881Y-121470139D01*
X161984425Y-121489907D01*
X161984382Y-121490190D01*
X161961010Y-121571255D01*
X161918676Y-121645511D01*
X161860695Y-121708903D01*
X161790383Y-121757372D01*
X161751880Y-121774653D01*
X161732785Y-121781402D01*
X161713726Y-121786766D01*
X161691953Y-121790902D01*
X161664718Y-121793967D01*
X161629269Y-121796119D01*
X161582857Y-121797515D01*
X161522731Y-121798314D01*
X161446142Y-121798671D01*
X161350340Y-121798746D01*
X161331262Y-121798742D01*
X161232428Y-121798671D01*
X161153370Y-121798409D01*
X161091414Y-121797784D01*
X161043889Y-121796623D01*
X161008122Y-121794752D01*
X160981440Y-121791999D01*
X160961170Y-121788190D01*
X160944641Y-121783153D01*
X160929179Y-121776713D01*
X160919200Y-121772056D01*
X160849867Y-121729091D01*
X160799679Y-121674632D01*
X160768258Y-121608057D01*
X160755226Y-121528743D01*
X160754861Y-121501414D01*
X160756152Y-121483486D01*
X160759708Y-121444193D01*
X160765431Y-121384494D01*
X160773223Y-121305347D01*
X160782985Y-121207710D01*
X160794618Y-121092542D01*
X160808022Y-120960802D01*
X160823100Y-120813447D01*
X160839752Y-120651436D01*
X160857880Y-120475727D01*
X160877385Y-120287280D01*
X160898167Y-120087051D01*
X160920128Y-119876000D01*
X160943170Y-119655086D01*
X160967193Y-119425265D01*
X160992099Y-119187498D01*
X161017788Y-118942742D01*
X161044162Y-118691955D01*
X161063432Y-118509035D01*
X161370595Y-115595224D01*
X161402672Y-115536288D01*
X161451796Y-115467279D01*
X161515579Y-115410232D01*
X161588389Y-115370102D01*
X161594218Y-115367851D01*
X161612474Y-115361513D01*
X161631445Y-115356466D01*
X161653830Y-115352567D01*
X161682328Y-115349670D01*
X161719639Y-115347629D01*
X161768460Y-115346301D01*
X161831491Y-115345540D01*
X161911430Y-115345200D01*
X162010978Y-115345137D01*
X162016771Y-115345139D01*
G37*
G36*
X131683200Y-111619691D02*
G01*
X131752503Y-111634739D01*
X131824804Y-111659661D01*
X131904254Y-111695665D01*
X131981915Y-111738177D01*
X132048850Y-111782625D01*
X132063045Y-111793652D01*
X132078544Y-111807796D01*
X132108870Y-111837045D01*
X132153118Y-111880491D01*
X132210385Y-111937225D01*
X132279766Y-112006339D01*
X132360355Y-112086925D01*
X132451250Y-112178073D01*
X132551545Y-112278875D01*
X132660336Y-112388424D01*
X132776718Y-112505810D01*
X132899788Y-112630125D01*
X133028641Y-112760461D01*
X133162372Y-112895909D01*
X133300077Y-113035560D01*
X133363778Y-113100221D01*
X133506899Y-113245526D01*
X133648799Y-113389559D01*
X133788374Y-113531204D01*
X133924524Y-113669343D01*
X134056147Y-113802860D01*
X134182142Y-113930637D01*
X134301405Y-114051560D01*
X134412837Y-114164509D01*
X134515335Y-114268369D01*
X134607797Y-114362023D01*
X134689122Y-114444354D01*
X134758208Y-114514245D01*
X134813954Y-114570579D01*
X134855258Y-114612240D01*
X134861239Y-114618261D01*
X134932918Y-114690467D01*
X134990209Y-114748532D01*
X135034593Y-114794192D01*
X135067550Y-114829186D01*
X135090559Y-114855252D01*
X135105101Y-114874127D01*
X135112656Y-114887549D01*
X135114702Y-114897255D01*
X135112721Y-114904984D01*
X135109771Y-114910086D01*
X135097760Y-114930757D01*
X135078798Y-114965785D01*
X135055951Y-115009440D01*
X135041665Y-115037370D01*
X134989949Y-115139388D01*
X134930829Y-115073550D01*
X134853670Y-115000733D01*
X134759973Y-114933842D01*
X134655531Y-114876520D01*
X134548321Y-114833131D01*
X134535879Y-114829384D01*
X134521478Y-114826096D01*
X134503578Y-114823223D01*
X134480641Y-114820723D01*
X134451132Y-114818554D01*
X134413510Y-114816674D01*
X134366239Y-114815041D01*
X134307781Y-114813613D01*
X134236597Y-114812347D01*
X134151151Y-114811201D01*
X134049904Y-114810134D01*
X133931319Y-114809103D01*
X133793858Y-114808066D01*
X133635982Y-114806982D01*
X133580458Y-114806614D01*
X132674327Y-114800663D01*
X132110335Y-114228237D01*
X132017465Y-114134027D01*
X131929185Y-114044567D01*
X131846759Y-113961133D01*
X131771451Y-113885001D01*
X131704526Y-113817445D01*
X131647249Y-113759740D01*
X131600883Y-113713163D01*
X131566692Y-113678988D01*
X131545942Y-113658492D01*
X131539840Y-113652784D01*
X131531370Y-113660309D01*
X131507803Y-113683034D01*
X131469865Y-113720234D01*
X131418277Y-113771181D01*
X131353764Y-113835149D01*
X131277050Y-113911412D01*
X131188857Y-113999244D01*
X131089910Y-114097917D01*
X130980932Y-114206707D01*
X130862647Y-114324885D01*
X130735777Y-114451727D01*
X130601048Y-114586505D01*
X130459182Y-114728494D01*
X130310902Y-114876966D01*
X130156933Y-115031196D01*
X129997998Y-115190457D01*
X129834821Y-115354022D01*
X129668124Y-115521166D01*
X129498632Y-115691162D01*
X129327069Y-115863284D01*
X129154157Y-116036804D01*
X128980621Y-116210998D01*
X128807183Y-116385138D01*
X128634568Y-116558498D01*
X128463499Y-116730351D01*
X128294700Y-116899972D01*
X128128893Y-117066634D01*
X127966804Y-117229611D01*
X127809154Y-117388176D01*
X127656669Y-117541602D01*
X127510071Y-117689164D01*
X127370084Y-117830135D01*
X127237431Y-117963789D01*
X127112837Y-118089399D01*
X126997024Y-118206239D01*
X126890716Y-118313582D01*
X126794637Y-118410703D01*
X126709511Y-118496874D01*
X126636060Y-118571370D01*
X126575009Y-118633464D01*
X126527080Y-118682430D01*
X126492999Y-118717541D01*
X126473487Y-118738070D01*
X126468850Y-118743500D01*
X126477097Y-118752150D01*
X126500582Y-118775810D01*
X126538553Y-118813734D01*
X126590258Y-118865178D01*
X126654944Y-118929399D01*
X126731859Y-119005652D01*
X126820249Y-119093191D01*
X126919362Y-119191274D01*
X127028445Y-119299154D01*
X127146747Y-119416089D01*
X127273513Y-119541333D01*
X127407992Y-119674142D01*
X127549430Y-119813771D01*
X127697076Y-119959476D01*
X127850176Y-120110513D01*
X128007978Y-120266138D01*
X128100110Y-120356976D01*
X128260869Y-120515514D01*
X128417675Y-120670261D01*
X128569754Y-120820445D01*
X128716328Y-120965297D01*
X128856622Y-121104046D01*
X128989861Y-121235924D01*
X129115269Y-121360160D01*
X129232070Y-121475983D01*
X129339488Y-121582625D01*
X129436747Y-121679315D01*
X129523073Y-121765284D01*
X129597688Y-121839761D01*
X129659818Y-121901976D01*
X129708686Y-121951160D01*
X129743518Y-121986543D01*
X129763536Y-122007354D01*
X129767865Y-122012201D01*
X129794950Y-122042990D01*
X129832646Y-122081562D01*
X129874365Y-122121275D01*
X129890423Y-122135745D01*
X129912198Y-122155300D01*
X129938466Y-122179471D01*
X129970081Y-122209089D01*
X130007895Y-122244984D01*
X130052764Y-122287986D01*
X130105540Y-122338927D01*
X130167076Y-122398637D01*
X130238228Y-122467947D01*
X130319848Y-122547688D01*
X130412790Y-122638690D01*
X130517907Y-122741785D01*
X130636054Y-122857802D01*
X130768083Y-122987572D01*
X130914849Y-123131927D01*
X130984286Y-123200249D01*
X131077592Y-123291905D01*
X131166289Y-123378718D01*
X131249077Y-123459435D01*
X131324652Y-123532802D01*
X131391713Y-123597564D01*
X131448959Y-123652466D01*
X131495086Y-123696255D01*
X131528795Y-123727676D01*
X131548782Y-123745474D01*
X131553949Y-123749148D01*
X131563092Y-123741012D01*
X131587069Y-123718251D01*
X131624723Y-123681992D01*
X131674898Y-123633364D01*
X131736436Y-123573495D01*
X131808181Y-123503514D01*
X131888975Y-123424549D01*
X131977663Y-123337729D01*
X132073086Y-123244181D01*
X132174087Y-123145035D01*
X132270462Y-123050317D01*
X132978111Y-122354441D01*
X133384404Y-122347618D01*
X133497937Y-122345618D01*
X133591825Y-122343544D01*
X133668872Y-122341023D01*
X133731879Y-122337680D01*
X133783648Y-122333141D01*
X133826981Y-122327034D01*
X133864680Y-122318984D01*
X133899548Y-122308618D01*
X133934386Y-122295562D01*
X133971997Y-122279441D01*
X134004020Y-122264975D01*
X134128765Y-122195880D01*
X134241913Y-122107844D01*
X134342354Y-122001776D01*
X134370856Y-121965214D01*
X134409933Y-121912708D01*
X134456272Y-121983188D01*
X134531865Y-122078651D01*
X134625110Y-122163675D01*
X134732684Y-122235818D01*
X134851262Y-122292635D01*
X134901878Y-122310800D01*
X134939553Y-122322149D01*
X134975813Y-122330577D01*
X135015689Y-122336733D01*
X135064214Y-122341266D01*
X135126418Y-122344823D01*
X135184450Y-122347218D01*
X135377231Y-122354441D01*
X133784172Y-123925807D01*
X133624601Y-124083160D01*
X133468605Y-124236899D01*
X133316994Y-124386229D01*
X133170576Y-124530359D01*
X133030161Y-124668492D01*
X132896558Y-124799836D01*
X132770576Y-124923597D01*
X132653026Y-125038980D01*
X132544715Y-125145191D01*
X132446454Y-125241438D01*
X132359052Y-125326926D01*
X132283318Y-125400860D01*
X132220061Y-125462448D01*
X132170091Y-125510895D01*
X132134217Y-125545408D01*
X132113248Y-125565192D01*
X132109839Y-125568264D01*
X132019544Y-125636373D01*
X131918145Y-125694186D01*
X131812394Y-125738402D01*
X131709041Y-125765720D01*
X131704363Y-125766532D01*
X131612386Y-125778699D01*
X131529445Y-125781278D01*
X131444264Y-125774236D01*
X131388754Y-125765619D01*
X131319933Y-125747970D01*
X131241843Y-125719008D01*
X131162057Y-125682263D01*
X131088149Y-125641263D01*
X131027693Y-125599537D01*
X131021554Y-125594525D01*
X131011076Y-125584589D01*
X130985272Y-125559547D01*
X130944803Y-125520048D01*
X130890331Y-125466746D01*
X130822516Y-125400290D01*
X130742020Y-125321332D01*
X130649505Y-125230523D01*
X130545632Y-125128514D01*
X130431062Y-125015957D01*
X130306457Y-124893502D01*
X130172477Y-124761801D01*
X130029785Y-124621505D01*
X129879042Y-124473265D01*
X129720909Y-124317732D01*
X129556047Y-124155557D01*
X129385118Y-123987392D01*
X129208784Y-123813887D01*
X129027704Y-123635694D01*
X128842542Y-123453465D01*
X128653958Y-123267849D01*
X128462614Y-123079499D01*
X128269171Y-122889065D01*
X128074290Y-122697198D01*
X127878632Y-122504551D01*
X127682860Y-122311773D01*
X127487635Y-122119516D01*
X127293617Y-121928432D01*
X127101468Y-121739171D01*
X126911850Y-121552384D01*
X126725424Y-121368723D01*
X126542851Y-121188839D01*
X126364793Y-121013383D01*
X126191911Y-120843006D01*
X126024866Y-120678360D01*
X125864321Y-120520094D01*
X125710935Y-120368862D01*
X125565371Y-120225313D01*
X125428289Y-120090099D01*
X125300352Y-119963872D01*
X125182220Y-119847281D01*
X125074556Y-119740979D01*
X124978020Y-119645617D01*
X124893273Y-119561845D01*
X124820978Y-119490315D01*
X124761795Y-119431678D01*
X124726766Y-119396907D01*
X124632508Y-119294690D01*
X124558090Y-119194113D01*
X124501495Y-119091689D01*
X124460710Y-118983932D01*
X124439895Y-118900563D01*
X124425792Y-118776059D01*
X124432240Y-118648235D01*
X124458426Y-118520656D01*
X124503535Y-118396886D01*
X124566752Y-118280491D01*
X124589062Y-118247633D01*
X124601256Y-118233674D01*
X124628486Y-118204683D01*
X124669919Y-118161506D01*
X124724722Y-118104989D01*
X124792061Y-118035977D01*
X124871102Y-117955316D01*
X124961013Y-117863850D01*
X125060959Y-117762426D01*
X125170108Y-117651888D01*
X125287626Y-117533083D01*
X125412680Y-117406855D01*
X125544436Y-117274050D01*
X125682060Y-117135514D01*
X125824720Y-116992091D01*
X125971582Y-116844628D01*
X126023112Y-116792930D01*
X126175197Y-116640381D01*
X126341470Y-116473600D01*
X126520267Y-116294255D01*
X126709928Y-116104013D01*
X126908791Y-115904539D01*
X127115194Y-115697501D01*
X127327476Y-115484566D01*
X127543974Y-115267400D01*
X127763028Y-115047670D01*
X127982976Y-114827043D01*
X128202156Y-114607186D01*
X128418907Y-114389765D01*
X128631566Y-114176447D01*
X128838473Y-113968899D01*
X129037965Y-113768787D01*
X129212541Y-113593668D01*
X129418084Y-113387582D01*
X129613500Y-113191845D01*
X129798410Y-113006833D01*
X129972433Y-112832922D01*
X130135190Y-112670490D01*
X130286302Y-112519913D01*
X130425387Y-112381568D01*
X130552067Y-112255831D01*
X130665961Y-112143078D01*
X130766690Y-112043686D01*
X130853874Y-111958033D01*
X130927133Y-111886493D01*
X130986088Y-111829444D01*
X131030358Y-111787263D01*
X131059564Y-111760326D01*
X131072662Y-111749423D01*
X131183189Y-111688531D01*
X131303901Y-111644370D01*
X131430403Y-111617682D01*
X131558301Y-111609209D01*
X131683200Y-111619691D01*
G37*
G36*
X148428219Y-115357763D02*
G01*
X148593898Y-115357953D01*
X148778720Y-115358222D01*
X148983785Y-115358558D01*
X149210193Y-115358949D01*
X149211314Y-115358951D01*
X150886673Y-115361865D01*
X150941615Y-115395834D01*
X150998939Y-115443963D01*
X151041757Y-115506489D01*
X151066732Y-115578336D01*
X151068630Y-115588946D01*
X151071535Y-115629986D01*
X151070695Y-115687017D01*
X151066668Y-115755112D01*
X151060010Y-115829344D01*
X151051280Y-115904783D01*
X151041035Y-115976501D01*
X151029833Y-116039571D01*
X151018231Y-116089065D01*
X151009052Y-116115536D01*
X150969968Y-116179524D01*
X150916607Y-116237195D01*
X150855784Y-116281609D01*
X150836075Y-116291786D01*
X150827041Y-116295836D01*
X150817604Y-116299413D01*
X150806364Y-116302555D01*
X150791921Y-116305300D01*
X150772878Y-116307685D01*
X150747834Y-116309747D01*
X150715391Y-116311525D01*
X150674149Y-116313055D01*
X150622708Y-116314375D01*
X150559670Y-116315523D01*
X150483636Y-116316537D01*
X150393206Y-116317453D01*
X150286980Y-116318309D01*
X150163561Y-116319143D01*
X150021548Y-116319992D01*
X149859542Y-116320895D01*
X149723221Y-116321633D01*
X149539462Y-116322568D01*
X149376752Y-116323359D01*
X149233694Y-116324138D01*
X149108892Y-116325039D01*
X149000949Y-116326195D01*
X148908467Y-116327739D01*
X148830051Y-116329803D01*
X148764302Y-116332521D01*
X148709824Y-116336026D01*
X148665220Y-116340450D01*
X148629094Y-116345927D01*
X148600047Y-116352589D01*
X148576684Y-116360569D01*
X148557607Y-116370001D01*
X148541420Y-116381017D01*
X148526725Y-116393751D01*
X148512125Y-116408335D01*
X148496224Y-116424902D01*
X148481475Y-116439824D01*
X148442641Y-116480716D01*
X148417222Y-116515237D01*
X148400543Y-116550313D01*
X148394413Y-116568900D01*
X148388239Y-116597201D01*
X148380635Y-116644196D01*
X148371872Y-116707172D01*
X148362223Y-116783414D01*
X148351960Y-116870208D01*
X148341354Y-116964842D01*
X148330677Y-117064601D01*
X148320200Y-117166771D01*
X148310196Y-117268640D01*
X148300937Y-117367492D01*
X148292694Y-117460614D01*
X148285738Y-117545293D01*
X148280343Y-117618814D01*
X148276779Y-117678464D01*
X148275318Y-117721529D01*
X148276232Y-117745296D01*
X148276469Y-117746524D01*
X148304009Y-117821762D01*
X148350125Y-117884529D01*
X148415038Y-117935108D01*
X148432457Y-117944944D01*
X148439653Y-117948339D01*
X148448619Y-117951359D01*
X148460681Y-117954033D01*
X148477164Y-117956393D01*
X148499394Y-117958466D01*
X148528696Y-117960283D01*
X148566395Y-117961873D01*
X148613817Y-117963267D01*
X148672287Y-117964493D01*
X148743132Y-117965582D01*
X148827675Y-117966563D01*
X148927243Y-117967466D01*
X149043162Y-117968321D01*
X149176756Y-117969156D01*
X149329350Y-117970003D01*
X149502272Y-117970890D01*
X149616443Y-117971454D01*
X150761146Y-117977066D01*
X150778037Y-118010738D01*
X150783530Y-118022742D01*
X150788261Y-118036151D01*
X150792147Y-118052031D01*
X150795105Y-118071443D01*
X150797054Y-118095451D01*
X150797911Y-118125118D01*
X150797592Y-118161507D01*
X150796017Y-118205681D01*
X150793102Y-118258704D01*
X150788765Y-118321638D01*
X150782923Y-118395546D01*
X150775493Y-118481493D01*
X150766395Y-118580540D01*
X150755543Y-118693751D01*
X150742858Y-118822189D01*
X150728255Y-118966918D01*
X150711652Y-119128999D01*
X150692967Y-119309498D01*
X150672118Y-119509475D01*
X150649021Y-119729996D01*
X150632177Y-119890441D01*
X150607754Y-120122537D01*
X150585490Y-120333253D01*
X150565273Y-120523544D01*
X150546996Y-120694364D01*
X150530548Y-120846665D01*
X150515821Y-120981402D01*
X150502705Y-121099529D01*
X150491091Y-121201999D01*
X150480870Y-121289767D01*
X150471932Y-121363786D01*
X150464168Y-121425010D01*
X150457470Y-121474393D01*
X150451727Y-121512889D01*
X150446830Y-121541451D01*
X150442671Y-121561034D01*
X150439619Y-121571370D01*
X150409112Y-121628744D01*
X150363380Y-121685363D01*
X150308818Y-121734443D01*
X150254141Y-121768134D01*
X150200243Y-121793239D01*
X148533473Y-121795155D01*
X148341396Y-121795318D01*
X148155206Y-121795364D01*
X147976166Y-121795298D01*
X147805536Y-121795123D01*
X147644576Y-121794847D01*
X147494548Y-121794473D01*
X147356714Y-121794006D01*
X147232333Y-121793452D01*
X147122668Y-121792816D01*
X147028979Y-121792102D01*
X146952526Y-121791316D01*
X146894572Y-121790462D01*
X146856377Y-121789546D01*
X146839201Y-121788572D01*
X146838571Y-121788439D01*
X146770631Y-121757622D01*
X146711874Y-121711664D01*
X146667594Y-121655165D01*
X146654015Y-121628045D01*
X146644127Y-121593514D01*
X146638831Y-121546877D01*
X146638148Y-121485981D01*
X146642100Y-121408670D01*
X146650707Y-121312791D01*
X146657720Y-121248874D01*
X146668175Y-121167079D01*
X146679297Y-121103425D01*
X146692649Y-121053621D01*
X146709795Y-121013376D01*
X146732301Y-120978401D01*
X146761730Y-120944406D01*
X146772910Y-120932989D01*
X146810088Y-120901810D01*
X146855503Y-120871747D01*
X146881879Y-120857693D01*
X146945272Y-120827972D01*
X148011555Y-120822360D01*
X149077839Y-120816748D01*
X149126657Y-120790697D01*
X149198829Y-120741777D01*
X149258177Y-120680468D01*
X149299864Y-120611881D01*
X149306065Y-120596721D01*
X149311806Y-120579357D01*
X149317336Y-120557953D01*
X149322901Y-120530674D01*
X149328750Y-120495685D01*
X149335130Y-120451152D01*
X149342289Y-120395240D01*
X149350475Y-120326113D01*
X149359935Y-120241937D01*
X149370918Y-120140877D01*
X149383671Y-120021098D01*
X149397970Y-119885259D01*
X149412640Y-119744862D01*
X149425006Y-119624980D01*
X149435210Y-119523812D01*
X149443391Y-119439557D01*
X149449689Y-119370416D01*
X149454245Y-119314588D01*
X149457199Y-119270274D01*
X149458692Y-119235671D01*
X149458862Y-119208981D01*
X149457852Y-119188403D01*
X149455800Y-119172137D01*
X149454163Y-119163856D01*
X149427977Y-119095067D01*
X149384099Y-119033907D01*
X149327213Y-118986674D01*
X149318632Y-118981618D01*
X149268648Y-118953558D01*
X147136080Y-118942334D01*
X147090418Y-118917892D01*
X147029757Y-118874179D01*
X146980595Y-118816448D01*
X146948065Y-118750917D01*
X146945324Y-118742141D01*
X146942882Y-118733195D01*
X146940846Y-118723553D01*
X146939318Y-118712074D01*
X146938403Y-118697616D01*
X146938202Y-118679036D01*
X146938819Y-118655192D01*
X146940357Y-118624943D01*
X146942918Y-118587145D01*
X146946606Y-118540658D01*
X146951524Y-118484338D01*
X146957775Y-118417044D01*
X146965461Y-118337634D01*
X146974686Y-118244965D01*
X146985552Y-118137896D01*
X146998164Y-118015284D01*
X147012622Y-117875987D01*
X147029032Y-117718863D01*
X147047495Y-117542769D01*
X147068115Y-117346565D01*
X147089497Y-117143336D01*
X147112233Y-116927333D01*
X147132760Y-116732514D01*
X147151217Y-116557740D01*
X147167742Y-116401871D01*
X147182472Y-116263766D01*
X147195548Y-116142286D01*
X147207106Y-116036289D01*
X147217285Y-115944638D01*
X147226223Y-115866190D01*
X147234059Y-115799806D01*
X147240931Y-115744346D01*
X147246977Y-115698669D01*
X147252335Y-115661636D01*
X147257144Y-115632107D01*
X147261543Y-115608941D01*
X147265668Y-115590998D01*
X147269660Y-115577138D01*
X147273655Y-115566221D01*
X147277793Y-115557107D01*
X147282211Y-115548655D01*
X147283130Y-115546963D01*
X147332201Y-115478180D01*
X147396108Y-115421217D01*
X147469114Y-115381107D01*
X147474667Y-115378967D01*
X147483213Y-115375867D01*
X147492201Y-115373063D01*
X147502733Y-115370540D01*
X147515908Y-115368287D01*
X147532827Y-115366291D01*
X147554589Y-115364539D01*
X147582294Y-115363019D01*
X147617042Y-115361718D01*
X147659934Y-115360623D01*
X147712069Y-115359721D01*
X147774547Y-115359000D01*
X147848468Y-115358447D01*
X147934932Y-115358050D01*
X148035039Y-115357796D01*
X148149889Y-115357672D01*
X148280583Y-115357665D01*
X148428219Y-115357763D01*
G37*
G36*
X158601436Y-115356372D02*
G01*
X160268206Y-115356472D01*
X160324326Y-115383003D01*
X160386050Y-115420658D01*
X160432338Y-115469887D01*
X160465562Y-115529708D01*
X160477207Y-115558914D01*
X160483826Y-115585980D01*
X160486162Y-115617802D01*
X160484956Y-115661277D01*
X160483064Y-115692456D01*
X160474455Y-115803460D01*
X160464249Y-115902072D01*
X160452772Y-115986077D01*
X160440352Y-116053258D01*
X160427316Y-116101397D01*
X160420182Y-116118603D01*
X160374460Y-116187833D01*
X160314939Y-116247476D01*
X160257694Y-116285914D01*
X160200861Y-116315908D01*
X159134578Y-116321520D01*
X158068294Y-116327133D01*
X158013068Y-116352601D01*
X157932914Y-116399547D01*
X157870937Y-116458591D01*
X157827719Y-116526653D01*
X157819822Y-116543392D01*
X157812948Y-116560084D01*
X157806779Y-116578836D01*
X157801000Y-116601755D01*
X157795296Y-116630947D01*
X157789351Y-116668517D01*
X157782850Y-116716573D01*
X157775476Y-116777222D01*
X157766914Y-116852568D01*
X157756848Y-116944719D01*
X157744964Y-117055782D01*
X157736522Y-117135263D01*
X157724234Y-117253440D01*
X157713291Y-117363340D01*
X157703875Y-117462860D01*
X157696165Y-117549903D01*
X157690344Y-117622366D01*
X157686591Y-117678149D01*
X157685088Y-117715153D01*
X157685439Y-117728481D01*
X157701611Y-117791177D01*
X157733286Y-117851491D01*
X157775561Y-117900609D01*
X157785908Y-117909121D01*
X157798789Y-117919100D01*
X157810634Y-117927954D01*
X157822791Y-117935751D01*
X157836610Y-117942557D01*
X157853441Y-117948440D01*
X157874632Y-117953467D01*
X157901532Y-117957706D01*
X157935492Y-117961222D01*
X157977860Y-117964084D01*
X158029986Y-117966358D01*
X158093218Y-117968112D01*
X158168906Y-117969413D01*
X158258400Y-117970327D01*
X158363048Y-117970923D01*
X158484200Y-117971266D01*
X158623205Y-117971425D01*
X158781412Y-117971466D01*
X158960170Y-117971457D01*
X159038845Y-117971454D01*
X159222431Y-117971471D01*
X159384882Y-117971536D01*
X159527510Y-117971673D01*
X159651629Y-117971903D01*
X159758551Y-117972251D01*
X159849588Y-117972739D01*
X159926054Y-117973390D01*
X159989261Y-117974227D01*
X160040523Y-117975272D01*
X160081151Y-117976549D01*
X160112459Y-117978080D01*
X160135760Y-117979888D01*
X160152366Y-117981996D01*
X160163589Y-117984427D01*
X160170744Y-117987204D01*
X160175142Y-117990350D01*
X160176024Y-117991262D01*
X160193473Y-118022535D01*
X160206927Y-118070625D01*
X160215190Y-118130075D01*
X160217260Y-118179099D01*
X160216111Y-118197972D01*
X160212723Y-118237866D01*
X160207229Y-118297480D01*
X160199760Y-118375511D01*
X160190447Y-118470658D01*
X160179421Y-118581620D01*
X160166815Y-118707095D01*
X160152759Y-118845780D01*
X160137385Y-118996375D01*
X160120824Y-119157578D01*
X160103207Y-119328087D01*
X160084667Y-119506600D01*
X160065334Y-119691816D01*
X160045339Y-119882433D01*
X160045044Y-119885239D01*
X160021221Y-120111576D01*
X159999578Y-120316654D01*
X159979992Y-120501546D01*
X159962337Y-120667321D01*
X159946490Y-120815053D01*
X159932325Y-120945811D01*
X159919719Y-121060667D01*
X159908545Y-121160691D01*
X159898681Y-121246957D01*
X159890000Y-121320533D01*
X159882379Y-121382493D01*
X159875694Y-121433906D01*
X159869818Y-121475844D01*
X159864628Y-121509379D01*
X159860000Y-121535581D01*
X159855808Y-121555522D01*
X159851928Y-121570273D01*
X159848235Y-121580905D01*
X159847637Y-121582334D01*
X159811221Y-121643390D01*
X159758797Y-121700362D01*
X159696729Y-121747306D01*
X159641761Y-121774653D01*
X159577085Y-121798851D01*
X157924767Y-121797965D01*
X157697499Y-121797824D01*
X157491605Y-121797649D01*
X157306008Y-121797428D01*
X157139632Y-121797150D01*
X156991404Y-121796802D01*
X156860246Y-121796374D01*
X156745085Y-121795854D01*
X156644844Y-121795229D01*
X156558448Y-121794489D01*
X156484822Y-121793623D01*
X156422891Y-121792617D01*
X156371578Y-121791461D01*
X156329809Y-121790143D01*
X156296509Y-121788651D01*
X156270601Y-121786974D01*
X156251011Y-121785100D01*
X156236664Y-121783018D01*
X156226483Y-121780716D01*
X156222900Y-121779579D01*
X156163584Y-121747678D01*
X156111927Y-121699128D01*
X156073168Y-121639595D01*
X156058493Y-121601690D01*
X156052231Y-121578590D01*
X156048064Y-121556907D01*
X156046056Y-121532866D01*
X156046271Y-121502691D01*
X156048775Y-121462606D01*
X156053630Y-121408833D01*
X156060903Y-121337598D01*
X156063411Y-121313727D01*
X156074467Y-121216924D01*
X156085057Y-121141281D01*
X156095392Y-121085523D01*
X156105684Y-121048371D01*
X156108569Y-121041171D01*
X156145546Y-120979768D01*
X156198068Y-120922062D01*
X156259444Y-120874852D01*
X156287680Y-120859084D01*
X156351016Y-120827972D01*
X157417300Y-120822360D01*
X157595798Y-120821415D01*
X157753244Y-120820550D01*
X157891034Y-120819728D01*
X158010562Y-120818911D01*
X158113225Y-120818062D01*
X158200418Y-120817143D01*
X158273537Y-120816118D01*
X158333977Y-120814948D01*
X158383133Y-120813597D01*
X158422402Y-120812026D01*
X158453179Y-120810200D01*
X158476859Y-120808079D01*
X158494839Y-120805627D01*
X158508513Y-120802807D01*
X158519277Y-120799581D01*
X158528527Y-120795912D01*
X158536296Y-120792391D01*
X158596245Y-120754995D01*
X158652425Y-120702522D01*
X158697765Y-120642101D01*
X158712485Y-120614777D01*
X158718449Y-120600465D01*
X158724089Y-120582728D01*
X158729657Y-120559710D01*
X158735405Y-120529555D01*
X158741586Y-120490406D01*
X158748452Y-120440406D01*
X158756256Y-120377698D01*
X158765248Y-120300427D01*
X158775682Y-120206736D01*
X158787810Y-120094768D01*
X158801883Y-119962665D01*
X158804736Y-119935723D01*
X158817139Y-119817098D01*
X158828784Y-119703011D01*
X158839450Y-119595813D01*
X158848915Y-119497856D01*
X158856959Y-119411494D01*
X158863361Y-119339077D01*
X158867899Y-119282959D01*
X158870352Y-119245491D01*
X158870733Y-119233556D01*
X158862388Y-119152236D01*
X158836357Y-119083694D01*
X158791419Y-119025872D01*
X158726349Y-118976712D01*
X158713676Y-118969337D01*
X158705808Y-118966613D01*
X158691576Y-118964169D01*
X158669716Y-118961979D01*
X158638963Y-118960020D01*
X158598053Y-118958267D01*
X158545721Y-118956694D01*
X158480703Y-118955278D01*
X158401734Y-118953993D01*
X158307550Y-118952814D01*
X158196887Y-118951718D01*
X158068479Y-118950679D01*
X157921063Y-118949672D01*
X157753375Y-118948674D01*
X157619333Y-118947946D01*
X156553049Y-118942334D01*
X156491317Y-118908661D01*
X156431330Y-118864691D01*
X156385013Y-118807675D01*
X156355997Y-118742598D01*
X156349945Y-118714739D01*
X156349858Y-118695174D01*
X156352109Y-118654998D01*
X156356531Y-118595796D01*
X156362956Y-118519157D01*
X156371216Y-118426666D01*
X156381143Y-118319910D01*
X156392570Y-118200476D01*
X156405329Y-118069950D01*
X156419252Y-117929920D01*
X156434171Y-117781971D01*
X156449920Y-117627691D01*
X156466328Y-117468666D01*
X156483231Y-117306483D01*
X156500458Y-117142728D01*
X156517843Y-116978988D01*
X156535218Y-116816850D01*
X156552415Y-116657900D01*
X156569267Y-116503726D01*
X156585605Y-116355913D01*
X156601262Y-116216049D01*
X156616071Y-116085720D01*
X156629863Y-115966512D01*
X156642470Y-115860014D01*
X156653725Y-115767810D01*
X156663461Y-115691488D01*
X156671509Y-115632634D01*
X156677702Y-115592835D01*
X156681871Y-115573678D01*
X156682083Y-115573150D01*
X156718317Y-115512713D01*
X156770335Y-115455528D01*
X156831699Y-115408022D01*
X156867322Y-115388242D01*
X156934666Y-115356271D01*
X158601436Y-115356372D01*
G37*
%LPC*%
D15*
X155962500Y-88105000D03*
X155962500Y-87005000D03*
X155962500Y-85905000D03*
X155962500Y-84805000D03*
X155962500Y-83705000D03*
X155962500Y-82605000D03*
X155962500Y-81505000D03*
D16*
X155962500Y-80455000D03*
D17*
X162112500Y-90740000D03*
X165812500Y-90740000D03*
D18*
X156087500Y-90565000D03*
D19*
X166787500Y-87240000D03*
D20*
X156312500Y-79245000D03*
D19*
X166787500Y-81270000D03*
D21*
X109950000Y-84500000D03*
D22*
X109950000Y-81960000D03*
D21*
X113800000Y-84400000D03*
D22*
X113800000Y-81860000D03*
X113800000Y-79320000D03*
D23*
X89030000Y-81280000D03*
X85930000Y-81280000D03*
X89030000Y-83820000D03*
X85930000Y-83820000D03*
X89030000Y-86360000D03*
X85930000Y-86360000D03*
X89030000Y-88900000D03*
X85930000Y-88900000D03*
X89030000Y-91440000D03*
X85930000Y-91440000D03*
X89030000Y-93980000D03*
X85930000Y-93980000D03*
X89030000Y-99060000D03*
X85930000Y-99060000D03*
X89030000Y-101600000D03*
X85930000Y-101600000D03*
X89050000Y-104140000D03*
X85950000Y-104140000D03*
X89050000Y-106680000D03*
X85950000Y-106680000D03*
X89050000Y-109220000D03*
X85950000Y-109220000D03*
X89050000Y-111760000D03*
X85950000Y-111760000D03*
X89050000Y-114300000D03*
X85950000Y-114300000D03*
X89050000Y-116840000D03*
X85950000Y-116840000D03*
X89050000Y-119380000D03*
X85950000Y-119380000D03*
X89050000Y-121910000D03*
X85950000Y-121910000D03*
X89000000Y-124460000D03*
X85900000Y-124460000D03*
D24*
X92950000Y-81280000D03*
X96050000Y-81280000D03*
X92950000Y-83820000D03*
X96050000Y-83820000D03*
X92950000Y-86360000D03*
X96050000Y-86360000D03*
X92950000Y-88900000D03*
X96050000Y-88900000D03*
X92950000Y-91440000D03*
X96050000Y-91440000D03*
X92950000Y-93980000D03*
X96050000Y-93980000D03*
X92950000Y-96520000D03*
X96050000Y-96520000D03*
X92950000Y-99060000D03*
X96050000Y-99060000D03*
X92950000Y-101600000D03*
X96050000Y-101600000D03*
X92950000Y-124460000D03*
X96050000Y-124460000D03*
X92950000Y-121920000D03*
X96050000Y-121920000D03*
X92950000Y-119380000D03*
X96050000Y-119380000D03*
X92950000Y-116840000D03*
X96050000Y-116840000D03*
X92950000Y-114300000D03*
X96050000Y-114300000D03*
X92950000Y-111760000D03*
X96050000Y-111760000D03*
X92950000Y-109220000D03*
X96050000Y-109220000D03*
X92950000Y-106680000D03*
X96050000Y-106680000D03*
X92950000Y-104140000D03*
X96050000Y-104140000D03*
D21*
X102800000Y-109270000D03*
D25*
X105340000Y-109270000D03*
X107880000Y-109270000D03*
X110420000Y-109270000D03*
X112960000Y-109270000D03*
X115500000Y-109270000D03*
X118040000Y-109270000D03*
X120580000Y-109270000D03*
X123120000Y-109270000D03*
X125660000Y-109270000D03*
X128200000Y-109270000D03*
X130740000Y-109270000D03*
X133280000Y-109270000D03*
X135820000Y-109270000D03*
X138360000Y-109270000D03*
X140900000Y-109270000D03*
X143440000Y-109270000D03*
X145980000Y-109270000D03*
X148520000Y-109270000D03*
X151060000Y-109270000D03*
X151060000Y-94030000D03*
X148520000Y-94030000D03*
X145980000Y-94030000D03*
X143440000Y-94030000D03*
X140900000Y-94030000D03*
X138360000Y-94030000D03*
X135820000Y-94030000D03*
X133280000Y-94030000D03*
X130740000Y-94030000D03*
X128200000Y-94030000D03*
X125660000Y-94030000D03*
X123120000Y-94030000D03*
X120580000Y-94030000D03*
X118040000Y-94030000D03*
X115500000Y-94030000D03*
X112960000Y-94030000D03*
X110420000Y-94030000D03*
X107880000Y-94030000D03*
X105340000Y-94030000D03*
X102800000Y-94030000D03*
D23*
X89030000Y-96520000D03*
X85930000Y-96520000D03*
D26*
X161348350Y-96348350D03*
X161348350Y-99000000D03*
X162674175Y-95799175D03*
X164549175Y-97674175D03*
D27*
X162674175Y-97674175D03*
D26*
X162674175Y-99549175D03*
X164000000Y-96348350D03*
X164000000Y-99000000D03*
X160799175Y-97674175D03*
X105125000Y-80645000D03*
X103250000Y-78770000D03*
X104575825Y-81970825D03*
D27*
X103250000Y-80645000D03*
D26*
X101924175Y-79319175D03*
X101924175Y-81970825D03*
X103250000Y-82520000D03*
X101375000Y-80645000D03*
X104575825Y-79319175D03*
D27*
X103250000Y-122325000D03*
D26*
X101924175Y-123650825D03*
X103250000Y-120450000D03*
X101375000Y-122325000D03*
X104575825Y-120999175D03*
X104575825Y-123650825D03*
X105125000Y-122325000D03*
X103250000Y-124200000D03*
X101924175Y-120999175D03*
D28*
X78740000Y-120650000D03*
D29*
X76740000Y-120650000D03*
X78740000Y-118650000D03*
X76740000Y-118650000D03*
X78740000Y-116650000D03*
X76740000Y-116650000D03*
X78740000Y-114650000D03*
X76740000Y-114650000D03*
X78740000Y-112650000D03*
X76740000Y-112650000D03*
X78740000Y-110650000D03*
X76740000Y-110650000D03*
X78740000Y-108650000D03*
X76740000Y-108650000D03*
X78740000Y-106650000D03*
X76740000Y-106650000D03*
X78740000Y-104650000D03*
X76740000Y-104650000D03*
X78740000Y-102650000D03*
X76740000Y-102650000D03*
X78740000Y-100650000D03*
X76740000Y-100650000D03*
X78740000Y-98650000D03*
X76740000Y-98650000D03*
X78740000Y-96650000D03*
X76740000Y-96650000D03*
X78740000Y-94650000D03*
X76740000Y-94650000D03*
X78740000Y-92650000D03*
X76740000Y-92650000D03*
X78740000Y-90650000D03*
X76740000Y-90650000D03*
X78740000Y-88650000D03*
X76740000Y-88650000D03*
X78740000Y-86650000D03*
X76740000Y-86650000D03*
X78740000Y-84650000D03*
X76740000Y-84650000D03*
X78740000Y-82650000D03*
X76740000Y-82650000D03*
M02*
