G04 #@! TF.GenerationSoftware,KiCad,Pcbnew,(6.0.4)*
G04 #@! TF.CreationDate,2022-09-09T10:41:32-05:00*
G04 #@! TF.ProjectId,v2-PowerBook-BLUESCSI-dehij,76322d50-6f77-4657-9242-6f6f6b2d424c,rev?*
G04 #@! TF.SameCoordinates,Original*
G04 #@! TF.FileFunction,Paste,Top*
G04 #@! TF.FilePolarity,Positive*
%FSLAX46Y46*%
G04 Gerber Fmt 4.6, Leading zero omitted, Abs format (unit mm)*
G04 Created by KiCad (PCBNEW (6.0.4)) date 2022-09-09 10:41:32*
%MOMM*%
%LPD*%
G01*
G04 APERTURE LIST*
G04 Aperture macros list*
%AMRoundRect*
0 Rectangle with rounded corners*
0 $1 Rounding radius*
0 $2 $3 $4 $5 $6 $7 $8 $9 X,Y pos of 4 corners*
0 Add a 4 corners polygon primitive as box body*
4,1,4,$2,$3,$4,$5,$6,$7,$8,$9,$2,$3,0*
0 Add four circle primitives for the rounded corners*
1,1,$1+$1,$2,$3*
1,1,$1+$1,$4,$5*
1,1,$1+$1,$6,$7*
1,1,$1+$1,$8,$9*
0 Add four rect primitives between the rounded corners*
20,1,$1+$1,$2,$3,$4,$5,0*
20,1,$1+$1,$4,$5,$6,$7,0*
20,1,$1+$1,$6,$7,$8,$9,0*
20,1,$1+$1,$8,$9,$2,$3,0*%
G04 Aperture macros list end*
%ADD10R,1.100000X0.850000*%
%ADD11R,1.100000X0.750000*%
%ADD12R,1.000000X1.200000*%
%ADD13R,1.350000X1.550000*%
%ADD14R,1.350000X1.900000*%
%ADD15R,1.800000X1.170000*%
%ADD16RoundRect,0.250000X0.400000X0.625000X-0.400000X0.625000X-0.400000X-0.625000X0.400000X-0.625000X0*%
%ADD17RoundRect,0.250000X-0.400000X-0.625000X0.400000X-0.625000X0.400000X0.625000X-0.400000X0.625000X0*%
G04 APERTURE END LIST*
D10*
X155962500Y-88105000D03*
X155962500Y-87005000D03*
X155962500Y-85905000D03*
X155962500Y-84805000D03*
X155962500Y-83705000D03*
X155962500Y-82605000D03*
X155962500Y-81505000D03*
D11*
X155962500Y-80455000D03*
D12*
X162112500Y-90740000D03*
X165812500Y-90740000D03*
D13*
X156087500Y-90565000D03*
D14*
X166787500Y-87240000D03*
D15*
X156312500Y-79245000D03*
D14*
X166787500Y-81270000D03*
D16*
X89030000Y-81280000D03*
X85930000Y-81280000D03*
X89030000Y-83820000D03*
X85930000Y-83820000D03*
X89030000Y-86360000D03*
X85930000Y-86360000D03*
X89030000Y-88900000D03*
X85930000Y-88900000D03*
X89030000Y-91440000D03*
X85930000Y-91440000D03*
X89030000Y-93980000D03*
X85930000Y-93980000D03*
X89030000Y-99060000D03*
X85930000Y-99060000D03*
X89030000Y-101600000D03*
X85930000Y-101600000D03*
X89050000Y-104140000D03*
X85950000Y-104140000D03*
X89050000Y-106680000D03*
X85950000Y-106680000D03*
X89050000Y-109220000D03*
X85950000Y-109220000D03*
X89050000Y-111760000D03*
X85950000Y-111760000D03*
X89050000Y-114300000D03*
X85950000Y-114300000D03*
X89050000Y-116840000D03*
X85950000Y-116840000D03*
X89050000Y-119380000D03*
X85950000Y-119380000D03*
X89050000Y-121910000D03*
X85950000Y-121910000D03*
X89000000Y-124460000D03*
X85900000Y-124460000D03*
D17*
X92950000Y-81280000D03*
X96050000Y-81280000D03*
X92950000Y-83820000D03*
X96050000Y-83820000D03*
X92950000Y-86360000D03*
X96050000Y-86360000D03*
X92950000Y-88900000D03*
X96050000Y-88900000D03*
X92950000Y-91440000D03*
X96050000Y-91440000D03*
X92950000Y-93980000D03*
X96050000Y-93980000D03*
X92950000Y-96520000D03*
X96050000Y-96520000D03*
X92950000Y-99060000D03*
X96050000Y-99060000D03*
X92950000Y-101600000D03*
X96050000Y-101600000D03*
X92950000Y-124460000D03*
X96050000Y-124460000D03*
X92950000Y-121920000D03*
X96050000Y-121920000D03*
X92950000Y-119380000D03*
X96050000Y-119380000D03*
X92950000Y-116840000D03*
X96050000Y-116840000D03*
X92950000Y-114300000D03*
X96050000Y-114300000D03*
X92950000Y-111760000D03*
X96050000Y-111760000D03*
X92950000Y-109220000D03*
X96050000Y-109220000D03*
X92950000Y-106680000D03*
X96050000Y-106680000D03*
X92950000Y-104140000D03*
X96050000Y-104140000D03*
D16*
X89030000Y-96520000D03*
X85930000Y-96520000D03*
M02*
